<svg xmlns="http://www.w3.org/2000/svg"><defs><font horiz-adv-x="610" id="web"><font-face alphabetic="0" ascent="992" descent="-290" panose-1="2 11 8 5 2 2 2 2 2 3"/><glyph horiz-adv-x="269"/><glyph d="M105 708h126V420l-10-191H116l-11 191zm63-568q40 0 57-21t18-54q0-34-18-55t-57-20q-76 0-76 75t76 75z" horiz-adv-x="336" unicode="!"/><glyph d="M77 708h100l-11-259H77zm182 0h100l-11-259h-89z" horiz-adv-x="437" unicode="&quot;"/><glyph d="M287 648h98l-41-158h160l41 158h98l-41-158h111v-79H581l-45-174h110v-78H515L474 0h-99l42 159H257L216 0h-99l42 159H47v78h132l46 174H114v79h132zm36-237l-45-174h159l46 174z" horiz-adv-x="760" unicode="#"/><glyph d="M262 752h103v-73q101-10 180-65l-56-76q-42 24-81 36t-88 13q-116 0-116-77 0-27 12-43t39-26 80-22q106-23 159-69t54-129q0-80-51-128T365 33v-77H262v73q-66 4-115 22t-86 49l62 76q38-26 76-38t87-12q137 0 137 92 0 30-14 47t-43 29-84 25q-104 26-152 67T82 504q0 72 49 117t131 57z" unicode="$"/><glyph d="M292 723q66 0 116-28t78-78 28-109q0-62-28-112t-78-77-116-27q-67 0-118 27t-78 77-27 112q0 61 27 110t78 77 118 28zm467-14h116L456 0H341zm-466-85q-52 0-79-33t-26-83q0-52 26-84t79-32q51 0 76 32t26 84q0 51-26 83t-76 33zm636-204q66 0 116-28t78-78 28-109q0-62-28-112t-78-77-116-27q-67 0-118 27t-78 77-27 112q0 61 27 110t78 77 118 28zm1-99q-52 0-79-33t-26-83q0-52 26-84t79-32q51 0 76 32t26 84q0 51-26 83t-76 33z" horiz-adv-x="1220" unicode="%"/><glyph d="M297 727q95 0 149-46t54-120q0-65-36-109t-110-81l152-144q27 59 42 130l105-20q-13-94-67-184l92-87-76-82-85 81q-45-41-98-61T295-16q-76 0-133 26T74 83 44 189q0 65 31 111t104 86q-44 43-64 81t-20 90q0 48 25 87t71 61 106 22zm1-97q-37 0-57-20t-19-52q0-33 13-60t46-59q55 30 75 56t20 63q0 34-20 53t-58 19zm-43-316q-43-27-60-53t-16-65q0-45 32-73t89-27q85 0 139 43z" horiz-adv-x="685" unicode="&amp;"/><glyph d="M77 708h100l-11-259H77z" horiz-adv-x="255" unicode="'"/><glyph d="M249 839l79-51q-64-100-101-204t-36-230q0-126 36-230T328-80l-79-51Q163-21 110 97T57 354q0 139 53 257t139 228z" horiz-adv-x="385" unicode="("/><glyph d="M136 839q86-110 139-228t53-257q0-138-53-257T136-131L57-80q64 100 100 204t37 230q0 126-37 230T57 788z" horiz-adv-x="385" unicode=")"/><glyph d="M169 708h99l-9-110 101 43 31-93-108-25 73-83-80-59-57 95-56-95-81 59 73 83-108 25 31 93 102-44z" horiz-adv-x="438" unicode="*"/><glyph d="M251 487h108V337h146V237H359V87H251v150H105v100h146z" unicode="+"/><glyph d="M144 140q40 0 61-25t21-68q0-65-28-119T95-195l-49 45q42 42 62 77t23 73Q98 6 83 23T69 69q0 30 19 50t56 21z" horiz-adv-x="293" unicode=","/><glyph d="M40 340h239V240H40z" horiz-adv-x="319" unicode="-"/><glyph d="M142 140q40 0 57-21t18-54q0-34-18-55t-57-20q-76 0-76 75t76 75z" horiz-adv-x="284" unicode="."/><glyph d="M331 792h109L212-88H103z" horiz-adv-x="545" unicode="/"/><glyph d="M304 727q133 0 201-96t69-277q0-182-69-278T304-19q-132 0-200 95T36 354q0 182 68 277t200 96zm1-110q-76 0-108-64t-31-199q0-137 31-200t108-62q77 0 108 62t31 200q0 135-32 199t-107 64z" unicode="0"/><glyph d="M293 708h118V108h148V0H90v107h190v469l-179-86-50 93z" unicode="1"/><glyph d="M292 726q79 0 137-30t88-78 31-105q0-68-28-121t-92-114-203-170h342V0H55v100l17 15q159 136 223 195t91 101 28 90q0 53-36 85t-97 33q-48 0-88-21t-79-60l-78 68q53 59 112 89t144 31z" unicode="2"/><glyph d="M289 727q75 0 130-26t83-69 29-97q0-133-128-164v-2q65-8 107-49t43-118q0-64-32-114T426 9 276-19q-83 0-144 26T19 84l69 77q46-38 88-55t100-16q64 0 104 31t40 88q0 55-31 80t-91 25H184v104h97q57 0 89 24t32 76q0 50-32 76t-94 26q-89 0-169-63l-67 75q54 48 115 71t134 24z" unicode="3"/><glyph d="M246 708h138L165 262h204v182h126V262h87V154h-87V0H370v154H19v97z" unicode="4"/><glyph d="M89 708h435V600H213V425q58 23 131 23 64 0 115-28t79-77 29-117q0-74-34-130t-98-85-149-30q-85 0-147 26T27 84l72 78q46-39 87-55t100-16q67 0 107 35t41 97q0 58-35 90t-92 33q-68 0-132-31H89z" unicode="5"/><glyph d="M356 727q92 0 169-47l-46-90q-59 33-121 33-82 0-131-57t-58-162q38 33 82 49t100 16q65 0 116-28t81-78 30-118q0-76-32-136t-93-94-143-34q-136 0-205 90T36 316q0 124 37 216t110 144 173 51zm-34-357q-87 0-154-72 2-106 36-158t107-51q66 0 101 40t35 112q0 63-34 96t-91 33z" unicode="6"/><glyph d="M32 708h548V606Q456 476 386 323T307 0H159q27 175 93 321t176 278H32z" unicode="7"/><glyph d="M306 727q67 0 122-22t88-64 32-97q0-103-115-170 79-31 112-74t34-115q0-57-33-104T450 8 303-19q-84 0-146 26T63 80 31 183q0 69 34 113t108 78q-59 29-85 67t-25 99q0 54 32 96t88 67 123 24zm0-96q-48 0-81-26t-33-70q0-37 24-64t78-47l40-14q44 29 64 59t21 66q0 45-32 70t-81 26zm-36-295q-55-22-80-57t-25-82q0-55 37-84t104-29q66 0 103 29t37 80q0 32-12 53t-39 37-75 35z" unicode="8"/><glyph d="M304 727q133 0 201-88t69-242q0-196-116-304T119-14V93q146 0 228 56t95 162q-80-67-180-67-64 0-117 27t-83 78-30 121q0 73 32 131t95 92 145 34zm-1-106q-67 0-104-39t-36-108q0-64 35-98t94-33q44 0 83 18t69 53q-2 109-35 158t-106 49z" unicode="9"/><glyph d="M142 140q40 0 57-21t18-54q0-34-18-55t-57-20q-76 0-76 75t76 75zm0 347q40 0 57-21t18-54q0-34-18-55t-57-20q-76 0-76 75t76 75z" horiz-adv-x="284" unicode=":"/><glyph d="M147 487q40 0 57-21t18-54q0-34-18-55t-57-20q-76 0-76 75t76 75zm-3-347q40 0 61-25t21-68q0-65-28-119T95-195l-49 45q42 42 62 77t23 73Q98 6 83 23T69 69q0 30 19 50t56 21z" horiz-adv-x="293" unicode=";"/><glyph d="M448 538l51-79-274-175 273-174-51-80-336 204v96z" unicode="&lt;"/><glyph d="M105 240h400V140H105zm0 200h400V340H105z" unicode="="/><glyph d="M162 538l337-208v-96L163 30l-51 80 273 174-274 175z" unicode="&gt;"/><glyph d="M256 726q69 0 122-26t82-72 29-103q0-45-18-79t-43-57-65-53q-42-30-61-50t-19-46v-11H163v31q0 45 25 74t76 65q46 33 68 58t23 63q0 45-30 72t-79 27q-51 0-88-20t-73-61L7 606q47 59 107 89t142 31zm-33-586q40 0 57-21t18-54q0-34-18-55t-57-20q-76 0-76 75t76 75z" horiz-adv-x="527" unicode="?"/><glyph d="M493 682q127 0 214-45t131-123 43-176q0-119-47-188T708 82q-50 0-85 26t-43 70q-53-94-159-94-71 0-111 46t-39 122q0 70 26 127t80 92 135 35q46 0 90-14t77-38l-27-192q-2-22-2-29 0-39 16-56t42-17q69 0 69 176 0 258-285 258-103 0-173-41T217 441t-33-158q0-147 78-225t230-78q54 0 105 9t88 23l27-81q-44-18-102-29t-122-11q-125 0-218 47T128 73 78 282q0 110 51 201t145 145 219 54zm13-255q-65 0-97-51t-31-125q0-82 67-82 42 0 70 37t38 94l17 113q-30 14-64 14z" horiz-adv-x="960" unicode="@"/><glyph d="M269 708h135L675 0H533l-54 153H191L134 0H-3zm67-134L226 253h219z" horiz-adv-x="673" unicode="A"/><glyph d="M80 708h269q102 0 163-42t61-135q0-61-33-102t-88-55v-2q70-10 110-54t41-117q0-104-69-153T352 0H80zm127-99V413h119q57 0 87 25t30 77q0 49-31 71t-93 23zm0-289V101h121q64 0 102 26t39 86q0 55-34 81t-101 26z" horiz-adv-x="643" unicode="B"/><glyph d="M401 728q74 0 140-24t109-66l-74-84q-34 29-78 45t-92 16q-116 0-171-71t-55-189q0-117 55-188t168-70q53 0 98 19t79 52l79-86Q614 37 546 9T399-19q-113 0-193 47T85 160 44 355q0 112 41 196t122 130 194 47z" horiz-adv-x="678" unicode="C"/><glyph d="M80 708h241q180 0 278-87t98-266q0-114-46-194T522 40 326 0H80zm130-107V108h103q123 0 186 60t63 187q0 127-62 186t-184 60z" horiz-adv-x="740" unicode="D"/><glyph d="M80 708h447V603H211V414h270V313H211V107h333V0H80z" horiz-adv-x="568" unicode="E"/><glyph d="M80 708h447V601H211V404h275V297H211V0H80z" horiz-adv-x="543" unicode="F"/><glyph d="M404 727q74 0 140-24t109-66l-74-84q-34 29-79 45t-91 17q-117 0-174-71t-57-189q0-265 229-265 74 0 142 29v158H404v100h266V48Q550-19 405-19q-117 0-198 47T85 159 44 355q0 111 42 195t124 130 194 47z" horiz-adv-x="742" unicode="G"/><glyph d="M80 708h131V416h327v292h132V0H538v311H211V0H80z" horiz-adv-x="749" unicode="H"/><glyph d="M48 708h294v-96h-83V99h83V0H48v99h83v513H48z" horiz-adv-x="390" unicode="I"/><glyph d="M223 708h131V211q0-63-24-115t-72-84-122-31Q59-19 3 17l48 97q14-9 34-15t42-5q96 0 96 116z" horiz-adv-x="426" unicode="J"/><glyph d="M80 708h131V417l278 291h156L339 387 670 0H507L253 296l-42-43V0H80z" horiz-adv-x="660" unicode="K"/><glyph d="M80 708h131V109h306V0H80z" horiz-adv-x="521" unicode="L"/><glyph d="M80 708h192l193-528h2l198 528h193V0H730l3 557h-2L513 0h-98L200 557h-2l4-557H80z" horiz-adv-x="938" unicode="M"/><glyph d="M80 708h149l350-528h2l-3 528h121V0H550L200 529h-2l4-529H80z" horiz-adv-x="779" unicode="N"/><glyph d="M406 727q113 0 195-47t125-131 43-195q0-111-43-196T601 27 406-19q-113 0-195 46T87 158 44 354q0 111 43 195t124 131 195 47zm0-113q-113 0-171-70t-57-190q0-120 57-190t171-70q114 0 171 70t58 190q0 120-58 190t-171 70z" horiz-adv-x="812" unicode="O"/><glyph d="M80 708h255q120 0 193-59t74-178q0-79-37-134t-98-82-132-26H211V0H80zm130-105V335h113q62 0 104 33t42 102q0 71-41 102t-104 31z" horiz-adv-x="628" unicode="P"/><glyph d="M406 727q113 0 194-47t125-131 43-195q0-147-75-245T485-12q18-29 44-46t69-25 115-8v-107q-115 0-187 20t-113 60-68 103Q250-3 182 46T79 174 44 354q0 111 43 195t124 131 195 47zm0-113q-113 0-171-70t-57-190q0-120 57-190t171-70q113 0 170 70t58 190q0 120-58 190t-170 70z" horiz-adv-x="812" unicode="Q"/><glyph d="M80 708h248q119 0 193-62t74-175q0-150-143-205L621 0H471L331 240H211V0H80zm130-105V340h111q61 0 100 32t39 99q0 67-40 99t-101 33z" horiz-adv-x="653" unicode="R"/><glyph d="M299 725q130 0 229-70l-59-85q-42 26-82 38t-85 12q-56 0-90-22t-33-64q0-44 34-67t113-43q104-27 159-78t55-146q0-72-36-122T406 5 270-19q-71 0-133 21T26 64l63 83q41-30 84-43t96-13q62 0 99 26t38 78q0 38-18 60t-52 37-92 30q-96 25-146 73T49 526q0 63 33 108t89 68 128 23z" horiz-adv-x="575" unicode="S"/><glyph d="M4 708h557V598H348V0H217v598H4z" horiz-adv-x="565" unicode="T"/><glyph d="M72 708h131V266q0-86 38-129t128-43q89 0 127 43t39 129v442h131V256q0-130-78-203T369-19q-141 0-219 72T72 256z" horiz-adv-x="738" unicode="U"/><glyph d="M-6 708h141l194-559h4l190 559h139L391 0H263z" horiz-adv-x="656" unicode="V"/><glyph d="M7 708h135l139-534h3l150 534h133l151-534h3l142 534h129L788 0H659L500 540h-3L341 0H211z" horiz-adv-x="1000" unicode="W"/><glyph d="M23 708h151l149-251 149 251h148L400 373 646 0H493L320 282 149 0H-4l247 373z" horiz-adv-x="643" unicode="X"/><glyph d="M-18 708h150l169-301h2l167 301h145L362 301V0H231v303z" horiz-adv-x="598" unicode="Y"/><glyph d="M44 708h502V605L189 109h366V0H32v111l354 492H44z" horiz-adv-x="595" unicode="Z"/><glyph d="M73 819h238v-97H192V-23h119v-96H73z" horiz-adv-x="385" unicode="["/><glyph d="M104 792h109L441-88H332z" horiz-adv-x="545" unicode="\"/><glyph d="M74 819h238v-938H74v96h119v745H74z" horiz-adv-x="385" unicode="]"/><glyph d="M257 708h96l159-191-58-47-149 161-149-161-58 47z" unicode="^"/><glyph d="M49-101h512v-100H49z" unicode="_"/><glyph d="M90 771l171-138-46-66L30 683z" horiz-adv-x="291" unicode="`"/><glyph d="M269 534q119 0 172-54t53-163V119q0-38 9-119H388q-7 41-9 59h-3q-28-37-67-55T206-14q-72 0-120 41T38 146q0 102 72 142t209 40q33 0 50-1v26q0 84-107 84-77 0-151-40l-42 83q42 25 95 39t105 15zm63-290q-88 0-126-21t-38-68q0-34 20-53t54-18q37 0 66 16t45 43 17 58v42z" horiz-adv-x="569" unicode="a"/><glyph d="M78 708h125V463h3q53 71 160 71 111 0 168-77t57-196q0-77-29-140t-85-99-136-36q-83 0-152 54l-8-40H78zm261-274q-59 0-98-41t-38-100V127q31-21 59-32t62-10q68 0 103 47t35 129q0 84-33 128t-90 45z" horiz-adv-x="636" unicode="b"/><glyph d="M310 534q98 0 174-56l-47-87q-60 39-126 39-71 0-106-45t-35-124q0-77 35-124t104-46q61 0 129 40l45-89q-39-27-86-42t-98-14q-95 0-152 42T67 132 44 261q0 83 32 144t92 95 142 34z" horiz-adv-x="511" unicode="c"/><glyph d="M432 708h125V119q0-47 8-119H449q-7 39-8 65h-2q-29-40-71-60T264-14Q154-14 99 61T44 257q0 77 29 140t83 100 129 37q89 0 147-52zM304 433q-62 0-96-48t-34-128q0-83 33-128t91-44q59 0 96 39t38 103v152q-51 54-128 54z" horiz-adv-x="635" unicode="d"/><glyph d="M295 534q118 0 179-74t61-199q0-24-3-47H170q8-62 44-96t101-33q44 0 77 11t72 36l54-80q-45-33-97-50T307-14q-82 0-141 34t-91 96-31 144q0 124 65 199t186 75zm-1-94q-58 0-90-38t-35-94h243q-2 58-32 95t-86 37z" horiz-adv-x="579" unicode="e"/><glyph d="M293 722q56 0 104-17l-30-89q-24 7-55 7-87 0-87-84v-24h123v-95H225V0H100v420H15v80l85 15v28q0 84 47 131t146 48z" horiz-adv-x="357" unicode="f"/><glyph d="M275 534q29 0 50-4t47-10h189v-99l-105 17q18-16 28-44t10-61q0-80-58-125t-161-45q-47 0-72-11t-24-29q0-17 23-27t73-10q138-4 204-41t66-112q0-92-76-141t-212-49q-118 0-180 42T16-96q0 82 92 137-21 13-32 29t-11 41q0 28 19 50t53 32q-88 46-88 153 0 87 60 137t166 51zm-4-91q-49 0-79-27t-29-68q0-45 27-72t81-26q108 0 108 94 0 45-27 72t-81 27zM192-8q-55-31-55-81 0-75 123-75 79 0 120 22t41 62q0 37-52 54T192-8z" horiz-adv-x="581" unicode="g"/><glyph d="M78 708h125V463h2q57 71 167 71 96 0 142-55t47-135V0H436v317q0 50-25 81t-81 32q-58 0-93-40t-34-101V0H78z" horiz-adv-x="634" unicode="h"/><glyph d="M78 520h125V0H78zm63 234q41 0 59-20t18-52q0-31-19-51t-58-20q-41 0-59 20t-18 51q0 72 77 72z" horiz-adv-x="282" unicode="i"/><glyph d="M78 520h125V-64q0-93-43-143T28-258q-39 0-73 11l23 91q14-3 33-3 38 0 52 23t15 70zm63 234q41 0 59-20t18-52q0-31-19-51t-58-20q-41 0-59 20t-18 51q0 72 77 72z" horiz-adv-x="282" unicode="j"/><glyph d="M78 708h125V326l208 194h148L333 307 576 0H422L247 226l-44-41V0H78z" horiz-adv-x="572" unicode="k"/><glyph d="M78 708h125V0H78z" horiz-adv-x="282" unicode="l"/><glyph d="M362 534q116 0 164-86h2q59 86 173 86 65 0 108-29t64-74 21-99V0H769v314q0 53-23 85t-77 32q-57 0-89-44t-31-105V0H423v324q0 45-24 76t-76 31q-56 0-88-41t-32-101V0H78v401q0 38-9 119h120q6-32 8-59h2q26 33 67 53t96 20z" horiz-adv-x="966" unicode="m"/><glyph d="M371 534q65 0 107-27t63-70 20-93V0H436v317q0 50-25 81t-81 32q-59 0-93-40t-34-101V0H78v401q0 38-9 119h120q6-31 8-60h2q25 33 69 53t103 21z" horiz-adv-x="633" unicode="n"/><glyph d="M314 534q85 0 146-34t93-95 32-143q0-81-33-144t-94-97-144-35q-83 0-144 35t-94 98-32 143q0 82 32 143t92 95 146 34zm0-100q-74 0-107-47t-33-125q0-80 33-129t108-48q74 0 108 48t34 129q0 79-34 125t-109 47z" horiz-adv-x="630" unicode="o"/><glyph d="M367 534q75 0 125-37t74-98 25-138q0-76-28-139T481 22 354-14q-90 0-151 50v-280H78v645q0 38-9 119h120q7-41 8-62h2q60 76 168 76zm-29-100q-59 0-97-41t-38-100V127q31-21 59-32t62-10q68 0 103 47t35 129q0 84-33 128t-91 45z" horiz-adv-x="636" unicode="p"/><glyph d="M283 534q95 0 161-61l11 47h102v-764H432V54h-2q-26-31-66-50t-93-18q-114 0-171 76T44 259q0 76 30 138t84 100 125 37zm21-101q-61 0-96-47t-34-127q0-85 33-130t91-44q58 0 96 39t38 103v152q-52 54-128 54z" horiz-adv-x="636" unicode="q"/><glyph d="M353 534q18 0 32-4l-5-108q-15 3-38 3-66 0-103-43t-36-109V0H78v401q0 38-9 119h120q7-42 8-72h2q46 86 154 86z" horiz-adv-x="392" unicode="r"/><glyph d="M243 534q104 0 178-55l-50-79q-61 38-123 38-40 0-62-14t-22-38q0-21 10-34t32-21 70-20q76-19 114-57t39-98q0-82-62-126T215-14Q100-14 23 45l54 78q32-20 63-30t69-10q43 0 66 16t24 48q0 21-10 33t-32 21-68 20q-77 19-114 56T39 378q0 73 56 114t148 42z" horiz-adv-x="461" unicode="s"/><glyph d="M226 682V515h129v-95H226V161q0-74 67-74 27 0 46 6l18-92q-38-15-91-15-78 0-122 42t-43 121v271H15v80l85 15v123z" horiz-adv-x="385" unicode="t"/><glyph d="M72 520h126V219q0-62 25-98t80-36q59 0 93 43t35 110v282h125V119q0-54 9-119H445q-7 36-8 61h-2q-55-75-166-75-97 0-147 59T72 200z" horiz-adv-x="634" unicode="u"/><glyph d="M-2 520h136l127-393h3l124 393h131L329 0H192z" horiz-adv-x="518" unicode="v"/><glyph d="M9 520h132l86-381h2l114 381h130l115-381h2l88 381h127L660 0H524L406 384h-2L289 0H154z" horiz-adv-x="814" unicode="w"/><glyph d="M27 520h144l116-175 114 175h137L363 272 566 0H416L282 194 153 0H5l200 272z" horiz-adv-x="572" unicode="x"/><glyph d="M-2 520h136l127-390h2l114 390h129L291-104q-27-79-71-116t-116-37q-50 0-89 15l24 93q23-7 46-7 36 0 55 20t35 59l25 73z" horiz-adv-x="505" unicode="y"/><glyph d="M40 520h386v-93L181 98h256V0H29v99l242 327H40z" horiz-adv-x="466" unicode="z"/><glyph d="M334 819V719q-40 0-62-26t-21-75V517q0-56-9-88t-30-49-65-29v-2q44-11 65-29t30-50 9-87V82q0-50 21-76t62-25v-100q-94 0-150 52T129 93v148q0 30-16 42t-62 15v104q47 2 62 14t16 43v148q0 108 57 160t148 52z" horiz-adv-x="385" unicode="{"/><glyph d="M125 808h112v-908H125z" horiz-adv-x="362" unicode="|"/><glyph d="M51 819q90 0 147-52t58-160V459q0-30 15-43t63-14V298q-47-2-63-15t-15-42V93q0-109-56-160T51-119v100q40 0 61 25t22 76v101q0 56 8 87t30 50 66 29v2q-44 11-66 29t-30 49-8 88v101q0 50-22 75t-61 26z" horiz-adv-x="385" unicode="}"/><glyph d="M221 356q28 0 50-9t50-24q23-13 37-19t32-6q22 0 41 13t46 45l58-36q-54-104-144-104-28 0-50 7t-49 25q-21 13-37 19t-34 7q-22 0-42-13t-45-45l-58 37q54 103 145 103z" unicode="~"/><glyph horiz-adv-x="269"/><glyph d="M116 295h105l10-191v-288H105v288zm52 239q40 0 57-21t18-54q0-34-18-55t-57-20q-76 0-76 75t76 75z" horiz-adv-x="336" unicode="¡"/><glyph d="M298 708h101v-84q68-10 126-51l-47-86q-61 38-126 38-73 0-108-45t-34-125q0-77 35-124t105-47q61 0 129 40l45-87q-55-38-125-52V0H298v82q-115 14-164 94T85 355q0 111 56 182t157 87z" unicode="¢"/><glyph d="M340 726q129 0 211-89l-79-72q-26 26-57 40t-71 14q-48 0-73-25t-25-72q0-31 7-58t20-61h168v-92H305q6-24 6-50 0-50-26-85t-73-63v-2h316V0H65v99q57 35 84 73t28 91q0 23-5 48H59v92h80q-13 33-20 61t-7 61q0 89 59 145t169 56z" unicode="£"/><glyph d="M151 534l70-98q37 15 84 15t84-15l70 98 74-56-78-90q38-46 38-113t-39-115l79-91-74-56-71 99q-38-16-83-16t-83 16l-71-99-74 56 79 92q-38 46-38 114 0 67 37 112l-78 91zm154-157q-90 0-90-102 0-50 22-78t68-27q46 0 69 27t23 78q0 49-23 75t-69 27z" unicode="¤"/><glyph d="M10 708h142l150-303h2l147 303h137L398 371h108v-84H359v-45h147v-84H359V0H235v158H93v84h142v45H93v84h104z" horiz-adv-x="600" unicode="¥"/><glyph d="M125 808h112V427H125zm0-527h112v-381H125z" horiz-adv-x="362" unicode="¦"/><glyph d="M319 727q108 0 183-55l-51-78q-61 38-128 38-32 0-51-12t-18-34q0-22 21-36t81-32q81-26 117-60t36-88q0-38-22-67t-58-45q77-40 77-116 0-79-61-119T292-16q-115 0-192 59l54 78q31-21 63-31t74-9q41 0 63 13t22 40q0 16-10 27t-32 21-68 24q-79 24-115 54t-35 84q0 41 24 71t65 48q-76 43-76 117 0 69 53 108t137 39zm-26-295q-28-14-42-32t-13-41q0-25 20-39t78-30q26 15 37 32t11 37q0 28-19 43t-72 30z" unicode="§"/><glyph d="M97 726q67 0 67-67t-67-67q-35 0-51 18t-16 49q0 30 16 48t51 19zm203 0q35 0 51-19t16-48q0-30-16-49t-51-18q-67 0-67 67t67 67z" horiz-adv-x="397" unicode="¨"/><glyph d="M466 726q119 0 205-48t132-133 46-191q0-107-46-192T671 30 466-18q-120 0-207 48T126 162 81 354q0 107 45 191t133 133 207 48zm0-82q-147 0-220-79t-72-211q0-132 72-211t220-79q145 0 217 79t73 211q0 131-73 210t-217 80zm12-78q80 0 137-42l-36-67q-49 31-100 31-56 0-83-35t-27-95q0-60 27-96t81-35q51 0 103 30l35-67q-61-43-145-43-109 0-155 64t-46 147q0 96 56 152t153 56z" horiz-adv-x="931" unicode="©"/><glyph d="M284 726q114 0 164-51t51-156V330q0-37 8-114H398q-7 39-9 56h-3q-27-35-64-52t-98-17q-69 0-115 39T63 355q0 98 69 136t200 38q31 0 47-1v25q0 80-102 80-73 0-144-38l-40 79q40 24 90 38t101 14zm60-277q-84 0-121-20t-36-65q0-32 19-50t52-18q35 0 63 16t43 41 16 55v40zM79 100h450V0H79z" horiz-adv-x="593" unicode="ª"/><glyph d="M218 534l55-47-110-143 110-144-55-46L71 319v48zm188 0l55-47-110-143 110-144-55-46-147 165v48z" horiz-adv-x="532" unicode="«"/><glyph d="M105 393h400V159H390v134H105z" unicode="¬"/><glyph d="M40 340h239V240H40z" horiz-adv-x="319" unicode="­"/><glyph d="M171 722q59 0 93-34t34-88q0-53-34-88t-93-34q-59 0-93 34t-34 88q0 54 34 88t93 34zm0-30q-47 0-70-25t-22-67q0-42 22-67t70-24q46 0 69 24t23 67q0 42-23 67t-69 25zm-50-25h51q25 0 39-11t15-32q0-28-25-38l31-48h-38l-26 42h-13v-42h-34zm34-25v-38h14q24 0 24 19t-24 19z" horiz-adv-x="341" unicode="®"/><glyph d="M30 689h299v-83H30z" horiz-adv-x="359" unicode="¯"/><glyph d="M186 727q71 0 111-37t40-103q0-66-40-104t-111-37q-71 0-112 37T34 587q0 67 40 103t112 37zm-1-71q-61 0-61-69t61-69q61 0 61 69t-61 69z" horiz-adv-x="371" unicode="°"/><glyph d="M251 577h108V427h146V327H359V177H251v150H105v100h146zM105 100h400V0H105z" unicode="±"/><glyph d="M265 722q62 0 106-22t68-59 23-80q0-50-19-86t-64-76-142-110h239v-98H81v91l42 34q102 82 142 117t58 61 18 55q0 35-23 55t-63 20q-36 0-64-14t-57-43l-71 61q40 46 87 70t115 24z" horiz-adv-x="540" unicode="²"/><glyph d="M271 722q60 0 103-19t66-51 23-72q0-96-94-119v-1q49-7 80-37t31-84q0-46-25-83t-75-58-120-21q-66 0-114 19t-87 59l63 70q34-27 64-39t75-11q43 0 70 18t28 53q0 33-21 48t-62 16h-91v93h78q41 0 61 14t21 47q0 31-21 46t-65 15q-66 0-124-44l-60 68q42 37 90 55t106 18z" horiz-adv-x="540" unicode="³"/><glyph d="M201 771l60-88L77 567l-47 66z" horiz-adv-x="291" unicode="´"/><glyph d="M63 520h126V222q0-62 25-98t80-36q59 0 93 43t35 110v279h125V119q0-54 9-119H436q-7 36-8 61h-2q-25-34-62-55t-81-20q-66 0-98 45h-3v-161q0-60-12-114H54q9 81 9 119z" unicode="µ"/><glyph d="M265 708h121v-838H265v439h-9q-107 0-169 51T25 508q0 97 63 148t177 52zm200 0h121v-838H465zM249 608q-51 0-80-24t-29-76q0-51 29-75t80-24h16v199z" horiz-adv-x="666" unicode="¶"/><glyph d="M142 423q40 0 57-21t18-54q0-34-18-55t-57-20q-76 0-76 75t76 75z" horiz-adv-x="284" unicode="·"/><glyph d="M113 0h77l-19-54q7 1 21 1 37 0 62-22t25-65q0-57-39-83t-95-26q-70 0-115 25l29 66q36-18 81-18 50 0 50 36 0 15-10 23t-25 7q-15 0-33-4H69z" horiz-adv-x="309" unicode="¸"/><glyph d="M255 708h107V289h108v-98H101v97h143v300l-129-56-45 85z" horiz-adv-x="540" unicode="¹"/><glyph d="M324 726q81 0 139-33t89-90 31-137q0-77-31-137t-90-93-138-33q-79 0-138 33t-89 94-31 136q0 79 30 137t89 90 139 33zm0-96q-71 0-103-44t-31-120q0-76 32-123t103-46q70 0 102 46t33 123q0 76-33 120t-103 44zM108 100h450V0H108z" horiz-adv-x="656" unicode="º"/><glyph d="M126 534l147-167v-48h1L126 154l-54 46 109 144L71 487zm188 0l147-167v-48h1L314 154l-54 46 109 144-110 143z" horiz-adv-x="532" unicode="»"/><glyph d="M203 708h107V289h108v-98H49v97h143v300L63 532l-45 85zm568 1h116L468 0H353zm133-192h125L866 201h133v122h115V201h69v-98h-69V0h-114v103H734v87z" horiz-adv-x="1200" unicode="¼"/><glyph d="M198 708h107V289h108v-98H44v97h143v300L58 532l-45 85zm565 1h116L460 0H345zm211-178q62 0 106-22t68-59 23-80q0-50-19-86t-64-76T946 98h239V0H790v91l42 34q102 82 142 117t58 61 18 55q0 35-23 55t-63 20q-36 0-64-14t-57-43l-71 61q40 46 87 70t115 24z" horiz-adv-x="1200" unicode="½"/><glyph d="M227 722q60 0 103-19t66-51 23-72q0-96-94-119v-1q49-7 80-37t31-84q0-46-25-83t-75-58-120-21q-66 0-114 19t-87 59l63 70q34-27 64-39t75-11q43 0 70 18t28 53q0 33-21 48t-62 16h-91v93h78q41 0 61 14t21 47q0 31-21 46t-65 15q-66 0-124-44l-60 68q42 37 90 55t106 18zm544-13h116L468 0H353zm135-192h125L868 201h133v122h115V201h69v-98h-69V0h-114v103H736v87z" horiz-adv-x="1200" unicode="¾"/><glyph d="M244 295h120v-31q0-45-26-75t-75-64q-46-33-69-59T172 4q0-45 29-72t80-27q51 0 88 20t73 61l78-68q-47-59-107-89t-142-31q-69 0-122 26t-82 72T38-1q0 45 18 79t42 57 66 53q42 30 61 50t19 46zm60 239q76 0 76-75t-76-75q-40 0-58 20t-17 55q0 34 17 54t58 21z" horiz-adv-x="527" unicode="¿"/><glyph d="M269 708h135L675 0H533l-54 153H191L134 0H-3zm67-134L226 253h219zm-75 374l185-121-40-65-197 94z" horiz-adv-x="673" unicode="À"/><glyph d="M269 708h135L675 0H533l-54 153H191L134 0H-3zm67-134L226 253h219zm78 374l52-92-197-94-40 65z" horiz-adv-x="673" unicode="Á"/><glyph d="M269 708h135L675 0H533l-54 153H191L134 0H-3zm67-134L226 253h219zm-47 346h96l125-104-44-55-129 84-128-85-44 56z" horiz-adv-x="673" unicode="Â"/><glyph d="M269 708h135L675 0H533l-54 153H191L134 0H-3zm67-134L226 253h219zm-55 334q19 0 33-7t34-19q15-10 24-15t20-4q31 0 56 43l62-25q-19-50-48-75t-70-25q-19 0-34 6t-30 19q-14 10-25 15t-22 5q-30 0-55-43l-62 25q19 49 47 74t70 26z" horiz-adv-x="673" unicode="Ã"/><glyph d="M269 708h135L675 0H533l-54 153H191L134 0H-3zm67-134L226 253h219zm-95 345q67 0 67-67t-67-67q-35 0-51 18t-16 49q0 30 16 48t51 19zm203 0q35 0 51-19t16-48q0-30-16-49t-51-18q-67 0-67 67t67 67z" horiz-adv-x="673" unicode="Ä"/><glyph d="M336 869q60 0 93-31t33-82q0-28-11-51t-31-38L675 0H533l-54 153H191L134 0H-3l256 667q-20 15-31 38t-11 51q0 52 33 82t92 31zm0-64q-42 0-42-49 0-24 11-36t31-12q20 0 31 12t11 36q0 49-42 49zm0-231L226 253h219z" horiz-adv-x="673" unicode="Å"/><glyph d="M269 708h555V603H444l66-189h280V313H545l73-206h258V0H520l-49 153H190L134 0H-3zm67-129L224 253h216z" horiz-adv-x="893" unicode="Æ"/><glyph d="M401 728q74 0 140-24t109-66l-74-84q-34 29-78 45t-92 16q-116 0-171-71t-55-189q0-117 55-188t168-70q53 0 98 19t79 52l79-86q-39-39-96-66T440-17l-13-37q7 1 21 1 37 0 62-22t25-65q0-57-39-83t-95-26q-70 0-115 25l29 66q36-18 81-18 50 0 50 36 0 15-10 23t-25 7q-15 0-33-4h-53l37 96q-101 8-173 57T81 169 44 355q0 112 41 196t122 130 194 47z" horiz-adv-x="678" unicode="Ç"/><glyph d="M80 708h447V603H211V414h270V313H211V107h333V0H80zm163 240l185-121-40-65-197 94z" horiz-adv-x="568" unicode="È"/><glyph d="M80 708h447V603H211V414h270V313H211V107h333V0H80zm316 240l52-92-197-94-40 65z" horiz-adv-x="568" unicode="É"/><glyph d="M80 708h447V603H211V414h270V313H211V107h333V0H80zm192 212h96l125-104-44-55-129 84-128-85-44 56z" horiz-adv-x="568" unicode="Ê"/><glyph d="M80 708h447V603H211V414h270V313H211V107h333V0H80zm144 211q67 0 67-67t-67-67q-35 0-51 18t-16 49q0 30 16 48t51 19zm203 0q35 0 51-19t16-48q0-30-16-49t-51-18q-67 0-67 67t67 67z" horiz-adv-x="568" unicode="Ë"/><glyph d="M48 708h294v-96h-83V99h83V0H48v99h83v513H48zm71 240l185-121-40-65-197 94z" horiz-adv-x="390" unicode="Ì"/><glyph d="M48 708h294v-96h-83V99h83V0H48v99h83v513H48zm224 240l52-92-197-94-40 65z" horiz-adv-x="390" unicode="Í"/><glyph d="M48 708h294v-96h-83V99h83V0H48v99h83v513H48zm99 212h96l125-104-44-55-129 84-128-85-44 56z" horiz-adv-x="390" unicode="Î"/><glyph d="M48 708h294v-96h-83V99h83V0H48v99h83v513H48zm51 211q67 0 67-67t-67-67q-35 0-51 18t-16 49q0 30 16 48t51 19zm203 0q35 0 51-19t16-48q0-30-16-49t-51-18q-67 0-67 67t67 67z" horiz-adv-x="390" unicode="Ï"/><glyph d="M80 708h241q180 0 278-87t98-266q0-114-46-194T522 40 326 0H80v313H7v83h73zm130-107V396h156v-83H210V108h103q123 0 186 60t63 187q0 127-62 186t-184 60z" horiz-adv-x="740" unicode="Ð"/><glyph d="M80 708h149l350-528h2l-3 528h121V0H550L200 529h-2l4-529H80zm253 200q19 0 33-7t34-19q15-10 24-15t20-4q31 0 56 43l62-25q-19-50-48-75t-70-25q-19 0-34 6t-30 19q-14 10-25 15t-22 5q-30 0-55-43l-62 25q19 49 47 74t70 26z" horiz-adv-x="779" unicode="Ñ"/><glyph d="M406 727q113 0 195-47t125-131 43-195q0-111-43-196T601 27 406-19q-113 0-195 46T87 158 44 354q0 111 43 195t124 131 195 47zm0-113q-113 0-171-70t-57-190q0-120 57-190t171-70q114 0 171 70t58 190q0 120-58 190t-171 70zm-77 334l185-121-40-65-197 94z" horiz-adv-x="812" unicode="Ò"/><glyph d="M406 727q113 0 195-47t125-131 43-195q0-111-43-196T601 27 406-19q-113 0-195 46T87 158 44 354q0 111 43 195t124 131 195 47zm0-113q-113 0-171-70t-57-190q0-120 57-190t171-70q114 0 171 70t58 190q0 120-58 190t-171 70zm76 334l52-92-197-94-40 65z" horiz-adv-x="812" unicode="Ó"/><glyph d="M406 727q113 0 195-47t125-131 43-195q0-111-43-196T601 27 406-19q-113 0-195 46T87 158 44 354q0 111 43 195t124 131 195 47zm0-113q-113 0-171-70t-57-190q0-120 57-190t171-70q114 0 171 70t58 190q0 120-58 190t-171 70zm-48 306h96l125-104-44-55-129 84-128-85-44 56z" horiz-adv-x="812" unicode="Ô"/><glyph d="M406 727q113 0 195-47t125-131 43-195q0-111-43-196T601 27 406-19q-113 0-195 46T87 158 44 354q0 111 43 195t124 131 195 47zm0-113q-113 0-171-70t-57-190q0-120 57-190t171-70q114 0 171 70t58 190q0 120-58 190t-171 70zm-56 294q19 0 33-7t34-19q15-10 24-15t20-4q31 0 56 43l62-25q-19-50-48-75t-70-25q-19 0-34 6t-30 19q-14 10-25 15t-22 5q-30 0-55-43l-62 25q19 49 47 74t70 26z" horiz-adv-x="812" unicode="Õ"/><glyph d="M406 727q113 0 195-47t125-131 43-195q0-111-43-196T601 27 406-19q-113 0-195 46T87 158 44 354q0 111 43 195t124 131 195 47zm0-113q-113 0-171-70t-57-190q0-120 57-190t171-70q114 0 171 70t58 190q0 120-58 190t-171 70zm-96 305q67 0 67-67t-67-67q-35 0-51 18t-16 49q0 30 16 48t51 19zm203 0q35 0 51-19t16-48q0-30-16-49t-51-18q-67 0-67 67t67 67z" horiz-adv-x="812" unicode="Ö"/><glyph d="M198 465l107-106 105 105 71-70-106-106 106-106-70-71-106 107-107-107-71 70 107 107-106 106z" unicode="×"/><glyph d="M465 803l110-23-23-77q104-39 160-131t57-218q0-111-43-196T601 27 406-19q-14 0-40 2l-19-82-109 23 22 81Q157 43 100 134T44 354q0 111 43 195t124 131 195 47q15 0 41-2zm-59-188q-114 0-172-70t-57-191q0-186 119-240l130 500q-7 1-20 1zm111-22L388 93h18q114 0 171 70t58 191q0 91-30 151t-88 88z" horiz-adv-x="812" unicode="Ø"/><glyph d="M72 708h131V266q0-86 38-129t128-43q89 0 127 43t39 129v442h131V256q0-130-78-203T369-19q-141 0-219 72T72 256zm221 240l185-121-40-65-197 94z" horiz-adv-x="738" unicode="Ù"/><glyph d="M72 708h131V266q0-86 38-129t128-43q89 0 127 43t39 129v442h131V256q0-130-78-203T369-19q-141 0-219 72T72 256zm374 240l52-92-197-94-40 65z" horiz-adv-x="738" unicode="Ú"/><glyph d="M72 708h131V266q0-86 38-129t128-43q89 0 127 43t39 129v442h131V256q0-130-78-203T369-19q-141 0-219 72T72 256zm249 212h96l125-104-44-55-129 84-128-85-44 56z" horiz-adv-x="738" unicode="Û"/><glyph d="M72 708h131V266q0-86 38-129t128-43q89 0 127 43t39 129v442h131V256q0-130-78-203T369-19q-141 0-219 72T72 256zm201 211q67 0 67-67t-67-67q-35 0-51 18t-16 49q0 30 16 48t51 19zm203 0q35 0 51-19t16-48q0-30-16-49t-51-18q-67 0-67 67t67 67z" horiz-adv-x="738" unicode="Ü"/><glyph d="M-18 708h150l169-301h2l167 301h145L362 301V0H231v303zm394 240l52-92-197-94-40 65z" horiz-adv-x="598" unicode="Ý"/><glyph d="M80 708h131V600h124q119 0 192-58t74-173q0-78-37-132t-98-80-132-26H211V0H80zm131-213V237h112q62 0 104 33t42 98q0 67-41 97t-104 30z" horiz-adv-x="633" unicode="Þ"/><glyph d="M300 722q63 0 117-23t106-64l-87-215q75-25 126-75t51-142q0-74-35-123T493 8 390-14q-72 0-123 27l33 87q38-15 75-15 48 0 79 30t32 89q0 64-40 97t-120 48v73l68 179q-38 27-88 27-81 0-81-88V0H100v420H15v80l85 14v28q0 86 51 133t149 47z" horiz-adv-x="642" unicode="ß"/><glyph d="M269 534q119 0 172-54t53-163V119q0-38 9-119H388q-7 41-9 59h-3q-28-37-67-55T206-14q-72 0-120 41T38 146q0 102 72 142t209 40q33 0 50-1v26q0 84-107 84-77 0-151-40l-42 83q42 25 95 39t105 15zm63-290q-88 0-126-21t-38-68q0-34 20-53t54-18q37 0 66 16t45 43 17 58v42zM225 771l171-138-46-66-185 116z" horiz-adv-x="569" unicode="à"/><glyph d="M269 534q119 0 172-54t53-163V119q0-38 9-119H388q-7 41-9 59h-3q-28-37-67-55T206-14q-72 0-120 41T38 146q0 102 72 142t209 40q33 0 50-1v26q0 84-107 84-77 0-151-40l-42 83q42 25 95 39t105 15zm63-290q-88 0-126-21t-38-68q0-34 20-53t54-18q37 0 66 16t45 43 17 58v42zm18 527l60-88-184-116-47 66z" horiz-adv-x="569" unicode="á"/><glyph d="M269 534q119 0 172-54t53-163V119q0-38 9-119H388q-7 41-9 59h-3q-28-37-67-55T206-14q-72 0-120 41T38 146q0 102 72 142t209 40q33 0 50-1v26q0 84-107 84-77 0-151-40l-42 83q42 25 95 39t105 15zm63-290q-88 0-126-21t-38-68q0-34 20-53t54-18q37 0 66 16t45 43 17 58v42zm-94 501h97v-1l127-125-47-50-128 99-129-101-47 52z" horiz-adv-x="569" unicode="â"/><glyph d="M269 534q119 0 172-54t53-163V119q0-38 9-119H388q-7 41-9 59h-3q-28-37-67-55T206-14q-72 0-120 41T38 146q0 102 72 142t209 40q33 0 50-1v26q0 84-107 84-77 0-151-40l-42 83q42 25 95 39t105 15zm63-290q-88 0-126-21t-38-68q0-34 20-53t54-18q37 0 66 16t45 43 17 58v42zM231 715q19 0 33-7t34-19q15-10 24-15t20-4q31 0 56 43l62-25q-19-50-48-75t-70-25q-19 0-34 6t-30 19q-14 10-25 15t-22 5q-30 0-55-43l-62 25q19 49 47 74t70 26z" horiz-adv-x="569" unicode="ã"/><glyph d="M269 534q119 0 172-54t53-163V119q0-38 9-119H388q-7 41-9 59h-3q-28-37-67-55T206-14q-72 0-120 41T38 146q0 102 72 142t209 40q33 0 50-1v26q0 84-107 84-77 0-151-40l-42 83q42 25 95 39t105 15zm63-290q-88 0-126-21t-38-68q0-34 20-53t54-18q37 0 66 16t45 43 17 58v42zM185 726q67 0 67-67t-67-67q-35 0-51 18t-16 49q0 30 16 48t51 19zm203 0q35 0 51-19t16-48q0-30-16-49t-51-18q-67 0-67 67t67 67z" horiz-adv-x="569" unicode="ä"/><glyph d="M269 534q119 0 172-54t53-163V119q0-38 9-119H388q-7 41-9 59h-3q-28-37-67-55T206-14q-72 0-120 41T38 146q0 102 72 142t209 40q33 0 50-1v26q0 84-107 84-77 0-151-40l-42 83q42 25 95 39t105 15zm63-290q-88 0-126-21t-38-68q0-34 20-53t54-18q37 0 66 16t45 43 17 58v42zm-46 555q60 0 93-31t33-82q0-50-33-82t-92-31h-1q-59 0-92 31t-33 82q0 52 33 82t92 31zm0-64q-42 0-42-49 0-24 11-36t31-12q20 0 31 12t11 36q0 49-42 49z" horiz-adv-x="569" unicode="å"/><glyph d="M268 534q64 0 103-20t65-65q30 42 74 63t97 22q110 0 170-75t60-198q0-24-3-47H484q8-61 43-95t96-34q40 0 72 11t70 36l55-80q-92-66-205-66-69 0-119 26t-80 72q-34-48-80-73T229-14q-86 0-139 41T38 146q0 102 71 142t200 40q32 0 48-1v24q0 43-24 64t-72 22q-76 0-150-40l-42 83q42 25 95 39t104 15zm336-94q-55 0-86-38t-35-94h231q-2 58-30 95t-80 37zM323 244q-82 0-119-21t-36-68q0-34 20-53t57-18q49 0 81 35t32 82v42z" horiz-adv-x="880" unicode="æ"/><glyph d="M310 534q98 0 174-56l-47-87q-60 39-126 39-71 0-106-45t-35-124q0-77 35-124t104-46q61 0 129 40l45-89Q418-3 334-12l-15-42q7 1 21 1 37 0 62-22t25-65q0-57-39-83t-95-26q-70 0-115 25l29 66q36-18 81-18 50 0 50 36 0 15-10 23t-25 7q-15 0-33-4h-53l40 102Q142 2 93 82T44 261q0 83 32 144t92 95 142 34z" horiz-adv-x="511" unicode="ç"/><glyph d="M295 534q118 0 179-74t61-199q0-24-3-47H170q8-62 44-96t101-33q44 0 77 11t72 36l54-80q-45-33-97-50T307-14q-82 0-141 34t-91 96-31 144q0 124 65 199t186 75zm-1-94q-58 0-90-38t-35-94h243q-2 58-32 95t-86 37zm-55 331l171-138-46-66-185 116z" horiz-adv-x="579" unicode="è"/><glyph d="M295 534q118 0 179-74t61-199q0-24-3-47H170q8-62 44-96t101-33q44 0 77 11t72 36l54-80q-45-33-97-50T307-14q-82 0-141 34t-91 96-31 144q0 124 65 199t186 75zm-1-94q-58 0-90-38t-35-94h243q-2 58-32 95t-86 37zm69 331l60-88-184-116-47 66z" horiz-adv-x="579" unicode="é"/><glyph d="M295 534q118 0 179-74t61-199q0-24-3-47H170q8-62 44-96t101-33q44 0 77 11t72 36l54-80q-45-33-97-50T307-14q-82 0-141 34t-91 96-31 144q0 124 65 199t186 75zm-1-94q-58 0-90-38t-35-94h243q-2 58-32 95t-86 37zm-43 305h97v-1l127-125-47-50-128 99-129-101-47 52z" horiz-adv-x="579" unicode="ê"/><glyph d="M295 534q118 0 179-74t61-199q0-24-3-47H170q8-62 44-96t101-33q44 0 77 11t72 36l54-80q-45-33-97-50T307-14q-82 0-141 34t-91 96-31 144q0 124 65 199t186 75zm-1-94q-58 0-90-38t-35-94h243q-2 58-32 95t-86 37zm-96 286q67 0 67-67t-67-67q-35 0-51 18t-16 49q0 30 16 48t51 19zm203 0q35 0 51-19t16-48q0-30-16-49t-51-18q-67 0-67 67t67 67z" horiz-adv-x="579" unicode="ë"/><glyph d="M78 520h125V0H78zm2 251l171-138-46-66L20 683z" horiz-adv-x="282" unicode="ì"/><glyph d="M78 520h125V0H78zm126 251l60-88L80 567l-47 66z" horiz-adv-x="282" unicode="í"/><glyph d="M78 520h125V0H78zm14 225h97v-1l127-125-47-50-128 99L12 567l-47 52z" horiz-adv-x="282" unicode="î"/><glyph d="M78 520h125V0H78zM39 726q67 0 67-67t-67-67q-35 0-51 18t-16 49q0 30 16 48t51 19zm203 0q35 0 51-19t16-48q0-30-16-49t-51-18q-67 0-67 67t67 67z" horiz-adv-x="282" unicode="ï"/><glyph d="M220 727q68-21 124-49l93 49 37-63-53-28q79-49 125-131t46-184q0-96-31-172T468 29 315-14q-83 0-145 32t-94 89-32 132q0 76 31 133t88 89 128 31q51 0 90-13t72-41q-28 86-128 148l-102-54-37 63 58 31q-25 10-73 25zm85-332q-61 0-96-42t-34-117q0-69 36-106t103-37q75 0 110 57t36 156v15q-33 36-70 55t-85 19z" horiz-adv-x="641" unicode="ð"/><glyph d="M371 534q65 0 107-27t63-70 20-93V0H436v317q0 50-25 81t-81 32q-59 0-93-40t-34-101V0H78v401q0 38-9 119h120q6-31 8-60h2q25 33 69 53t103 21zM271 715q19 0 33-7t34-19q15-10 24-15t20-4q31 0 56 43l62-25q-19-50-48-75t-70-25q-19 0-34 6t-30 19q-14 10-25 15t-22 5q-30 0-55-43l-62 25q19 49 47 74t70 26z" horiz-adv-x="633" unicode="ñ"/><glyph d="M314 534q85 0 146-34t93-95 32-143q0-81-33-144t-94-97-144-35q-83 0-144 35t-94 98-32 143q0 82 32 143t92 95 146 34zm0-100q-74 0-107-47t-33-125q0-80 33-129t108-48q74 0 108 48t34 129q0 79-34 125t-109 47zm-60 337l171-138-46-66-185 116z" horiz-adv-x="630" unicode="ò"/><glyph d="M314 534q85 0 146-34t93-95 32-143q0-81-33-144t-94-97-144-35q-83 0-144 35t-94 98-32 143q0 82 32 143t92 95 146 34zm0-100q-74 0-107-47t-33-125q0-80 33-129t108-48q74 0 108 48t34 129q0 79-34 125t-109 47zm65 337l60-88-184-116-47 66z" horiz-adv-x="630" unicode="ó"/><glyph d="M314 534q85 0 146-34t93-95 32-143q0-81-33-144t-94-97-144-35q-83 0-144 35t-94 98-32 143q0 82 32 143t92 95 146 34zm0-100q-74 0-107-47t-33-125q0-80 33-129t108-48q74 0 108 48t34 129q0 79-34 125t-109 47zm-47 311h97v-1l127-125-47-50-128 99-129-101-47 52z" horiz-adv-x="630" unicode="ô"/><glyph d="M314 534q85 0 146-34t93-95 32-143q0-81-33-144t-94-97-144-35q-83 0-144 35t-94 98-32 143q0 82 32 143t92 95 146 34zm0-100q-74 0-107-47t-33-125q0-80 33-129t108-48q74 0 108 48t34 129q0 79-34 125t-109 47zm-54 281q19 0 33-7t34-19q15-10 24-15t20-4q31 0 56 43l62-25q-19-50-48-75t-70-25q-19 0-34 6t-30 19q-14 10-25 15t-22 5q-30 0-55-43l-62 25q19 49 47 74t70 26z" horiz-adv-x="630" unicode="õ"/><glyph d="M314 534q85 0 146-34t93-95 32-143q0-81-33-144t-94-97-144-35q-83 0-144 35t-94 98-32 143q0 82 32 143t92 95 146 34zm0-100q-74 0-107-47t-33-125q0-80 33-129t108-48q74 0 108 48t34 129q0 79-34 125t-109 47zM214 726q67 0 67-67t-67-67q-35 0-51 18t-16 49q0 30 16 48t51 19zm203 0q35 0 51-19t16-48q0-30-16-49t-51-18q-67 0-67 67t67 67z" horiz-adv-x="630" unicode="ö"/><glyph d="M105 340h400V240H105zm200-196q38 0 54-19t16-51q0-32-16-51T305 4q-71 0-71 70t71 70zm0 431q38 0 54-19t16-51q0-32-16-51t-54-19q-71 0-71 70t71 70z" unicode="÷"/><glyph d="M351 618l106-22-23-83q73-30 112-96t39-155q0-81-33-144t-94-97-144-35h-16l-20-85-107 23 24 85q-72 31-112 97T44 262q0 82 32 143t92 95 146 34h17zm-37-181q-143 0-143-175 0-60 14-100t47-59l86 334zm83-19L311 83h3q76 0 110 48t35 131q0 59-15 97t-47 59z" horiz-adv-x="630" unicode="ø"/><glyph d="M72 520h126V219q0-62 25-98t80-36q59 0 93 43t35 110v282h125V119q0-54 9-119H445q-7 36-8 61h-2q-55-75-166-75-97 0-147 59T72 200zm184 251l171-138-46-66-185 116z" horiz-adv-x="634" unicode="ù"/><glyph d="M72 520h126V219q0-62 25-98t80-36q59 0 93 43t35 110v282h125V119q0-54 9-119H445q-7 36-8 61h-2q-55-75-166-75-97 0-147 59T72 200zm309 251l60-88-184-116-47 66z" horiz-adv-x="634" unicode="ú"/><glyph d="M72 520h126V219q0-62 25-98t80-36q59 0 93 43t35 110v282h125V119q0-54 9-119H445q-7 36-8 61h-2q-55-75-166-75-97 0-147 59T72 200zm196 225h97v-1l127-125-47-50-128 99-129-101-47 52z" horiz-adv-x="634" unicode="û"/><glyph d="M72 520h126V219q0-62 25-98t80-36q59 0 93 43t35 110v282h125V119q0-54 9-119H445q-7 36-8 61h-2q-55-75-166-75-97 0-147 59T72 200zm144 206q67 0 67-67t-67-67q-35 0-51 18t-16 49q0 30 16 48t51 19zm203 0q35 0 51-19t16-48q0-30-16-49t-51-18q-67 0-67 67t67 67z" horiz-adv-x="634" unicode="ü"/><glyph d="M-2 520h136l127-390h2l114 390h129L291-104q-27-79-71-116t-116-37q-50 0-89 15l24 93q23-7 46-7 36 0 55 20t35 59l25 73zm319 251l60-88-184-116-47 66z" horiz-adv-x="505" unicode="ý"/><glyph d="M78 708h125V462h2q53 72 163 72 74 0 124-37t75-98 25-138q0-76-28-139T482 22 355-14q-91 0-152 50v-280H78zm261-274q-59 0-98-41t-38-100V127q31-21 59-32t62-10q69 0 103 47t35 129q0 84-33 128t-90 45z" horiz-adv-x="637" unicode="þ"/><glyph d="M-2 520h136l127-390h2l114 390h129L291-104q-27-79-71-116t-116-37q-50 0-89 15l24 93q23-7 46-7 36 0 55 20t35 59l25 73zm154 206q67 0 67-67t-67-67q-35 0-51 18t-16 49q0 30 16 48t51 19zm203 0q35 0 51-19t16-48q0-30-16-49t-51-18q-67 0-67 67t67 67z" horiz-adv-x="505" unicode="ÿ"/><glyph d="M269 708h135L675 0H533l-54 153H191L134 0H-3zm67-134L226 253h219zM191 882h299v-83H191z" horiz-adv-x="673" unicode="Ā"/><glyph d="M269 534q119 0 172-54t53-163V119q0-38 9-119H388q-7 41-9 59h-3q-28-37-67-55T206-14q-72 0-120 41T38 146q0 102 72 142t209 40q33 0 50-1v26q0 84-107 84-77 0-151-40l-42 83q42 25 95 39t105 15zm63-290q-88 0-126-21t-38-68q0-34 20-53t54-18q37 0 66 16t45 43 17 58v42zM137 689h299v-83H137z" horiz-adv-x="569" unicode="ā"/><glyph d="M269 708h135L675 0H533l-54 153H191L134 0H-3zm67-134L226 253h219zm-86 338q8-29 31-45t57-16q33 0 56 16t31 45l71-9q-8-64-50-101t-108-36h-1q-67 0-109 36t-49 101z" horiz-adv-x="673" unicode="Ă"/><glyph d="M269 534q119 0 172-54t53-163V119q0-38 9-119H388q-7 41-9 59h-3q-28-37-67-55T206-14q-72 0-120 41T38 146q0 102 72 142t209 40q33 0 50-1v26q0 84-107 84-77 0-151-40l-42 83q42 25 95 39t105 15zm63-290q-88 0-126-21t-38-68q0-34 20-53t54-18q37 0 66 16t45 43 17 58v42zM197 739q16-76 89-76 74 0 90 76l72-9q-8-74-50-114t-112-39q-70 0-112 39t-50 114z" horiz-adv-x="569" unicode="ă"/><glyph d="M269 708h135L675 0h-49q-52-36-78-66t-26-61q0-19 12-29t33-11q30 0 61 15l24-69q-45-27-99-27-51 0-87 27t-35 76q0 44 27 83t74 66l-53 149H191L134 0H-3zm67-134L226 253h219z" horiz-adv-x="673" unicode="Ą"/><glyph d="M269 534q119 0 172-54t53-163V119q0-38 9-119h-20q-52-36-78-66t-26-61q0-19 12-29t33-11q30 0 61 15l24-69q-45-27-99-27-51 0-87 27t-35 76q0 44 26 82t73 66q-7 46-8 56h-3q-28-37-67-55T206-14q-72 0-120 41T38 146q0 102 72 142t209 40q33 0 50-1v26q0 84-107 84-77 0-151-40l-42 83q42 25 95 39t105 15zm63-290q-88 0-126-21t-38-68q0-34 20-53t54-18q37 0 66 16t45 43 17 58v42z" horiz-adv-x="569" unicode="ą"/><glyph d="M401 728q74 0 140-24t109-66l-74-84q-34 29-78 45t-92 16q-116 0-171-71t-55-189q0-117 55-188t168-70q53 0 98 19t79 52l79-86Q614 37 546 9T399-19q-113 0-193 47T85 160 44 355q0 112 41 196t122 130 194 47zm72 220l52-92-197-94-40 65z" horiz-adv-x="678" unicode="Ć"/><glyph d="M310 534q98 0 174-56l-47-87q-60 39-126 39-71 0-106-45t-35-124q0-77 35-124t104-46q61 0 129 40l45-89q-39-27-86-42t-98-14q-95 0-152 42T67 132 44 261q0 83 32 144t92 95 142 34zm56 237l60-88-184-116-47 66z" horiz-adv-x="511" unicode="ć"/><glyph d="M401 728q74 0 140-24t109-66l-74-84q-34 29-78 45t-92 16q-116 0-171-71t-55-189q0-117 55-188t168-70q53 0 98 19t79 52l79-86Q614 37 546 9T399-19q-113 0-193 47T85 160 44 355q0 112 41 196t122 130 194 47zm-52 192h96l125-104-44-55-129 84-128-85-44 56z" horiz-adv-x="678" unicode="Ĉ"/><glyph d="M310 534q98 0 174-56l-47-87q-60 39-126 39-71 0-106-45t-35-124q0-77 35-124t104-46q61 0 129 40l45-89q-39-27-86-42t-98-14q-95 0-152 42T67 132 44 261q0 83 32 144t92 95 142 34zm-56 211h97v-1l127-125-47-50-128 99-129-101-47 52z" horiz-adv-x="511" unicode="ĉ"/><glyph d="M401 728q74 0 140-24t109-66l-74-84q-34 29-78 45t-92 16q-116 0-171-71t-55-189q0-117 55-188t168-70q53 0 98 19t79 52l79-86Q614 37 546 9T399-19q-113 0-193 47T85 160 44 355q0 112 41 196t122 130 194 47zm-4 205q41 0 59-20t18-52q0-31-19-51t-58-20q-41 0-59 20t-18 51q0 72 77 72z" horiz-adv-x="678" unicode="Ċ"/><glyph d="M310 534q98 0 174-56l-47-87q-60 39-126 39-71 0-106-45t-35-124q0-77 35-124t104-46q61 0 129 40l45-89q-39-27-86-42t-98-14q-95 0-152 42T67 132 44 261q0 83 32 144t92 95 142 34zm-7 220q41 0 59-20t18-52q0-31-19-51t-58-20q-41 0-59 20t-18 51q0 72 77 72z" horiz-adv-x="511" unicode="ċ"/><glyph d="M401 728q74 0 140-24t109-66l-74-84q-34 29-78 45t-92 16q-116 0-171-71t-55-189q0-117 55-188t168-70q53 0 98 19t79 52l79-86Q614 37 546 9T399-19q-113 0-193 47T85 160 44 355q0 112 41 196t122 130 194 47zM268 932l128-85 129 84 44-56-125-103h-96L224 875z" horiz-adv-x="678" unicode="Č"/><glyph d="M310 534q98 0 174-56l-47-87q-60 39-126 39-71 0-106-45t-35-124q0-77 35-124t104-46q61 0 129 40l45-89q-39-27-86-42t-98-14q-95 0-152 42T67 132 44 261q0 83 32 144t92 95 142 34zM175 757l128-101 128 99 48-51-128-124v-1h-97L127 704z" horiz-adv-x="511" unicode="č"/><glyph d="M80 708h241q180 0 278-87t98-266q0-114-46-194T522 40 326 0H80zm130-107V108h103q123 0 186 60t63 187q0 127-62 186t-184 60zm-1 331l128-85 129 84 44-56-125-103h-96L165 875z" horiz-adv-x="740" unicode="Ď"/><glyph d="M432 708h125V119q0-47 8-119H449q-7 39-8 65h-2q-29-40-71-60T264-14Q154-14 99 61T44 257q0 77 29 140t83 100 129 37q89 0 147-52zM304 433q-62 0-96-48t-34-128q0-83 33-128t91-44q59 0 96 39t38 103v152q-51 54-128 54zm330 294l102-27-62-167-72 18z" horiz-adv-x="695" unicode="ď"/><glyph d="M80 708h241q180 0 278-87t98-266q0-114-46-194T522 40 326 0H80v313H7v83h73zm130-107V396h156v-83H210V108h103q123 0 186 60t63 187q0 127-62 186t-184 60z" horiz-adv-x="740" unicode="Đ"/><glyph d="M432 708h125v-55h66v-76h-66V119q0-47 8-119H449q-7 39-8 65h-2q-29-40-71-60T264-14Q154-14 99 61T44 257q0 77 29 140t83 100 129 37q89 0 147-52v95H279v76h153zM304 433q-62 0-96-48t-34-128q0-83 33-128t91-44q59 0 96 39t38 103v152q-51 54-128 54z" horiz-adv-x="635" unicode="đ"/><glyph d="M80 708h447V603H211V414h270V313H211V107h333V0H80zm93 174h299v-83H173z" horiz-adv-x="568" unicode="Ē"/><glyph d="M295 534q118 0 179-74t61-199q0-24-3-47H170q8-62 44-96t101-33q44 0 77 11t72 36l54-80q-45-33-97-50T307-14q-82 0-141 34t-91 96-31 144q0 124 65 199t186 75zm-1-94q-58 0-90-38t-35-94h243q-2 58-32 95t-86 37zM150 689h299v-83H150z" horiz-adv-x="579" unicode="ē"/><glyph d="M80 708h447V603H211V414h270V313H211V107h333V0H80zm153 204q8-29 31-45t57-16q33 0 56 16t31 45l71-9q-8-64-50-101t-108-36h-1q-67 0-109 36t-49 101z" horiz-adv-x="568" unicode="Ĕ"/><glyph d="M295 534q118 0 179-74t61-199q0-24-3-47H170q8-62 44-96t101-33q44 0 77 11t72 36l54-80q-45-33-97-50T307-14q-82 0-141 34t-91 96-31 144q0 124 65 199t186 75zm-1-94q-58 0-90-38t-35-94h243q-2 58-32 95t-86 37zm-84 299q16-76 89-76 74 0 90 76l72-9q-8-74-50-114t-112-39q-70 0-112 39t-50 114z" horiz-adv-x="579" unicode="ĕ"/><glyph d="M80 708h447V603H211V414h270V313H211V107h333V0H80zm240 225q41 0 59-20t18-52q0-31-19-51t-58-20q-41 0-59 20t-18 51q0 72 77 72z" horiz-adv-x="568" unicode="Ė"/><glyph d="M295 534q118 0 179-74t61-199q0-24-3-47H170q8-62 44-96t101-33q44 0 77 11t72 36l54-80q-45-33-97-50T307-14q-82 0-141 34t-91 96-31 144q0 124 65 199t186 75zm-1-94q-58 0-90-38t-35-94h243q-2 58-32 95t-86 37zm6 314q41 0 59-20t18-52q0-31-19-51t-58-20q-41 0-59 20t-18 51q0 72 77 72z" horiz-adv-x="579" unicode="ė"/><glyph d="M80 708h447V603H211V414h270V313H211V107h333V0h-43q-52-36-78-66t-26-61q0-19 12-29t33-11q30 0 61 15l24-69q-45-27-99-27-51 0-87 27t-35 76q0 42 25 80t70 65H80z" horiz-adv-x="568" unicode="Ę"/><glyph d="M295 534q118 0 179-74t61-199q0-24-3-47H170q8-62 44-96t101-33q44 0 77 11t72 36l54-80q-37-28-77-42-104-79-104-137 0-19 12-29t33-11q30 0 61 15l24-69q-45-27-99-27-51 0-87 27t-35 76q0 75 82 131h-21q-82 0-141 34t-91 96-31 144q0 124 65 199t186 75zm-1-94q-58 0-90-38t-35-94h243q-2 58-32 95t-86 37z" horiz-adv-x="579" unicode="ę"/><glyph d="M80 708h447V603H211V414h270V313H211V107h333V0H80zm111 224l128-85 129 84 44-56-125-103h-96L147 875z" horiz-adv-x="568" unicode="Ě"/><glyph d="M295 534q118 0 179-74t61-199q0-24-3-47H170q8-62 44-96t101-33q44 0 77 11t72 36l54-80q-45-33-97-50T307-14q-82 0-141 34t-91 96-31 144q0 124 65 199t186 75zm-1-94q-58 0-90-38t-35-94h243q-2 58-32 95t-86 37zM172 757l128-101 128 99 48-51-128-124v-1h-97L124 704z" horiz-adv-x="579" unicode="ě"/><glyph d="M404 727q74 0 140-24t109-66l-74-84q-34 29-79 45t-91 17q-117 0-174-71t-57-189q0-265 229-265 74 0 142 29v158H404v100h266V48Q550-19 405-19q-117 0-198 47T85 159 44 355q0 111 42 195t124 130 194 47zm-51 193h96l125-104-44-55-129 84-128-85-44 56z" horiz-adv-x="742" unicode="Ĝ"/><glyph d="M275 534q29 0 50-4t47-10h189v-99l-105 17q18-16 28-44t10-61q0-80-58-125t-161-45q-47 0-72-11t-24-29q0-17 23-27t73-10q138-4 204-41t66-112q0-92-76-141t-212-49q-118 0-180 42T16-96q0 82 92 137-21 13-32 29t-11 41q0 28 19 50t53 32q-88 46-88 153 0 87 60 137t166 51zm-4-91q-49 0-79-27t-29-68q0-45 27-72t81-26q108 0 108 94 0 45-27 72t-81 27zM192-8q-55-31-55-81 0-75 123-75 79 0 120 22t41 62q0 37-52 54T192-8zm37 753h97v-1l127-125-47-50-128 99-129-101-47 52z" horiz-adv-x="581" unicode="ĝ"/><glyph d="M404 727q74 0 140-24t109-66l-74-84q-34 29-79 45t-91 17q-117 0-174-71t-57-189q0-265 229-265 74 0 142 29v158H404v100h266V48Q550-19 405-19q-117 0-198 47T85 159 44 355q0 111 42 195t124 130 194 47zm-91 185q8-29 31-45t57-16q33 0 56 16t31 45l71-9q-8-64-50-101t-108-36h-1q-67 0-109 36t-49 101z" horiz-adv-x="742" unicode="Ğ"/><glyph d="M275 534q29 0 50-4t47-10h189v-99l-105 17q18-16 28-44t10-61q0-80-58-125t-161-45q-47 0-72-11t-24-29q0-17 23-27t73-10q138-4 204-41t66-112q0-92-76-141t-212-49q-118 0-180 42T16-96q0 82 92 137-21 13-32 29t-11 41q0 28 19 50t53 32q-88 46-88 153 0 87 60 137t166 51zm-4-91q-49 0-79-27t-29-68q0-45 27-72t81-26q108 0 108 94 0 45-27 72t-81 27zM192-8q-55-31-55-81 0-75 123-75 79 0 120 22t41 62q0 37-52 54T192-8zm-4 747q16-76 89-76 74 0 90 76l72-9q-8-74-50-114t-112-39q-70 0-112 39t-50 114z" horiz-adv-x="581" unicode="ğ"/><glyph d="M404 727q74 0 140-24t109-66l-74-84q-34 29-79 45t-91 17q-117 0-174-71t-57-189q0-265 229-265 74 0 142 29v158H404v100h266V48Q550-19 405-19q-117 0-198 47T85 159 44 355q0 111 42 195t124 130 194 47zm-3 206q41 0 59-20t18-52q0-31-19-51t-58-20q-41 0-59 20t-18 51q0 72 77 72z" horiz-adv-x="742" unicode="Ġ"/><glyph d="M275 534q29 0 50-4t47-10h189v-99l-105 17q18-16 28-44t10-61q0-80-58-125t-161-45q-47 0-72-11t-24-29q0-17 23-27t73-10q138-4 204-41t66-112q0-92-76-141t-212-49q-118 0-180 42T16-96q0 82 92 137-21 13-32 29t-11 41q0 28 19 50t53 32q-88 46-88 153 0 87 60 137t166 51zm-4-91q-49 0-79-27t-29-68q0-45 27-72t81-26q108 0 108 94 0 45-27 72t-81 27zM192-8q-55-31-55-81 0-75 123-75 79 0 120 22t41 62q0 37-52 54T192-8zm86 762q41 0 59-20t18-52q0-31-19-51t-58-20q-41 0-59 20t-18 51q0 72 77 72z" horiz-adv-x="581" unicode="ġ"/><glyph d="M404 727q74 0 140-24t109-66l-74-84q-34 29-79 45t-91 17q-117 0-174-71t-57-189q0-265 229-265 74 0 142 29v158H404v100h266V48Q550-19 405-19q-117 0-198 47T85 159 44 355q0 111 42 195t124 130 194 47zm5-783q68 0 68-61 0-72-81-168l-52 26q28 43 33 88-36 12-36 54 0 61 68 61z" horiz-adv-x="742" unicode="Ģ"/><glyph d="M275 534q29 0 50-4t47-10h189v-99l-105 17q18-16 28-44t10-61q0-80-58-125t-161-45q-47 0-72-11t-24-29q0-17 23-27t73-10q138-4 204-41t66-112q0-92-76-141t-212-49q-118 0-180 42T16-96q0 82 92 137-21 13-32 29t-11 41q0 28 19 50t53 32q-88 46-88 153 0 87 60 137t166 51zm-4-91q-49 0-79-27t-29-68q0-45 27-72t81-26q108 0 108 94 0 45-27 72t-81 27zM192-8q-55-31-55-81 0-75 123-75 79 0 120 22t41 62q0 37-52 54T192-8zm98 840l52-26q-28-43-33-88 36-12 36-54 0-61-68-61t-68 61q0 72 81 168z" horiz-adv-x="581" unicode="ģ"/><glyph d="M80 708h131V416h327v292h132V0H538v311H211V0H80zm247 212h96l125-104-44-55-129 84-128-85-44 56z" horiz-adv-x="749" unicode="Ĥ"/><glyph d="M78 708h125V463h2q57 71 167 71 96 0 142-55t47-135V0H436v317q0 50-25 81t-81 32q-58 0-93-40t-34-101V0H78zm192 212h96l125-104-44-55-129 84-128-85-44 56z" horiz-adv-x="634" unicode="ĥ"/><glyph d="M80 708h131v-99h327v99h132v-99h73v-83h-73V0H538v311H211V0H80v526H3v83h77zm131-182V416h327v110z" horiz-adv-x="749" unicode="Ħ"/><glyph d="M78 708h125v-55h151v-77H203V463h2q57 71 167 71 96 0 142-55t47-135V0H436v317q0 50-25 81t-81 32q-58 0-93-40t-34-101V0H78v576H10v77h68z" horiz-adv-x="634" unicode="ħ"/><glyph d="M48 708h294v-96h-83V99h83V0H48v99h83v513H48zm91 200q19 0 33-7t34-19q15-10 24-15t20-4q31 0 56 43l62-25q-19-50-48-75t-70-25q-19 0-34 6t-30 19q-14 10-25 15t-22 5q-30 0-55-43l-62 25q19 49 47 74t70 26z" horiz-adv-x="390" unicode="Ĩ"/><glyph d="M78 520h125V0H78zm7 195q19 0 33-7t34-19q15-10 24-15t20-4q31 0 56 43l62-25q-19-50-48-75t-70-25q-19 0-34 6t-30 19q-14 10-25 15t-22 5q-30 0-55-43l-62 25q19 49 47 74t70 26z" horiz-adv-x="282" unicode="ĩ"/><glyph d="M48 708h294v-96h-83V99h83V0H48v99h83v513H48zm1 174h299v-83H49z" horiz-adv-x="390" unicode="Ī"/><glyph d="M78 520h125V0H78zM-9 689h299v-83H-9z" horiz-adv-x="282" unicode="ī"/><glyph d="M48 708h294v-96h-83V99h83V0H48v99h83v513H48zm60 204q8-29 31-45t57-16q33 0 56 16t31 45l71-9q-8-64-50-101t-108-36h-1q-67 0-109 36T37 903z" horiz-adv-x="390" unicode="Ĭ"/><glyph d="M78 520h125V0H78zM51 739q16-76 89-76 74 0 90 76l72-9q-8-74-50-114t-112-39q-70 0-112 39t-50 114z" horiz-adv-x="282" unicode="ĭ"/><glyph d="M48 708h294v-96h-83V99h83V0H241q-52-36-78-66t-26-61q0-19 12-29t33-11q30 0 61 15l24-69q-45-27-99-27-51 0-87 27t-35 76q0 42 25 80t70 65H48v99h83v513H48z" horiz-adv-x="390" unicode="Į"/><glyph d="M141 754q41 0 59-20t18-52q0-31-19-51t-58-20q-41 0-59 20t-18 51q0 72 77 72zM78 520h125V0h-30q-52-36-78-66t-26-61q0-19 12-29t33-11q29 0 61 15l24-69q-45-27-99-27-51 0-87 27t-35 76q0 44 26 82T78 3z" horiz-adv-x="282" unicode="į"/><glyph d="M48 708h294v-96h-83V99h83V0H48v99h83v513H48zm148 225q41 0 59-20t18-52q0-31-19-51t-58-20q-41 0-59 20t-18 51q0 72 77 72z" horiz-adv-x="390" unicode="İ"/><glyph d="M78 520h125V0H78z" horiz-adv-x="282" unicode="ı"/><glyph d="M48 708h294v-96h-83V99h83V0H48v99h83v513H48zm565 0h131V211q0-63-24-115t-72-84-122-31q-77 0-133 36l48 97q14-9 34-15t42-5q96 0 96 116z" horiz-adv-x="816" unicode="Ĳ"/><glyph d="M141 754q41 0 59-20t18-52q0-31-19-51t-58-20q-41 0-59 20t-18 51q0 72 77 72zm282 0q41 0 59-20t18-52q0-31-19-51t-58-20q-41 0-59 20t-18 51q0 72 77 72zM78 520h125V0H78zm282 0h125V-64q0-93-43-143t-132-51q-39 0-73 11l23 91q14-3 33-3 38 0 52 23t15 70z" horiz-adv-x="563" unicode="ĳ"/><glyph d="M223 708h131V211q0-63-24-115t-72-84-122-31Q59-19 3 17l48 97q14-9 34-15t42-5q96 0 96 116zm18 212h96l125-104-44-55-129 84-128-85-44 56z" horiz-adv-x="426" unicode="Ĵ"/><glyph d="M78 520h125V-64q0-93-43-143T28-258q-39 0-73 11l23 91q14-3 33-3 38 0 52 23t15 70zm14 225h97v-1l127-125-47-50-128 99L12 567l-47 52z" horiz-adv-x="282" unicode="ĵ"/><glyph d="M80 708h131V417l278 291h156L339 387 670 0H507L253 296l-42-43V0H80zM348-56q68 0 68-61 0-72-81-168l-52 26q28 43 33 88-36 12-36 54 0 61 68 61z" horiz-adv-x="660" unicode="Ķ"/><glyph d="M78 708h125V326l208 194h148L333 307 576 0H422L247 226l-44-41V0H78zM312-56q68 0 68-61 0-72-81-168l-52 26q28 43 33 88-36 12-36 54 0 61 68 61z" horiz-adv-x="572" unicode="ķ"/><glyph d="M78 520h125V307l208 213h148L330 292 576 0H422L247 210l-44-44V0H78z" horiz-adv-x="572" unicode="ĸ"/><glyph d="M80 708h131V109h306V0H80zm142 240l52-92-197-94-40 65z" horiz-adv-x="521" unicode="Ĺ"/><glyph d="M78 708h125V0H78zm139 240l52-92-197-94-40 65z" horiz-adv-x="282" unicode="ĺ"/><glyph d="M80 708h131V109h306V0H80zM298-56q68 0 68-61 0-72-81-168l-52 26q28 43 33 88-36 12-36 54 0 61 68 61z" horiz-adv-x="521" unicode="Ļ"/><glyph d="M78 708h125V0H78zm62-764q68 0 68-61 0-72-81-168l-52 26q28 43 33 88-36 12-36 54 0 61 68 61z" horiz-adv-x="282" unicode="ļ"/><glyph d="M80 708h131V109h306V0H80zm232 19l102-27-62-167-72 18z" horiz-adv-x="521" unicode="Ľ"/><glyph d="M78 708h125V0H78zm199 19l102-27-62-167-72 18z" horiz-adv-x="339" unicode="ľ"/><glyph d="M80 708h131V109h306V0H80zm323-244q40 0 57-20t18-50q0-30-18-50t-57-19q-40 0-58 19t-17 50q0 70 75 70z" horiz-adv-x="521" unicode="Ŀ"/><glyph d="M78 708h125V0H78zm231-294q39 0 56-20t18-50q0-30-18-50t-56-19q-39 0-57 19t-17 50q0 70 74 70z" horiz-adv-x="334" unicode="ŀ"/><glyph d="M83 708h131V406l177 94 40-76-217-115V109h306V0H83v240l-1-1-31-16-40 76 72 38z" horiz-adv-x="523" unicode="Ł"/><glyph d="M84 708h125V417l49 27 37-77-86-46V0H84v253l-50-27-37 77 87 47z" horiz-adv-x="293" unicode="ł"/><glyph d="M80 708h149l350-528h2l-3 528h121V0H550L200 529h-2l4-529H80zm386 240l52-92-197-94-40 65z" horiz-adv-x="779" unicode="Ń"/><glyph d="M371 534q65 0 107-27t63-70 20-93V0H436v317q0 50-25 81t-81 32q-59 0-93-40t-34-101V0H78v401q0 38-9 119h120q6-31 8-60h2q25 33 69 53t103 21zm18 237l60-88-184-116-47 66z" horiz-adv-x="633" unicode="ń"/><glyph d="M80 708h149l350-528h2l-3 528h121V0H550L200 529h-2l4-529H80zM388-56q68 0 68-61 0-72-81-168l-52 26q28 43 33 88-36 12-36 54 0 61 68 61z" horiz-adv-x="779" unicode="Ņ"/><glyph d="M371 534q65 0 107-27t63-70 20-93V0H436v317q0 50-25 81t-81 32q-59 0-93-40t-34-101V0H78v401q0 38-9 119h120q6-31 8-60h2q25 33 69 53t103 21zM316-56q68 0 68-61 0-72-81-168l-52 26q28 43 33 88-36 12-36 54 0 61 68 61z" horiz-adv-x="633" unicode="ņ"/><glyph d="M80 708h149l350-528h2l-3 528h121V0H550L200 529h-2l4-529H80zm181 224l128-85 129 84 44-56-125-103h-96L217 875z" horiz-adv-x="779" unicode="Ň"/><glyph d="M371 534q65 0 107-27t63-70 20-93V0H436v317q0 50-25 81t-81 32q-59 0-93-40t-34-101V0H78v401q0 38-9 119h120q6-31 8-60h2q25 33 69 53t103 21zM198 757l128-101 128 99 48-51-128-124v-1h-97L150 704z" horiz-adv-x="633" unicode="ň"/><glyph d="M371 534q65 0 107-27t63-70 20-93V0H436v317q0 50-25 81t-81 32q-59 0-93-40t-34-101V0H78v401q0 38-9 119h120q6-31 8-60h2q25 33 69 53t103 21zM76 775q68 0 68-61 0-72-80-166l-52 26q27 42 32 86-36 12-36 54 0 61 68 61z" horiz-adv-x="633" unicode="ŉ"/><glyph d="M80 708h149l350-528h2l-3 528h121V-64q0-93-43-143t-132-51q-39 0-73 11l22 91q15-3 33-3 38 0 53 23t15 70V0h-24L200 529h-2l4-529H80z" horiz-adv-x="779" unicode="Ŋ"/><glyph d="M371 534q65 0 107-27t63-70 20-93V-64q0-93-43-143t-132-51q-39 0-73 11l22 91q15-3 33-3 38 0 53 23t15 70v383q0 50-25 81t-81 32q-59 0-93-40t-34-101V0H78v401q0 38-9 119h120q6-31 8-60h2q25 33 69 53t103 21z" horiz-adv-x="633" unicode="ŋ"/><glyph d="M406 727q113 0 195-47t125-131 43-195q0-111-43-196T601 27 406-19q-113 0-195 46T87 158 44 354q0 111 43 195t124 131 195 47zm0-113q-113 0-171-70t-57-190q0-120 57-190t171-70q114 0 171 70t58 190q0 120-58 190t-171 70zM259 882h299v-83H259z" horiz-adv-x="812" unicode="Ō"/><glyph d="M314 534q85 0 146-34t93-95 32-143q0-81-33-144t-94-97-144-35q-83 0-144 35t-94 98-32 143q0 82 32 143t92 95 146 34zm0-100q-74 0-107-47t-33-125q0-80 33-129t108-48q74 0 108 48t34 129q0 79-34 125t-109 47zM166 689h299v-83H166z" horiz-adv-x="630" unicode="ō"/><glyph d="M406 727q113 0 195-47t125-131 43-195q0-111-43-196T601 27 406-19q-113 0-195 46T87 158 44 354q0 111 43 195t124 131 195 47zm0-113q-113 0-171-70t-57-190q0-120 57-190t171-70q114 0 171 70t58 190q0 120-58 190t-171 70zm-87 298q8-29 31-45t57-16q33 0 56 16t31 45l71-9q-8-64-50-101t-108-36h-1q-67 0-109 36t-49 101z" horiz-adv-x="812" unicode="Ŏ"/><glyph d="M314 534q85 0 146-34t93-95 32-143q0-81-33-144t-94-97-144-35q-83 0-144 35t-94 98-32 143q0 82 32 143t92 95 146 34zm0-100q-74 0-107-47t-33-125q0-80 33-129t108-48q74 0 108 48t34 129q0 79-34 125t-109 47zm-88 305q16-76 89-76 74 0 90 76l72-9q-8-74-50-114t-112-39q-70 0-112 39t-50 114z" horiz-adv-x="630" unicode="ŏ"/><glyph d="M406 727q113 0 195-47t125-131 43-195q0-111-43-196T601 27 406-19q-113 0-195 46T87 158 44 354q0 111 43 195t124 131 195 47zm0-113q-113 0-171-70t-57-190q0-120 57-190t171-70q114 0 171 70t58 190q0 120-58 190t-171 70zm-21 354l77-43-110-162-57 29zm151-8l73-51-120-153-55 35z" horiz-adv-x="812" unicode="Ő"/><glyph d="M314 534q85 0 146-34t93-95 32-143q0-81-33-144t-94-97-144-35q-83 0-144 35t-94 98-32 143q0 82 32 143t92 95 146 34zm0-100q-74 0-107-47t-33-125q0-80 33-129t108-48q74 0 108 48t34 129q0 79-34 125t-109 47zm-22 341l77-43-110-162-57 29zm151-8l73-51-120-153-55 35z" horiz-adv-x="630" unicode="ő"/><glyph d="M396 727q63 0 111-19h479V603H645q63-74 78-189h217V313H724q-10-128-88-206h366V0H505q-46-19-109-19-108 0-188 46T86 158 44 354q0 111 42 195t122 131 188 47zm0-113q-107 0-163-71t-55-189q0-119 55-190t163-70q99 0 149 70t50 190q0 120-50 190t-149 70z" horiz-adv-x="1027" unicode="Œ"/><glyph d="M308 534q133 0 198-100 31 49 77 74t111 26q110 0 170-75t60-198q0-17-4-47H571q8-61 43-95t95-34q40 0 72 11t71 36l54-80q-91-66-204-66-130 0-195 103Q441-14 308-14q-80 0-140 35t-92 98-32 143q0 81 31 142t91 96 142 34zm383-94q-55 0-86-38t-35-94h231q-2 58-31 95t-79 37zm-383-6q-70 0-102-47t-32-125q0-80 32-129t103-48q70 0 103 48t33 129q0 79-33 125t-104 47z" horiz-adv-x="967" unicode="œ"/><glyph d="M80 708h248q119 0 193-62t74-175q0-150-143-205L621 0H471L331 240H211V0H80zm130-105V340h111q61 0 100 32t39 99q0 67-40 99t-101 33zm183 345l52-92-197-94-40 65z" horiz-adv-x="653" unicode="Ŕ"/><glyph d="M353 534q18 0 32-4l-5-108q-15 3-38 3-66 0-103-43t-36-109V0H78v401q0 38-9 119h120q7-42 8-72h2q46 86 154 86zm-63 237l60-88-184-116-47 66z" horiz-adv-x="392" unicode="ŕ"/><glyph d="M80 708h248q119 0 193-62t74-175q0-150-143-205L621 0H471L331 240H211V0H80zm130-105V340h111q61 0 100 32t39 99q0 67-40 99t-101 33zM330-56q68 0 68-61 0-72-81-168l-52 26q28 43 33 88-36 12-36 54 0 61 68 61z" horiz-adv-x="653" unicode="Ŗ"/><glyph d="M353 534q18 0 32-4l-5-108q-15 3-38 3-66 0-103-43t-36-109V0H78v401q0 38-9 119h120q7-42 8-72h2q46 86 154 86zM139-56q68 0 68-61 0-72-81-168l-52 26q28 43 33 88-36 12-36 54 0 61 68 61z" horiz-adv-x="392" unicode="ŗ"/><glyph d="M80 708h248q119 0 193-62t74-175q0-150-143-205L621 0H471L331 240H211V0H80zm130-105V340h111q61 0 100 32t39 99q0 67-40 99t-101 33zm-22 329l128-85 129 84 44-56-125-103h-96L144 875z" horiz-adv-x="653" unicode="Ř"/><glyph d="M353 534q18 0 32-4l-5-108q-15 3-38 3-66 0-103-43t-36-109V0H78v401q0 38-9 119h120q7-42 8-72h2q46 86 154 86zM98 757l128-101 128 99 48-51-128-124v-1h-97L50 704z" horiz-adv-x="392" unicode="ř"/><glyph d="M299 725q130 0 229-70l-59-85q-42 26-82 38t-85 12q-56 0-90-22t-33-64q0-44 34-67t113-43q104-27 159-78t55-146q0-72-36-122T406 5 270-19q-71 0-133 21T26 64l63 83q41-30 84-43t96-13q62 0 99 26t38 78q0 38-18 60t-52 37-92 30q-96 25-146 73T49 526q0 63 33 108t89 68 128 23zm85 223l52-92-197-94-40 65z" horiz-adv-x="575" unicode="Ś"/><glyph d="M243 534q104 0 178-55l-50-79q-61 38-123 38-40 0-62-14t-22-38q0-21 10-34t32-21 70-20q76-19 114-57t39-98q0-82-62-126T215-14Q100-14 23 45l54 78q32-20 63-30t69-10q43 0 66 16t24 48q0 21-10 33t-32 21-68 20q-77 19-114 56T39 378q0 73 56 114t148 42zm60 237l60-88-184-116-47 66z" horiz-adv-x="461" unicode="ś"/><glyph d="M299 725q130 0 229-70l-59-85q-42 26-82 38t-85 12q-56 0-90-22t-33-64q0-44 34-67t113-43q104-27 159-78t55-146q0-72-36-122T406 5 270-19q-71 0-133 21T26 64l63 83q41-30 84-43t96-13q62 0 99 26t38 78q0 38-18 60t-52 37-92 30q-96 25-146 73T49 526q0 63 33 108t89 68 128 23zm-39 195h96l125-104-44-55-129 84-128-85-44 56z" horiz-adv-x="575" unicode="Ŝ"/><glyph d="M243 534q104 0 178-55l-50-79q-61 38-123 38-40 0-62-14t-22-38q0-21 10-34t32-21 70-20q76-19 114-57t39-98q0-82-62-126T215-14Q100-14 23 45l54 78q32-20 63-30t69-10q43 0 66 16t24 48q0 21-10 33t-32 21-68 20q-77 19-114 56T39 378q0 73 56 114t148 42zm-52 211h97v-1l127-125-47-50-128 99-129-101-47 52z" horiz-adv-x="461" unicode="ŝ"/><glyph d="M299 725q130 0 229-70l-59-85q-42 26-82 38t-85 12q-56 0-90-22t-33-64q0-44 34-67t113-43q104-27 159-78t55-146q0-92-58-147T332-15l-14-39q7 1 21 1 37 0 62-22t25-65q0-57-39-83t-95-26q-70 0-115 25l29 66q36-18 81-18 50 0 50 36 0 15-10 23t-25 7q-15 0-33-4h-53l37 95Q118-13 26 64l63 83q41-30 84-43t96-13q62 0 99 26t38 78q0 38-18 60t-52 37-92 30q-96 25-146 73T49 526q0 63 33 108t89 68 128 23z" horiz-adv-x="575" unicode="Ş"/><glyph d="M243 534q104 0 178-55l-50-79q-61 38-123 38-40 0-62-14t-22-38q0-21 10-34t32-21 70-20q76-19 114-57t39-98q0-71-46-113T264-10l-15-44q7 1 21 1 37 0 62-22t25-65q0-57-39-83t-95-26q-70 0-115 25l29 66q36-18 81-18 50 0 50 36 0 15-10 23t-25 7q-15 0-33-4h-53l39 101Q90-7 23 45l54 78q32-20 63-30t69-10q43 0 66 16t24 48q0 21-10 33t-32 21-68 20q-77 19-114 56T39 378q0 73 56 114t148 42z" horiz-adv-x="461" unicode="ş"/><glyph d="M299 725q130 0 229-70l-59-85q-42 26-82 38t-85 12q-56 0-90-22t-33-64q0-44 34-67t113-43q104-27 159-78t55-146q0-72-36-122T406 5 270-19q-71 0-133 21T26 64l63 83q41-30 84-43t96-13q62 0 99 26t38 78q0 38-18 60t-52 37-92 30q-96 25-146 73T49 526q0 63 33 108t89 68 128 23zM179 932l128-85 129 84 44-56-125-103h-96L135 875z" horiz-adv-x="575" unicode="Š"/><glyph d="M243 534q104 0 178-55l-50-79q-61 38-123 38-40 0-62-14t-22-38q0-21 10-34t32-21 70-20q76-19 114-57t39-98q0-82-62-126T215-14Q100-14 23 45l54 78q32-20 63-30t69-10q43 0 66 16t24 48q0 21-10 33t-32 21-68 20q-77 19-114 56T39 378q0 73 56 114t148 42zM112 757l128-101 128 99 48-51-128-124v-1h-97L64 704z" horiz-adv-x="461" unicode="š"/><glyph d="M4 708h557V598H348V0h-24l-19-54q7 1 21 1 37 0 62-22t25-65q0-57-39-83t-95-26q-70 0-115 25l29 66q36-18 81-18 50 0 50 36 0 15-10 23t-25 7q-15 0-33-4h-53L247 0h-30v598H4z" horiz-adv-x="565" unicode="Ţ"/><glyph d="M226 682V515h129v-95H226V161q0-74 67-74 27 0 46 6l18-92q-35-13-82-15l-14-40q7 1 21 1 37 0 62-22t25-65q0-57-39-83t-95-26q-70 0-115 25l29 66q36-18 81-18 50 0 50 36 0 15-10 23t-25 7q-15 0-33-4h-53L201-5q-48 15-74 54t-26 100v271H15v80l85 15v123z" horiz-adv-x="385" unicode="ţ"/><glyph d="M4 708h557V598H348V0H217v598H4zm150 224l128-85 129 84 44-56-125-103h-96L110 875z" horiz-adv-x="565" unicode="Ť"/><glyph d="M226 682V515h129v-95H226V161q0-74 67-74 27 0 46 6l18-92q-38-15-91-15-78 0-122 42t-43 121v271H15v80l85 15v123zm85 45l102-27-62-167-72 18z" horiz-adv-x="385" unicode="ť"/><glyph d="M4 708h557V598H348V396h114v-83H348V0H217v313H103v83h114v202H4z" horiz-adv-x="565" unicode="Ŧ"/><glyph d="M226 682V515h129v-95H226v-90h99v-88h-99v-81q0-74 67-74 27 0 46 6l18-92q-38-15-91-15-78 0-122 42t-43 121v93H15v88h86v90H15v80l85 15v123z" horiz-adv-x="385" unicode="ŧ"/><glyph d="M72 708h131V266q0-86 38-129t128-43q89 0 127 43t39 129v442h131V256q0-130-78-203T369-19q-141 0-219 72T72 256zm241 200q19 0 33-7t34-19q15-10 24-15t20-4q31 0 56 43l62-25q-19-50-48-75t-70-25q-19 0-34 6t-30 19q-14 10-25 15t-22 5q-30 0-55-43l-62 25q19 49 47 74t70 26z" horiz-adv-x="738" unicode="Ũ"/><glyph d="M72 520h126V219q0-62 25-98t80-36q59 0 93 43t35 110v282h125V119q0-54 9-119H445q-7 36-8 61h-2q-55-75-166-75-97 0-147 59T72 200zm190 195q19 0 33-7t34-19q15-10 24-15t20-4q31 0 56 43l62-25q-19-50-48-75t-70-25q-19 0-34 6t-30 19q-14 10-25 15t-22 5q-30 0-55-43l-62 25q19 49 47 74t70 26z" horiz-adv-x="634" unicode="ũ"/><glyph d="M72 708h131V266q0-86 38-129t128-43q89 0 127 43t39 129v442h131V256q0-130-78-203T369-19q-141 0-219 72T72 256zm151 174h299v-83H223z" horiz-adv-x="738" unicode="Ū"/><glyph d="M72 520h126V219q0-62 25-98t80-36q59 0 93 43t35 110v282h125V119q0-54 9-119H445q-7 36-8 61h-2q-55-75-166-75-97 0-147 59T72 200zm95 169h299v-83H167z" horiz-adv-x="634" unicode="ū"/><glyph d="M72 708h131V266q0-86 38-129t128-43q89 0 127 43t39 129v442h131V256q0-130-78-203T369-19q-141 0-219 72T72 256zm210 204q8-29 31-45t57-16q33 0 56 16t31 45l71-9q-8-64-50-101t-108-36h-1q-67 0-109 36t-49 101z" horiz-adv-x="738" unicode="Ŭ"/><glyph d="M72 520h126V219q0-62 25-98t80-36q59 0 93 43t35 110v282h125V119q0-54 9-119H445q-7 36-8 61h-2q-55-75-166-75-97 0-147 59T72 200zm156 219q16-76 89-76 74 0 90 76l72-9q-8-74-50-114t-112-39q-70 0-112 39t-50 114z" horiz-adv-x="634" unicode="ŭ"/><glyph d="M72 708h131V266q0-86 38-129t128-43q89 0 127 43t39 129v442h131V256q0-130-78-203T369-19q-141 0-219 72T72 256zm297 284q60 0 93-31t33-82q0-50-33-82t-92-31h-1q-59 0-92 31t-33 82q0 52 33 82t92 31zm0-64q-42 0-42-49 0-24 11-36t31-12q20 0 31 12t11 36q0 49-42 49z" horiz-adv-x="738" unicode="Ů"/><glyph d="M72 520h126V219q0-62 25-98t80-36q59 0 93 43t35 110v282h125V119q0-54 9-119H445q-7 36-8 61h-2q-55-75-166-75-97 0-147 59T72 200zm245 279q60 0 93-31t33-82q0-50-33-82t-92-31h-1q-59 0-92 31t-33 82q0 52 33 82t92 31zm0-64q-42 0-42-49 0-24 11-36t31-12q20 0 31 12t11 36q0 49-42 49z" horiz-adv-x="634" unicode="ů"/><glyph d="M72 708h131V266q0-86 38-129t128-43q89 0 127 43t39 129v442h131V256q0-130-78-203T369-19q-141 0-219 72T72 256zm277 260l77-43-110-162-57 29zm151-8l73-51-120-153-55 35z" horiz-adv-x="738" unicode="Ű"/><glyph d="M72 520h126V219q0-62 25-98t80-36q59 0 93 43t35 110v282h125V119q0-54 9-119H445q-7 36-8 61h-2q-55-75-166-75-97 0-147 59T72 200zm221 255l77-43-110-162-57 29zm151-8l73-51-120-153-55 35z" horiz-adv-x="634" unicode="ű"/><glyph d="M72 708h131V266q0-86 38-129t128-43q89 0 127 43t39 129v442h131V256q0-89-38-152T520 9Q416-70 416-127q0-19 12-29t33-11q30 0 61 15l24-69q-45-27-99-27-51 0-87 27t-35 76q0 36 19 69t56 58q-10-1-31-1-141 0-219 72T72 256z" horiz-adv-x="738" unicode="Ų"/><glyph d="M72 520h126V219q0-62 25-98t80-36q59 0 93 43t35 110v282h125V119q0-54 9-119h-23q-52-36-78-66t-26-61q0-19 12-29t33-11q30 0 61 15l24-69q-45-27-99-27-51 0-87 27t-35 76q0 43 26 81t72 66q-7 34-8 59h-2q-55-75-166-75-97 0-147 59T72 200z" horiz-adv-x="634" unicode="ų"/><glyph d="M7 708h135l139-534h3l150 534h133l151-534h3l142 534h129L788 0H659L500 540h-3L341 0H211zm446 212h96l125-104-44-55-129 84-128-85-44 56z" horiz-adv-x="1000" unicode="Ŵ"/><glyph d="M9 520h132l86-381h2l114 381h130l115-381h2l88 381h127L660 0H524L406 384h-2L289 0H154zm351 225h97v-1l127-125-47-50-128 99-129-101-47 52z" horiz-adv-x="814" unicode="ŵ"/><glyph d="M-18 708h150l169-301h2l167 301h145L362 301V0H231v303zm269 212h96l125-104-44-55-129 84-128-85-44 56z" horiz-adv-x="598" unicode="Ŷ"/><glyph d="M-2 520h136l127-390h2l114 390h129L291-104q-27-79-71-116t-116-37q-50 0-89 15l24 93q23-7 46-7 36 0 55 20t35 59l25 73zm206 225h97v-1l127-125-47-50-128 99-129-101-47 52z" horiz-adv-x="505" unicode="ŷ"/><glyph d="M-18 708h150l169-301h2l167 301h145L362 301V0H231v303zm221 211q67 0 67-67t-67-67q-35 0-51 18t-16 49q0 30 16 48t51 19zm203 0q35 0 51-19t16-48q0-30-16-49t-51-18q-67 0-67 67t67 67z" horiz-adv-x="598" unicode="Ÿ"/><glyph d="M44 708h502V605L189 109h366V0H32v111l354 492H44zm330 240l52-92-197-94-40 65z" horiz-adv-x="595" unicode="Ź"/><glyph d="M40 520h386v-93L181 98h256V0H29v99l242 327H40zm261 251l60-88-184-116-47 66z" horiz-adv-x="466" unicode="ź"/><glyph d="M44 708h502V605L189 109h366V0H32v111l354 492H44zm254 225q41 0 59-20t18-52q0-31-19-51t-58-20q-41 0-59 20t-18 51q0 72 77 72z" horiz-adv-x="595" unicode="Ż"/><glyph d="M40 520h386v-93L181 98h256V0H29v99l242 327H40zm198 234q41 0 59-20t18-52q0-31-19-51t-58-20q-41 0-59 20t-18 51q0 72 77 72z" horiz-adv-x="466" unicode="ż"/><glyph d="M44 708h502V605L189 109h366V0H32v111l354 492H44zm125 224l128-85 129 84 44-56-125-103h-96L125 875z" horiz-adv-x="595" unicode="Ž"/><glyph d="M40 520h386v-93L181 98h256V0H29v99l242 327H40zm70 237l128-101 128 99 48-51-128-124v-1h-97L62 704z" horiz-adv-x="466" unicode="ž"/><glyph d="M418 722q56 0 104-17l-30-89q-25 7-55 7-87 0-87-84v-24h123v-89H350V-64q0-93-43-143t-132-51q-39 0-73 11l22 91q15-3 33-3 38 0 53 23t15 70v492h-85v89h85v28q0 84 47 131t146 48z" unicode="ƒ"/><glyph d="M299 725q130 0 229-70l-59-85q-42 26-82 38t-85 12q-56 0-90-22t-33-64q0-44 34-67t113-43q104-27 159-78t55-146q0-72-36-122T406 5 270-19q-71 0-133 21T26 64l63 83q41-30 84-43t96-13q62 0 99 26t38 78q0 38-18 60t-52 37-92 30q-96 25-146 73T49 526q0 63 33 108t89 68 128 23zm-4-781q68 0 68-61 0-72-81-168l-52 26q28 43 33 88-36 12-36 54 0 61 68 61z" horiz-adv-x="575" unicode="Ș"/><glyph d="M243 534q104 0 178-55l-50-79q-61 38-123 38-40 0-62-14t-22-38q0-21 10-34t32-21 70-20q76-19 114-57t39-98q0-82-62-126T215-14Q100-14 23 45l54 78q32-20 63-30t69-10q43 0 66 16t24 48q0 21-10 33t-32 21-68 20q-77 19-114 56T39 378q0 73 56 114t148 42zM226-56q68 0 68-61 0-72-81-168l-52 26q28 43 33 88-36 12-36 54 0 61 68 61z" horiz-adv-x="461" unicode="ș"/><glyph d="M4 708h557V598H348V0H217v598H4zM282-56q68 0 68-61 0-72-81-168l-52 26q28 43 33 88-36 12-36 54 0 61 68 61z" horiz-adv-x="565" unicode="Ț"/><glyph d="M226 682V515h129v-95H226V161q0-74 67-74 27 0 46 6l18-92q-38-15-91-15-78 0-122 42t-43 121v271H15v80l85 15v123zm12-738q68 0 68-61 0-72-81-168l-52 26q28 43 33 88-36 12-36 54 0 61 68 61z" horiz-adv-x="385" unicode="ț"/><glyph d="M78 520h125V-64q0-93-43-143T28-258q-39 0-73 11l23 91q14-3 33-3 38 0 52 23t15 70z" horiz-adv-x="282" unicode="ȷ"/><glyph d="M157 745h97v-1l127-125-47-50-128 99L77 567l-47 52z" horiz-adv-x="411" unicode="ˆ"/><glyph d="M78 757l128-101 128 99 48-51-128-124v-1h-97L30 704z" horiz-adv-x="412" unicode="ˇ"/><glyph d="M30 689h299v-83H30z" horiz-adv-x="359" unicode="ˉ"/><glyph d="M103 739q16-76 89-76 74 0 90 76l72-9q-8-74-50-114t-112-39q-70 0-112 39T30 730z" horiz-adv-x="385" unicode="˘"/><glyph d="M107 754q41 0 59-20t18-52q0-31-19-51t-58-20q-41 0-59 20t-18 51q0 72 77 72z" horiz-adv-x="214" unicode="˙"/><glyph d="M155 799q60 0 93-31t33-82q0-50-33-82t-92-31h-1q-59 0-92 31t-33 82q0 52 33 82t92 31zm0-64q-42 0-42-49 0-24 11-36t31-12q20 0 31 12t11 36q0 49-42 49z" horiz-adv-x="311" unicode="˚"/><glyph d="M140 9l85-9q-52-36-78-66t-26-61q0-19 12-29t33-11q29 0 61 15l24-69q-45-27-99-27-51 0-87 27t-35 76q0 46 29 86t81 68z" horiz-adv-x="281" unicode="˛"/><glyph d="M147 715q19 0 33-7t34-19q15-10 24-15t20-4q31 0 56 43l62-25q-19-50-48-75t-70-25q-19 0-34 6t-30 19q-14 10-25 15t-22 5q-30 0-55-43l-62 25q19 49 47 74t70 26z" horiz-adv-x="406" unicode="˜"/><glyph d="M120 775l77-43L87 570l-57 29zm151-8l73-51-120-153-55 35z" horiz-adv-x="374" unicode="˝"/><glyph d="M-89 832l52-26q-28-43-33-88 36-12 36-54 0-61-68-61t-68 61q0 72 81 168z" horiz-adv-x="0" unicode="̒"/><glyph d="M-99-56q68 0 68-61 0-72-81-168l-52 26q28 43 33 88-36 12-36 54 0 61 68 61z" horiz-adv-x="0" unicode="̦"/><glyph d="M269 708h135L675 0H-3zm67-134L170 103h328z" horiz-adv-x="673" unicode="Δ"/><glyph d="M396 727q108 0 187-46t123-129 43-189q0-91-35-155t-93-102h127V0H452v107h5q76 21 117 86t41 161q0 119-56 189t-163 71q-107 0-163-71t-55-189q0-96 41-162t121-86V0H44v107h128q-59 37-94 101T44 363q0 106 42 189t122 129 188 46z" horiz-adv-x="792" unicode="Ω"/><glyph d="M63 520h126V222q0-62 25-98t80-36q59 0 93 43t35 110v279h125V119q0-54 9-119H436q-7 36-8 61h-2q-25-34-62-55t-81-20q-66 0-98 45h-3v-161q0-60-12-114H54q9 81 9 119z" unicode="μ"/><glyph d="M580 534l18-97q-39-15-92-16V139q0-71 18-139H402q-22 64-22 141v280l-168-1V0H87v420H5v100h477q51 0 98 14z" horiz-adv-x="598" unicode="π"/><glyph d="M7 708h135l139-534h3l150 534h133l151-534h3l142 534h129L788 0H659L500 540h-3L341 0H211zm418 240l185-121-40-65-197 94z" horiz-adv-x="1000" unicode="Ẁ"/><glyph d="M9 520h132l86-381h2l114 381h130l115-381h2l88 381h127L660 0H524L406 384h-2L289 0H154zm338 251l171-138-46-66-185 116z" horiz-adv-x="814" unicode="ẁ"/><glyph d="M7 708h135l139-534h3l150 534h133l151-534h3l142 534h129L788 0H659L500 540h-3L341 0H211zm571 240l52-92-197-94-40 65z" horiz-adv-x="1000" unicode="Ẃ"/><glyph d="M9 520h132l86-381h2l114 381h130l115-381h2l88 381h127L660 0H524L406 384h-2L289 0H154zm463 251l60-88-184-116-47 66z" horiz-adv-x="814" unicode="ẃ"/><glyph d="M7 708h135l139-534h3l150 534h133l151-534h3l142 534h129L788 0H659L500 540h-3L341 0H211zm398 211q67 0 67-67t-67-67q-35 0-51 18t-16 49q0 30 16 48t51 19zm203 0q35 0 51-19t16-48q0-30-16-49t-51-18q-67 0-67 67t67 67z" horiz-adv-x="1000" unicode="Ẅ"/><glyph d="M9 520h132l86-381h2l114 381h130l115-381h2l88 381h127L660 0H524L406 384h-2L289 0H154zm298 206q67 0 67-67t-67-67q-35 0-51 18t-16 49q0 30 16 48t51 19zm203 0q35 0 51-19t16-48q0-30-16-49t-51-18q-67 0-67 67t67 67z" horiz-adv-x="814" unicode="ẅ"/><glyph d="M329 725q87 0 155-26t133-79L472 431q97-20 156-74t59-147q0-76-34-128T562 6 434-19q-96 0-172 40l45 93q30-14 58-20t61-6q61 0 94 30t33 90q0 60-47 96t-161 50v84l118 158q-61 25-123 25-70 0-106-30t-35-107V0H68l1 493q0 118 72 175t188 57z" horiz-adv-x="721" unicode="ẞ"/><glyph d="M-18 708h150l169-301h2l167 301h145L362 301V0H231v303zm241 240l185-121-40-65-197 94z" horiz-adv-x="598" unicode="Ỳ"/><glyph d="M-2 520h136l127-390h2l114 390h129L291-104q-27-79-71-116t-116-37q-50 0-89 15l24 93q23-7 46-7 36 0 55 20t35 59l25 73zm194 251l171-138-46-66-185 116z" horiz-adv-x="505" unicode="ỳ"/><glyph d="M105 340h400V240H105z" unicode="–"/><glyph d="M40 340h512V240H40z" horiz-adv-x="592" unicode="—"/><glyph d="M186 728l44-41q-37-38-56-69t-21-67q30-6 43-21t13-42q0-28-18-47t-50-18q-36 0-56 22t-19 63q0 59 25 108t95 112z" horiz-adv-x="276" unicode="‘"/><glyph d="M123 727q36 0 55-22t20-63q0-59-26-109T78 422l-44 41q37 38 55 69t22 67q-30 6-43 21t-13 42q0 28 17 46t51 19z" horiz-adv-x="235" unicode="’"/><glyph d="M135 128q36 0 55-22t20-63q0-59-26-108T90-177l-44 41q37 38 55 69t22 67Q93 6 80 21T67 63q0 28 17 46t51 19z" horiz-adv-x="276" unicode="‚"/><glyph d="M375 728l44-41q-37-38-56-69t-21-67q30-6 43-21t13-42q0-28-18-47t-50-18q-36 0-56 22t-19 63q0 59 25 108t95 112zm-189 0l44-41q-37-38-56-69t-21-67q30-6 43-21t13-42q0-28-18-47t-50-18q-36 0-56 22t-19 63q0 59 25 108t95 112z" horiz-adv-x="466" unicode="“"/><glyph d="M324 727q36 0 55-22t20-63q0-59-26-109t-94-111l-44 41q37 38 55 69t22 67q-30 6-43 21t-13 42q0 28 17 46t51 19zm-189 0q36 0 55-22t20-63q0-59-26-109T90 422l-44 41q37 38 55 69t22 67q-30 6-43 21t-13 42q0 28 17 46t51 19z" horiz-adv-x="466" unicode="”"/><glyph d="M135 128q36 0 55-22t20-63q0-59-26-108T90-177l-44 41q37 38 55 69t22 67Q93 6 80 21T67 63q0 28 17 46t51 19zm189 0q36 0 55-22t20-63q0-59-26-108t-94-112l-44 41q37 38 55 69t22 67q-30 6-43 21t-13 42q0 28 17 46t51 19z" horiz-adv-x="466" unicode="„"/><glyph d="M232 708h125V558h164V458H357V0H232v458H67v100h165z" horiz-adv-x="589" unicode="†"/><glyph d="M232 708h125V558h164V458H357V331h164V231H357V0H232v231H67v100h165v127H67v100h165z" horiz-adv-x="589" unicode="‡"/><glyph d="M187 458q122 0 122-121 0-119-122-119-121 0-121 119 0 56 28 88t93 33z" horiz-adv-x="375" unicode="•"/><glyph d="M436 140q40 0 57-21t18-54q0-34-18-55t-57-20q-76 0-76 75t76 75zm293 0q40 0 57-21t18-54q0-34-18-55t-57-20q-76 0-76 75t76 75zm-587 0q40 0 57-21t18-54q0-34-18-55t-57-20q-76 0-76 75t76 75z" horiz-adv-x="871" unicode="…"/><glyph d="M351 723q66 0 116-28t78-78 28-109q0-62-28-112t-78-77-116-27q-67 0-118 27t-78 77-27 112q0 61 27 110t78 77 118 28zm467-14h116L515 0H400zm-466-85q-52 0-79-33t-26-83q0-52 26-84t79-32q51 0 76 32t26 84q0 51-26 83t-76 33zm637-204q66 0 116-28t78-78 28-109q0-62-28-112t-78-77-116-27q-67 0-118 27t-78 77-27 112q0 61 27 110t78 77 118 28zm492 0q66 0 116-28t78-78 28-109q0-62-28-112t-78-77-116-27q-67 0-118 27t-78 77-27 112q0 61 27 110t78 77 118 28zm-491-99q-52 0-79-33t-26-83q0-52 26-84t79-32q51 0 76 32t26 84q0 51-26 83t-76 33zm492 0q-52 0-79-33t-26-83q0-52 26-84t79-32q51 0 76 32t26 84q0 51-26 83t-76 33z" horiz-adv-x="1830" unicode="‰"/><glyph d="M218 534l55-47-110-143 110-144-55-46L71 319v48z" horiz-adv-x="345" unicode="‹"/><glyph d="M126 534l147-167v-48h1L126 154l-54 46 109 144L71 487z" horiz-adv-x="345" unicode="›"/><glyph d="M282 709h116L-21 0h-115z" horiz-adv-x="234" unicode="⁄"/><glyph d="M270 722q114 0 176-72t62-201q0-129-62-201t-176-71q-113 0-175 71T33 449q0 129 62 201t175 72zm1-100q-63 0-91-43t-27-130q0-87 27-130t91-42q63 0 90 42t27 130q0 88-27 130t-90 43z" horiz-adv-x="540" unicode="⁰"/><glyph d="M216 708h125L178 392h133v122h115V392h69v-98h-69V191H312v103H46v87z" horiz-adv-x="540" unicode="⁴"/><glyph d="M105 708h344v-98H218V509q38 13 93 13 75 0 123-46t49-120q0-83-61-131t-164-48q-68 0-116 19t-86 59l65 70q35-27 64-38t76-11q45 0 72 20t28 58q0 35-23 55t-62 20q-51 0-94-20h-77z" horiz-adv-x="540" unicode="⁵"/><glyph d="M311 722q79 0 135-34l-42-81q-42 22-90 22-121 0-138-130 27 20 59 29t74 9q77 0 126-46t50-119q0-56-26-101t-73-69-112-25q-110 0-165 66T55 424q0 136 67 217t189 81zm-29-275q-62 0-107-40 1-70 24-102t76-31q45 0 68 24t23 71q0 39-22 58t-62 20z" horiz-adv-x="540" unicode="⁶"/><glyph d="M72 708h397v-93q-84-87-131-196t-52-228H152q19 126 63 227t117 191H72z" horiz-adv-x="540" unicode="⁷"/><glyph d="M270 722q86 0 139-36t54-99q0-35-21-67t-61-54q55-22 81-55t26-83q0-41-27-76t-77-55-117-20q-66 0-115 20t-75 54-26 75q0 48 26 78t78 57q-41 21-60 49t-19 72q0 40 25 72t69 50 100 18zm1-86q-34 0-56-15t-21-42q0-48 71-72l26-9q55 36 55 81 0 25-20 41t-55 16zm-29-209q-34-15-52-38t-17-50q0-35 26-53t72-17q44 0 70 18t27 49q0 27-20 42t-69 35z" horiz-adv-x="540" unicode="⁸"/><glyph d="M269 722q107 0 161-64t55-178q0-144-93-222t-273-77v97q108 0 170 32t74 96q-55-39-133-39-48 0-88 20t-64 57-23 88q0 54 25 97t74 68 115 25zm-2-95q-45 0-69-25t-24-67q0-39 23-59t63-20q60 0 105 39-2 72-24 102t-74 30z" horiz-adv-x="540" unicode="⁹"/><glyph d="M222 627h97V526h101v-89H319V335h-97v102H120v89h102z" horiz-adv-x="540" unicode="⁺"/><glyph d="M120 526h300v-89H120z" horiz-adv-x="540" unicode="⁻"/><glyph d="M120 611h300v-90H120zm0-159h300v-89H120z" horiz-adv-x="540" unicode="⁼"/><glyph d="M311 811l69-45q-47-72-73-148t-26-169q0-92 26-168t73-148l-69-45Q160 264 160 449q0 186 151 362z" horiz-adv-x="540" unicode="⁽"/><glyph d="M230 811q150-175 150-362 0-102-42-193T230 88l-70 45q47 72 73 148t26 168q0 93-26 169t-73 148z" horiz-adv-x="540" unicode="⁾"/><glyph d="M270 401q114 0 176-72t62-201q0-129-62-200t-176-72q-113 0-175 72T33 128q0 129 62 201t175 72zm1-100q-63 0-91-43t-27-130q0-87 27-129t91-43q63 0 90 43t27 129q0 88-27 130t-90 43z" horiz-adv-x="540" unicode="₀"/><glyph d="M255 387h107V-32h108v-98H101v97h143v300l-129-56-45 85z" horiz-adv-x="540" unicode="₁"/><glyph d="M265 401q62 0 106-22t68-59 23-80q0-50-19-86t-64-76T237-32h239v-98H81v91l42 34q102 82 142 117t58 61 18 55q0 35-23 55t-63 20q-36 0-64-14t-57-43l-71 61q40 46 87 70t115 24z" horiz-adv-x="540" unicode="₂"/><glyph d="M271 401q60 0 103-19t66-51 23-72q0-96-94-119v-1q49-7 80-37t31-84q0-46-25-82t-75-58-120-22q-66 0-114 20T59-66l63 70q34-27 64-38t75-12q43 0 70 18t28 53q0 33-21 48t-62 16h-91v93h78q41 0 61 14t21 47q0 31-21 46t-65 15q-66 0-124-44l-60 68q42 37 90 55t106 18z" horiz-adv-x="540" unicode="₃"/><glyph d="M216 387h125L178 71h133v122h115V71h69v-98h-69v-103H312v103H46v87z" horiz-adv-x="540" unicode="₄"/><glyph d="M105 387h344v-98H218V188q38 13 93 13 75 0 123-46t49-120q0-83-61-131t-164-48q-68 0-116 20T56-66l65 70q35-27 64-38t76-11q45 0 72 21t28 57q0 35-23 55t-62 20q-51 0-94-20h-77z" horiz-adv-x="540" unicode="₅"/><glyph d="M311 401q79 0 135-34l-42-81q-42 22-90 22-121 0-138-130 27 20 59 29t74 9q77 0 126-46t50-119q0-56-26-100t-73-70-112-25q-110 0-165 66T55 103q0 136 67 217t189 81zm-29-275q-62 0-107-40 1-70 24-101t76-32q45 0 68 25t23 70q0 39-22 58t-62 20z" horiz-adv-x="540" unicode="₆"/><glyph d="M72 387h397v-93q-84-87-131-196t-52-228H152Q171-4 215 97t117 191H72z" horiz-adv-x="540" unicode="₇"/><glyph d="M270 401q86 0 139-36t54-99q0-35-21-67t-61-54q55-22 81-55t26-83q0-41-27-75t-77-55-117-21q-66 0-115 20T77-70 51 5q0 48 26 78t78 57q-41 21-60 49t-19 72q0 40 25 72t69 50 100 18zm1-86q-34 0-56-15t-21-42q0-48 71-72l26-9q55 36 55 81 0 25-20 41t-55 16zm-29-209q-34-15-52-38t-17-50q0-35 26-52t72-18q44 0 70 18t27 49q0 27-20 42t-69 35z" horiz-adv-x="540" unicode="₈"/><glyph d="M269 401q107 0 161-64t55-178q0-144-93-221t-273-78v97q108 0 170 32t74 96q-55-39-133-39-48 0-88 20t-64 57-23 88q0 54 25 97t74 68 115 25zm-2-95q-45 0-69-25t-24-67q0-39 23-59t63-20q60 0 105 39-2 72-24 102t-74 30z" horiz-adv-x="540" unicode="₉"/><glyph d="M222 286h97V185h101V96H319V-6h-97V96H120v89h102z" horiz-adv-x="540" unicode="₊"/><glyph d="M120 185h300V96H120z" horiz-adv-x="540" unicode="₋"/><glyph d="M120 270h300v-90H120zm0-159h300V22H120z" horiz-adv-x="540" unicode="₌"/><glyph d="M311 490l69-45q-47-72-73-148t-26-169q0-92 26-168t73-148l-69-45Q160-57 160 128q0 186 151 362z" horiz-adv-x="540" unicode="₍"/><glyph d="M230 490q150-175 150-362 0-102-42-192T230-233l-70 45q47 72 73 148t26 168q0 93-26 169t-73 148z" horiz-adv-x="540" unicode="₎"/><glyph d="M381 729q65 0 122-24t99-65l-67-83q-31 28-71 44t-79 16q-133 0-168-142h265v-88H205q-1-10-1-31v-21h229v-88H213q16-74 56-112t114-38q41 0 79 17t69 46l71-84q-40-43-98-69T379-18q-122 0-196 68T87 247H2v88h77v21q0 21 1 31H6v88h84q25 119 99 186t192 68z" unicode="€"/><glyph d="M49 708h513v-85H403q40-25 58-64h101v-85h-83v-3q0-150-143-205L505 0H355L215 240H49v97h157q138 0 139 137H49v85h276q-18 29-49 44t-73 15H49z" unicode="₹"/><glyph d="M136 708h128V499l205 89 35-81-240-105v-44l205 89 35-81-240-104V113q75 0 117 15t61 47 18 85l117 1q0-131-75-196T271 0H136v206l-70-30-35 81 105 46v44l-70-31-35 81 105 46z" unicode="₺"/><glyph d="M99 708h228q113 0 182-55t69-159q0-107-70-158t-182-50H226v-63h208v-88H226V0H99v135H43v88h56v63H43v88h56zm128-103V374h91q60 0 95 28t36 91q0 57-36 84t-95 28z" unicode="₽"/><glyph d="M271 726q65 0 102-36t38-97q0-82-46-148T225 304V161q0-74 67-74 27 0 46 6l18-92q-38-15-91-15-78 0-122 42t-43 121v70l-57-39-26 53q33 22 83 58v258q0 88 50 132t121 45zm3-69q-49 0-49-75V393q50 48 71 95t22 104q0 65-44 65z" horiz-adv-x="449" unicode="ℓ"/><glyph d="M466 726q119 0 205-48t132-133 46-191q0-107-46-192T671 30 466-18q-120 0-207 48T126 162 81 354q0 107 45 191t133 133 207 48zm0-82q-147 0-220-79t-72-211q0-132 72-211t220-79q145 0 217 79t73 211q0 131-73 210t-217 80zm-149-87h160q79 0 124-35t46-104q0-71-48-109t-123-37h-69V154h-90zm90-74V346h67q83 0 83 71 0 66-83 66z" horiz-adv-x="931" unicode="℗"/><glyph d="M222 718q105 0 164-45l-44-74q-51 31-113 31-67 0-67-35 0-15 7-23t28-15 63-14q131-27 131-128 0-71-52-108t-138-36q-100 0-170 48l45 75q29-17 55-25t59-8q80 0 80 41 0 16-7 25t-25 15-57 15q-68 15-100 46t-32 84q0 62 46 96t127 35zm225-10h164l89-285h2l95 285h163V283H849l3 304h-1L742 283h-87L550 587h-1l3-304H447z" horiz-adv-x="1018" unicode="℠"/><glyph d="M25 708h188v-51h-63V492H87v165H25zm206 0h93l48-140h2l50 140h90V492h-63l2 152h-2l-56-152h-49l-56 152h-2l2-152h-59z" horiz-adv-x="568" unicode="™"/><glyph d="M396 727q108 0 187-46t123-129 43-189q0-91-35-155t-93-102h127V0H452v107h5q76 21 117 86t41 161q0 119-56 189t-163 71q-107 0-163-71t-55-189q0-96 41-162t121-86V0H44v107h128q-59 37-94 101T44 363q0 106 42 189t122 129 188 46z" horiz-adv-x="792" unicode="Ω"/><glyph d="M450 683q138 0 223-52t122-131 37-170H215q-5 0-5-5V149q0-20 7-28 38-48 97-74t135-25q76 0 135 28t114 80h67Q706 60 636 28T452-3Q335-3 248 42T115 164 70 332q0 91 46 172t133 130 201 49zm-3-24q-60 0-120-24t-108-73q-9-9-9-26V355q0-5 5-5h472q5 0 5 5v180q0 13-10 25-43 54-108 76t-127 23z" horiz-adv-x="902" unicode="℮"/><glyph d="M178 727q122 0 213-50t139-141 49-215q0-154-70-245T303-14q-85 0-147 33t-93 92-32 136q0 77 31 132t88 85 128 29q94 0 163-58-20 97-90 149t-183 50zm114-332q-62 0-96-38t-34-113q0-73 35-112t105-39q76 0 110 53t35 163v12q-34 36-70 55t-85 19z" unicode="∂"/><glyph d="M269 708h135L675 0H-3zm67-134L170 103h328z" horiz-adv-x="673" unicode="∆"/><glyph d="M27 708h660V608h-92v-728H471v728H246v-728H122v728H27z" horiz-adv-x="715" unicode="∏"/><glyph d="M52 708h502V603H208l185-280v-46h1L185-11h382v-109H44v110l217 308L52 605z" unicode="∑"/><glyph d="M105 340h400V240H105z" unicode="−"/><glyph d="M282 709h116L-21 0h-115z" horiz-adv-x="234" unicode="∕"/><glyph d="M305 423q40 0 57-21t18-54q0-34-18-55t-57-20q-76 0-76 75t76 75z" unicode="∙"/><glyph d="M459 708h129L377-120H217L90 219H22v104h159L293 12z" unicode="√"/><glyph d="M257 531q62 0 108-30t86-93q38 63 83 93t113 30q65 0 110-29t67-79 22-108q0-60-23-109t-68-77-111-29q-62 0-107 29t-86 91q-38-60-86-90t-111-30q-66 0-112 29t-68 78-22 109q0 60 23 108t69 78 113 29zm12-96q-45 0-72-30t-27-89q0-59 26-89t72-30q46 0 74 28t63 96q-55 114-136 114zm363-1q-32 0-54-14t-38-39-43-76q55-109 132-109 46 0 72 30t27 89q0 59-26 89t-70 30z" horiz-adv-x="900" unicode="∞"/><glyph d="M418 727q39 0 72-11l-22-92q-18 4-33 4-38 0-53-23t-14-70V-69q-2-91-45-140t-130-49q-39 0-73 11l22 91q15-3 33-3 38 0 53 23t15 70v604q1 91 44 140t131 49z" unicode="∫"/><glyph d="M226 444q28 0 50-9t50-24q23-13 37-19t32-6q22 0 41 13t46 45l58-36q-54-104-144-104-28 0-50 7t-49 25q-21 13-37 19t-34 7q-22 0-42-13t-45-45l-58 37q54 103 145 103zm0-176q28 0 50-9t50-24q23-13 37-19t32-6q22 0 41 13t46 45l58-36q-54-104-144-104-28 0-50 7t-49 25q-21 13-37 19t-34 7q-22 0-42-13t-45-45l-58 37q54 103 145 103z" unicode="≈"/><glyph d="M431 586l83-47-59-99h56V340H395l-60-100h176V140H276L180-20 97 27l68 113h-54v100h113l60 100H111v100h233z" unicode="≠"/><glyph d="M448 638l51-79-274-175 273-174-51-80-336 204v96zM105 100h400V0H105z" unicode="≤"/><glyph d="M105 100h400V0H105zm57 538l337-208v-96L163 130l-51 80 273 174-274 175z" unicode="≥"/><glyph d="M246 708h117l203-354L363 0H246L44 354zm57-99L166 354l137-254 141 254z" unicode="◊"/><glyph d="M323 722q99 0 187-43 51 43 140 43 56 0 104-17l-30-89q-24 7-55 7-87 0-87-84v-24h123v-95H582V0H457v420H225V0H100v420H15v80l85 15v28q0 84 56 131t167 48zm2-97q-53 0-77-21t-23-65v-24h232v28q0 24 5 51-69 31-137 31z" horiz-adv-x="714" unicode="ﬀ"/><glyph d="M323 722q115 0 218-59l-42-87q-89 49-174 49-53 0-77-21t-23-65v-24h335V0H435v420H225V0H100v420H15v80l85 15v28q0 84 56 131t167 48z" horiz-adv-x="638" unicode="ﬁ"/><glyph d="M337 722q120 0 223-46V0H435v619q-52 7-98 6-61 0-87-21t-25-65v-24h123v-95H225V0H100v420H15v80l85 15v28q0 85 58 132t179 47z" horiz-adv-x="638" unicode="ﬂ"/><glyph d="M323 722q101 0 193-45 57 45 164 45 115 0 218-59l-42-87q-89 49-174 49-53 0-77-21t-23-65v-24h335V0H792v420H582V0H457v420H225V0H100v420H15v80l85 15v28q0 84 56 131t167 48zm2-97q-53 0-77-21t-23-65v-24h232v28q0 27 6 51-69 31-138 31z" horiz-adv-x="995" unicode="ﬃ"/><glyph d="M323 722q104 0 194-46 60 46 177 46 120 0 223-46V0H792v619q-52 7-98 6-61 0-87-21t-25-65v-24h123v-95H582V0H457v420H225V0H100v420H15v80l85 15v28q0 84 56 131t167 48zm2-97q-53 0-77-21t-23-65v-24h232v28q0 27 6 51-69 31-138 31z" horiz-adv-x="995" unicode="ﬄ"/></font>
</defs>
</svg>
