<svg xmlns="http://www.w3.org/2000/svg"><defs><font horiz-adv-x="610" id="web"><font-face alphabetic="0" ascent="992" descent="-290" panose-1="2 11 2 5 2 2 2 2 2 3"/><glyph horiz-adv-x="240"/><glyph d="M133 708h22V357l-2-157h-18l-2 157zm11-665q24 0 24-24 0-23-24-23t-24 23q0 24 24 24z" horiz-adv-x="288" unicode="!"/><glyph d="M90 708h22l-2-228H90zm145 0h22l-2-228h-20z" horiz-adv-x="347" unicode="&quot;"/><glyph d="M307 648h20l-49-186h238l49 186h20l-49-186h118v-18H532l-62-238h131v-20H465L416 0h-20l49 186H207L158 0h-20l49 186H70v20h122l62 238H123v18h135zm-33-204l-62-238h238l62 238z" horiz-adv-x="724" unicode="#"/><glyph d="M303 752h20v-71q110-3 193-60l-11-14q-85 54-186 54-82 0-132-35t-50-97q0-59 40-89t133-53q72-18 116-39t69-56 24-90q0-77-54-122T323 34v-78h-20v78q-67 1-118 20t-93 54l13 16q46-36 94-53t108-16q86 0 138 38t52 109q0 50-23 81t-64 50-104 35q-68 16-109 35t-61 49-21 77q0 68 51 108t137 44z" unicode="$"/><glyph d="M318 721q64 0 109-30t67-76 23-101q0-54-23-101t-67-76-109-29q-64 0-109 29t-68 76-22 101q0 54 22 101t68 76 109 30zm488-12h24L412 0h-24zm-488-7q-58 0-98-27t-60-71-19-90q0-47 19-90t60-70 98-27q58 0 98 27t59 70 20 90q0 47-20 90t-59 71-98 27zm585-300q64 0 109-30t67-76 23-101q0-54-23-101t-67-76-109-29q-64 0-109 29t-68 76-22 101q0 54 22 101t68 76 109 30zm0-19q-58 0-98-27t-60-71-19-90q0-47 19-90t60-70 98-27q58 0 98 27t59 70 20 90q0 47-20 90t-59 71-98 27z" horiz-adv-x="1220" unicode="%"/><glyph d="M276 722q48 0 84-20t55-53 20-72q0-48-22-82t-63-60-108-57l257-256q23 38 41 90t27 111l18-2q-8-62-27-117t-46-95L622-1l-14-13L501 93q-40-51-96-79T270-14q-59 0-107 23T87 75 60 176q0 68 36 119t116 87q-55 56-77 93t-22 94q0 69 46 111t117 42zm1-19q-64 0-104-36t-39-98q0-53 19-88t76-90q68 30 106 53t58 55 21 78q0 53-38 89t-99 37zm-52-334q-80-39-112-84T82 177q0-84 52-128T270 6q143 0 218 100z" horiz-adv-x="642" unicode="&amp;"/><glyph d="M90 708h22l-2-228H90z" horiz-adv-x="202" unicode="'"/><glyph d="M249 822l16-10q-80-111-124-219T97 354q0-131 43-238t125-220l-16-10Q163 2 119 108T75 354q0 139 44 246t130 222z" horiz-adv-x="340" unicode="("/><glyph d="M91 822q85-115 129-222t45-246q0-139-44-246T91-114l-16 10Q156 9 199 116t44 238q0 131-44 239T75 812z" horiz-adv-x="340" unicode=")"/><glyph d="M183 708h19l-2-126 120 41 6-17-121-37 77-103-15-11-74 105-74-105-15 11 77 103-121 37 6 17 119-41z" horiz-adv-x="386" unicode="*"/><glyph d="M295 488h20V298h190v-19H315V88h-20v191H105v19h190z" unicode="+"/><glyph d="M118 43q25 0 25-31 0-44-16-82t-57-86l-10 8q35 44 47 78t15 70Q95 0 95 21q0 10 6 16t17 6z" horiz-adv-x="239" unicode=","/><glyph d="M50 303h205v-19H50z" horiz-adv-x="305" unicode="-"/><glyph d="M120 43q24 0 24-24 0-23-24-23T96 19q0 24 24 24z" horiz-adv-x="240" unicode="."/><glyph d="M359 779h22L161-75h-22z" horiz-adv-x="520" unicode="/"/><glyph d="M305 722q129 0 192-99t63-269q0-170-63-269T305-14q-129 0-192 99T50 354q0 170 63 269t192 99zm0-19q-119 0-176-94T72 354q0-161 57-255T305 5q119 0 176 94t57 255q0 161-57 255t-176 94z" unicode="0"/><glyph d="M327 708h18V20h162V0H128v19l195 1v661L113 563l-11 18z" unicode="1"/><glyph d="M293 722q68 0 116-25t73-68 25-93q0-74-35-138T357 255 101 20h436V0H71v19q181 158 264 241t117 144 33 131q0 74-51 121t-142 47q-66 0-115-22t-97-68l-13 13q54 50 104 73t122 23z" unicode="2"/><glyph d="M292 722q98 0 153-49t55-129q0-77-40-117t-96-51v-2q63-5 110-48t48-129q0-98-64-155T282-14q-80 0-134 21T47 75l13 12q48-45 98-64T282 5q104 0 161 50t57 140q0 88-55 128t-138 41H203v19h92q80 0 131 41t52 120q0 75-49 117t-138 42q-65 0-114-17t-96-55l-12 13q48 41 99 59t124 19z" unicode="3"/><glyph d="M305 708h24L65 221h351v226h22V221h132v-20H438V0h-22v201H40v18z" unicode="4"/><glyph d="M111 708h395v-19H133V391q80 40 180 40 107 0 166-56t59-151q0-107-65-173T286-14q-71 0-124 21T60 75l14 12q50-44 99-63T286 5q111 0 170 59t60 160q0 90-54 139t-148 49q-57 0-99-10t-85-33h-19z" unicode="5"/><glyph d="M341 722q50 0 86-12t73-35l-11-15q-34 22-68 32t-80 11q-125 0-190-102T83 330q45 57 103 90t141 34q104 0 165-59t62-160q0-113-64-181T311-14q-129 0-190 87T61 308q0 195 71 304t209 110zm-14-287q-81 0-140-36T83 298q2-138 54-216T311 5q107 0 164 62t57 167q0 95-55 148t-150 53z" unicode="6"/><glyph d="M51 707h518v-18Q416 520 335 355T232 0h-22q25 184 103 351t229 336H51z" unicode="7"/><glyph d="M305 722q57 0 106-20t78-59 29-93q0-63-35-104t-116-80q71-24 111-48t58-58 19-83q0-58-31-101T436 9 304-14q-117 0-183 52T55 178q0 77 46 127t144 82q-84 30-119 66t-34 98q0 52 29 90t77 60 107 21zm0-19q-81 0-136-42t-55-111q0-39 14-66t49-47 98-42l70-22q81 39 116 78t35 98q0 72-54 113t-137 41zm-34-325q-105-33-150-79T77 178q0-80 60-127T304 5q104 0 166 46t63 125q0 51-21 82t-63 54-120 48z" unicode="8"/><glyph d="M303 722q127 0 186-82t60-240q0-127-48-221T362 36 144-14V6q118 0 203 46t131 129 49 195q-36-55-96-89t-143-33q-68 0-121 27t-82 78-29 124q0 70 28 124t84 84 135 31zm0-19q-109 0-167-61T78 484q0-101 57-156t153-55q81 0 141 36t98 99q-2 147-54 221t-170 74z" unicode="9"/><glyph d="M120 43q24 0 24-24 0-23-24-23T96 19q0 24 24 24zm3 397q24 0 24-24 0-23-24-23t-24 23q0 24 24 24z" horiz-adv-x="243" unicode=":"/><glyph d="M130 440q24 0 24-24 0-23-24-23t-24 23q0 24 24 24zM118 43q25 0 25-31 0-44-16-82t-57-86l-10 8q35 44 47 78t15 70Q95 0 95 21q0 10 6 16t17 6z" horiz-adv-x="250" unicode=";"/><glyph d="M489 512l10-17-364-211L499 73l-10-17-378 218v20z" unicode="&lt;"/><glyph d="M105 203h400v-19H105zm0 200h400v-19H105z" unicode="="/><glyph d="M121 512l378-218v-20L121 56l-10 17 364 211-364 211z" unicode="&gt;"/><glyph d="M231 722q56 0 98-22t65-61 23-87q0-45-16-79t-38-57-59-53q-43-36-64-61t-20-61v-41h-20v42q0 41 21 68t68 66q35 28 56 50t35 53 15 72q0 69-45 110t-120 42q-66 0-112-25t-83-65l-15 12q43 47 91 72t120 25zM210 43q24 0 24-24 0-23-24-23t-24 23q0 24 24 24z" horiz-adv-x="467" unicode="?"/><glyph d="M488 677q118 0 201-41t127-111 43-159q0-135-43-201t-108-65q-55 0-81 35t-25 78q-22-49-67-80t-104-31q-67 0-105 44t-38 121q0 106 57 171t160 66q78 0 154-44l-36-209q-3-16-3-32 0-45 23-74t65-28q55 0 92 61t38 187q0 85-40 151T679 620t-191 38q-111 0-194-50T166 475t-44-183q0-107 43-186T291-15t196-43q59 0 104 10t90 24l6-17q-97-36-201-36-117 0-204 45T148 96t-47 196q0 104 47 192t135 141 205 52zm14-192q-95 0-144-63t-49-154q0-68 32-108t94-40q48 0 84 24t59 62 30 77l29 167q-30 15-62 25t-73 10z" horiz-adv-x="960" unicode="@"/><glyph d="M305 708h30L625 0h-24l-83 203H120L39 0H15zm15-14L128 222h382z" horiz-adv-x="640" unicode="A"/><glyph d="M105 708h218q87 0 140-40t54-127q0-66-41-110t-96-54v-2q77-9 123-56t47-127q0-99-62-146T332 0H105zm22-19V383h180q80 0 134 40t54 118q0 78-48 113t-127 35zm0-325V19h195q92 0 149 41t57 132q0 82-55 127t-147 45z" horiz-adv-x="604" unicode="B"/><glyph d="M401 722q131 0 225-82l-14-15q-90 78-211 78-101 0-173-45T119 534 82 354q0-101 36-180T227 51 401 6q65 0 125 24t104 68l14-15q-47-47-110-72T401-14q-108 0-185 46T99 162 60 354q0 108 39 191t117 130 185 47z" horiz-adv-x="669" unicode="C"/><glyph d="M105 708h201q171 0 262-89t92-265q0-176-92-265T306 0H105zm22-19V19h174q163 0 250 84t87 251q0 169-87 252t-250 83z" horiz-adv-x="720" unicode="D"/><glyph d="M105 708h402v-19H126V377h338v-19H126V19h397V0H105z" horiz-adv-x="555" unicode="E"/><glyph d="M105 708h404v-19H127V377h345v-19H127V0h-22z" horiz-adv-x="530" unicode="F"/><glyph d="M409 722q131 0 225-82l-14-15q-90 78-211 78-103 0-177-45T120 534 82 354q0-103 37-182T228 49 404 5q69 0 122 15t110 42v249H442v19h215V51Q593 19 537 2T404-14q-111 0-189 46T99 162 60 354q0 109 41 192t119 129 189 47z" horiz-adv-x="752" unicode="G"/><glyph d="M105 708h22V376h470v332h22V0h-22v356H127V0h-22z" horiz-adv-x="724" unicode="H"/><glyph d="M63 708h198v-19h-88V19h88V0H63v19h88v670H63z" horiz-adv-x="324" unicode="I"/><glyph d="M288 708h22V187q0-91-44-146T129-14Q65-14 10 16l9 16q24-13 53-20t57-7q81 0 120 50t39 133z" horiz-adv-x="405" unicode="J"/><glyph d="M105 708h22V338l360 370h30L204 387 535 0h-29L188 371l-61-63V0h-22z" horiz-adv-x="553" unicode="K"/><glyph d="M105 708h22V20h352V0H105z" horiz-adv-x="484" unicode="L"/><glyph d="M105 708h37L450 32h2l306 676h37V0h-22v683h-2L460 0h-18L129 683h-2V0h-22z" horiz-adv-x="900" unicode="M"/><glyph d="M105 708h28L643 29h2v679h22V0h-29L129 680h-2V0h-22z" horiz-adv-x="772" unicode="N"/><glyph d="M404 722q109 0 186-47t118-130 40-191q0-108-40-192T590 32 404-14q-109 0-187 46T100 162 60 354q0 108 40 191t117 130 187 47zm0-19q-102 0-175-45T119 535 82 354q0-102 37-181T229 49 404 5q102 0 174 44t110 124 38 181q0 102-38 181T578 658t-174 45z" horiz-adv-x="808" unicode="O"/><glyph d="M105 708h210q98 0 165-52t68-169q0-70-32-120t-85-74-112-25H127V0h-22zm22-19V287h193q55 0 102 23t75 68 29 109q0 106-62 154t-149 48z" horiz-adv-x="584" unicode="P"/><glyph d="M404 722q109 0 186-47t118-130 40-191q0-106-39-189T596 36 417-14q19-51 52-82t89-46 148-15v-19q-97 0-158 18t-96 53-57 91q-106 2-182 49T99 164 60 354q0 108 40 191t117 130 187 47zm0-19q-102 0-175-45T119 535 82 354q0-102 37-181T229 49 404 5q102 0 174 44t110 124 38 181q0 102-38 181T578 658t-174 45z" horiz-adv-x="808" unicode="Q"/><glyph d="M105 708h211q57 0 106-23t81-70 31-119q0-61-26-106t-69-70-94-31L541 0h-25L322 288H127V0h-22zm22-19V307h188q54 0 99 22t71 64 27 103q0 65-28 108t-73 64-95 21z" horiz-adv-x="594" unicode="R"/><glyph d="M278 722q110 0 192-63l-12-14q-39 29-82 43t-99 15q-86 0-139-41T85 549q0-46 20-76t58-48 102-36q74-21 121-45t73-64 27-101q0-91-61-142T267-14Q131-14 36 71l13 14q49-41 100-60T266 6q86 0 142 45t56 128q0 81-50 122t-151 68q-70 19-113 40t-64 55-22 85q0 80 58 126t156 47z" horiz-adv-x="534" unicode="S"/><glyph d="M5 708h504v-20H268V0h-22v688H5z" horiz-adv-x="514" unicode="T"/><glyph d="M95 708h22V253Q117 6 365 6t248 247v455h22V252q0-266-270-266T95 252z" horiz-adv-x="730" unicode="U"/><glyph d="M15 708h23L298 19h2l260 689h23L315 0h-33z" horiz-adv-x="598" unicode="V"/><glyph d="M25 708h23L252 20h2l201 688h33L693 20h2l204 688h23L710 0h-33L472 687h-2L269 0h-32z" horiz-adv-x="947" unicode="W"/><glyph d="M49 708h26l213-320 214 320h25L301 371 551 0h-26L287 354 51 0H25l249 372z" horiz-adv-x="576" unicode="X"/><glyph d="M0 708h25l229-378h2l227 378h25L265 308V0h-22v310z" horiz-adv-x="508" unicode="Y"/><glyph d="M55 708h461v-26L63 19h465V0H42v24l454 665H55z" horiz-adv-x="581" unicode="Z"/><glyph d="M82 799h175v-20H103V-89h154v-20H82z" horiz-adv-x="340" unicode="["/><glyph d="M139 779h22L381-75h-22z" horiz-adv-x="520" unicode="\"/><glyph d="M83 799h175v-908H83v20h154v868H83z" horiz-adv-x="340" unicode="]"/><glyph d="M295 708h22l153-203-14-11-150 196-151-196-14 11z" unicode="^"/><glyph d="M60-108h490v-19H60z" unicode="_"/><glyph d="M44 722l141-116-11-13L30 704z" horiz-adv-x="215" unicode="`"/><glyph d="M247 506q176 0 176-178V105q0-57 5-105h-20q-5 48-5 94h-2q-25-53-76-81T205-15q-75 0-116 37T48 128q0 63 31 99t95 51 170 15q37 0 57-1v36q0 159-154 159-48 0-85-12t-72-35l-10 15q72 51 167 51zm99-232q-99 0-158-13t-89-44-29-89q0-60 35-92T205 4q66 0 110 27t65 65 21 72v105z" horiz-adv-x="509" unicode="a"/><glyph d="M100 708h22V380h2q25 60 78 93t120 33q70 0 119-34t76-93 26-134q0-74-27-133t-79-93-122-33q-64 0-110 24t-83 71l-4-81h-18zm223-221q-61 0-107-28t-70-74-24-99V115q40-57 86-84T315 5q65 0 111 32t71 86 24 122q0 68-23 123t-68 87-107 32z" horiz-adv-x="602" unicode="b"/><glyph d="M289 506q47 0 89-15t71-39l-12-14q-58 49-148 49-101 0-155-67T81 246q0-107 54-174T289 5q81 0 147 49l11-14q-32-25-73-40t-85-14q-109 0-170 71T59 246q0 118 60 189t170 71z" horiz-adv-x="492" unicode="c"/><glyph d="M480 708h22V105q0-57 5-105h-21q-5 48-5 110h-2q-29-64-80-94T283-14q-70 0-121 33t-77 92-26 136q0 74 28 133t79 92 120 34q66 0 112-26t82-73zM286 487q-62 0-109-32t-71-87-25-121q0-69 23-124t70-87T283 5q60 0 105 27t68 73 24 101v168q-37 57-83 85t-111 28z" horiz-adv-x="601" unicode="d"/><glyph d="M277 506q101 0 155-68t54-180v-16H81q2-103 53-170T283 5q51 0 90 14t79 41l11-15q-40-28-83-44t-97-15q-108 0-166 73T59 251q0 75 26 132t76 90 116 33zm-1-19q-61 0-105-31t-67-82-23-115h384q-2 107-50 167t-139 61z" horiz-adv-x="544" unicode="e"/><glyph d="M248 722q37 0 66-7l-4-17q-32 6-61 6-56 0-86-35t-29-98v-79h134v-19H134V0h-22v473H15v14l97 5v78q0 74 35 113t101 39z" horiz-adv-x="288" unicode="f"/><glyph d="M240 502q25 0 41-3t38-7h159v-19l-128 3q35-17 58-55t23-93q0-84-50-130t-143-45q-51 0-88-18t-37-45q0-51 105-51 143 0 201-33t58-98q0-78-66-122t-183-44q-100 0-152 37T25-117q0 47 28 82t101 63Q92 44 92 90q0 25 21 43t62 29q-59 12-92 54T51 328q0 80 50 127t139 47zm0-19q-79 0-123-42T73 328q0-76 42-116t125-40q84 0 126 40t43 116q0 71-45 113t-124 42zM182 21Q107-5 77-38t-30-79q0-59 45-90t136-32q109 0 168 38t59 109q0 40-24 65T351 9 182 21z" horiz-adv-x="504" unicode="g"/><glyph d="M100 708h22V385h2q22 52 70 86t119 35q93 0 138-56t45-143V0h-22v305q0 78-39 130t-122 52q-56 0-100-26t-67-69-24-96V0h-22z" horiz-adv-x="586" unicode="h"/><glyph d="M100 492h22V0h-22zm11 216q24 0 24-24 0-23-24-23t-24 23q0 24 24 24z" horiz-adv-x="222" unicode="i"/><glyph d="M100 492h22v-619q0-68-28-99t-84-32q-14 0-29 3l3 18q14-2 26-2 48 0 69 27t21 85zm11 216q24 0 24-24 0-23-24-23t-24 23q0 24 24 24z" horiz-adv-x="222" unicode="j"/><glyph d="M100 708h22V248l267 244h31L195 287 450 0h-30L179 273l-57-53V0h-22z" horiz-adv-x="455" unicode="k"/><glyph d="M100 708h22V0h-22z" horiz-adv-x="222" unicode="l"/><glyph d="M303 506q72 0 112-38t53-108h2q19 69 70 107t121 39q86 0 129-55t44-134V0h-22v315q0 44-16 83t-50 64-85 25q-57 0-100-30t-65-78-22-106V0h-21v305q0 76-36 129t-114 53q-54 0-96-26t-64-69-22-96V0H99v387q0 57-5 105h20q5-48 5-110h2q20 56 68 90t114 34z" horiz-adv-x="924" unicode="m"/><glyph d="M312 506q93 0 138-56t45-143V0h-22v305q0 78-39 130t-122 52q-56 0-100-26t-67-69-24-96V0H99v387q0 57-5 105h20q5-48 5-110h2q24 57 72 90t119 34z" horiz-adv-x="585" unicode="n"/><glyph d="M290 507q111 0 172-71t61-189q0-118-61-190T290-14q-110 0-171 71T59 247q0 118 60 189t171 71zm0-19q-101 0-155-67T81 247q0-107 54-175T290 5q102 0 156 66t55 176q0 108-55 174t-156 67z" horiz-adv-x="582" unicode="o"/><glyph d="M321 506q70 0 119-34t76-93 26-134q0-74-27-133t-79-93-122-33q-63 0-110 24t-83 71v-325H99v631q0 57-5 105h20q5-48 5-120h2q25 66 78 100t122 34zm1-19q-61 0-107-28t-70-74-24-99V115q40-57 86-84T314 5q65 0 111 31t71 86 24 123q0 68-23 123t-68 87-107 32z" horiz-adv-x="601" unicode="p"/><glyph d="M286 506q66 0 112-26t82-73l4 85h18v-736h-22v353h-2q-27-63-79-93T283-14q-70 0-121 33t-77 92-26 136q0 74 28 133t79 92 120 34zm0-19q-62 0-109-32t-71-87-25-121q0-69 23-124t69-87T283 5q60 0 105 27t68 73 24 101v168q-37 57-83 85t-111 28z" horiz-adv-x="602" unicode="q"/><glyph d="M290 506q13 0 23-2l-2-18q-10 1-22 1-81 0-125-59t-43-154V0H99v387q0 57-5 105h20q5-48 5-110h2q40 124 169 124z" horiz-adv-x="318" unicode="r"/><glyph d="M199 506q91 0 152-51l-12-15q-58 47-140 47-61 0-97-27t-35-73q0-46 32-72t113-44q82-19 117-53t36-92q0-63-45-102T202-14q-54 0-96 15T30 45l12 14q38-28 73-41t88-13q62 0 101 32t39 88q0 36-13 59t-44 40-87 30q-85 20-120 51t-34 81q0 56 42 88t112 32z" horiz-adv-x="415" unicode="s"/><glyph d="M134 636V492h145v-19H134V100q0-49 23-72t63-23q31 0 58 9l4-17q-27-11-63-11-50 0-79 29t-28 85v373H15v15l97 4v136z" horiz-adv-x="312" unicode="t"/><glyph d="M90 492h22V194q0-82 39-136T270 4q58 0 102 31t68 85 24 116v256h22V105q0-57 5-105h-20q-5 48-5 129h-2q-26-69-75-107T270-15q-91 0-136 57T90 193z" horiz-adv-x="585" unicode="u"/><glyph d="M15 492h24L224 22h2l179 470h24L240 0h-30z" horiz-adv-x="444" unicode="v"/><glyph d="M30 492h23L185 22h2l152 470h31L523 22h2l132 470h23L539 0h-30L355 469h-2L200 0h-30z" horiz-adv-x="710" unicode="w"/><glyph d="M38 492h26l162-217 161 217h26L240 259 441 0h-27L225 243 42 0H16l195 259z" horiz-adv-x="457" unicode="x"/><glyph d="M15 492h23L220 26h1l172 466h23L176-157q-20-53-48-77t-70-24q-24 0-42 7l5 17q17-5 37-5 39 0 62 23t38 67L208-2z" horiz-adv-x="431" unicode="y"/><glyph d="M56 492h310v-22L62 19h316V0H40v21l304 452H56z" horiz-adv-x="418" unicode="z"/><glyph d="M285 799v-21q-52 0-84-31t-32-88V458q0-51-25-76t-70-36v-2q46-11 70-36t25-76V31q0-58 32-88t84-31v-21q-60 0-99 36T147 31v201q0 85-92 101v24q42 7 67 32t25 69v201q0 68 39 104t99 36z" horiz-adv-x="340" unicode="{"/><glyph d="M150 808h22v-908h-22z" horiz-adv-x="322" unicode="|"/><glyph d="M55 799q60 0 99-36t39-104V458q0-44 25-69t67-32v-24q-92-16-92-101V31q0-68-39-104t-99-36v21q52 0 84 31t32 88v201q0 51 24 76t71 36v2q-46 11-71 36t-24 76v201q0 58-32 88t-84 31z" horiz-adv-x="340" unicode="}"/><glyph d="M224 320q21 0 40-7t46-21q24-13 42-20t38-7q27 0 48 11t47 41l12-9q-24-32-50-47t-57-15q-21 0-41 7t-47 22q-27 13-44 19t-34 7q-26 0-50-12t-49-40l-12 9q51 62 111 62z" unicode="~"/><glyph horiz-adv-x="240"/><glyph d="M135 302h18l2-157v-351h-22v351zm9 204q24 0 24-23 0-24-24-24t-24 24q0 23 24 23z" horiz-adv-x="288" unicode="¡"/><glyph d="M331 708h20l-1-94q44-2 83-16t67-38l-12-14q-58 49-148 49-101 0-155-67t-53-174q0-107 54-174t154-67q81 0 147 49l11-14q-67-51-148-54l1-94h-20l1 94q-106 3-164 74t-58 186q0 116 58 186t164 74z" unicode="¢"/><glyph d="M325 722q60 0 104-22t83-64l-15-13q-36 40-76 59t-96 20q-78 0-123-43t-44-114q0-43 12-76t37-79l11-20h202v-19H227q32-66 32-133 0-73-39-122t-98-74v-2h396V0H88v20q72 37 111 81t39 117q0 38-9 70t-25 63H92v19h102q-3 6-21 39t-27 67-9 69q0 78 50 127t138 50z" unicode="£"/><glyph d="M129 506l73-94q41 26 103 26t103-26l73 94 16-12-73-93q54-45 54-132t-55-132l74-93-16-12-73 94q-41-26-103-26t-103 26l-73-94-16 12 74 93q-55 45-55 132 0 88 55 133l-74 93zm176-87q-76 0-114-40t-37-110q0-69 38-110t113-40q75 0 113 40t38 110q0 70-38 110t-113 40z" unicode="¤"/><glyph d="M46 708h25l229-381h2l227 381h25L321 325h143v-17H311v-80h153v-17H311V0h-22v211H136v17h153v80H136v17h144z" horiz-adv-x="600" unicode="¥"/><glyph d="M150 808h22V427h-22zm0-527h22v-381h-22z" horiz-adv-x="322" unicode="¦"/><glyph d="M311 722q56 0 94-13t72-38l-12-15q-33 24-68 35t-86 12q-63 0-100-26t-36-69q0-28 13-48t45-36 90-32q61-17 95-34t49-40 16-62q0-52-35-84t-98-44q74-21 103-46t30-72q0-59-46-92T310-14q-58 0-101 14t-81 45l12 14q42-29 78-42t93-12q70 0 110 27t40 77q0 30-13 48t-45 31-92 30q-64 17-100 35t-52 43-16 65q0 45 34 78t94 48q-66 23-92 50t-26 71q0 51 43 82t115 32zm-13-243q-63-13-98-45t-35-72q0-36 14-58t46-37 91-30q69 9 107 38t38 80q0 34-13 54t-44 34-94 32q-8 2-12 4z" unicode="§"/><glyph d="M54 684q24 0 24-24 0-23-24-23t-24 23q0 24 24 24zm156 0q24 0 24-24 0-23-24-23t-24 23q0 24 24 24z" horiz-adv-x="264" unicode="¨"/><glyph d="M474 722q120 0 204-48t127-130 43-190q0-107-43-190T678 33 474-14q-120 0-205 47T142 164t-42 190q0 107 42 190t127 130 205 48zm0-19q-115 0-195-46T160 533t-39-179q0-101 39-180T279 50 474 5q115 0 194 45t119 124 40 180q0 101-40 179T668 657t-194 46zm7-133q79 0 136-44l-10-14q-29 20-59 29t-67 10q-85 0-130-54t-45-142q0-88 45-143t130-54q67 0 124 40l10-14q-27-21-62-33t-72-12q-93 0-145 59t-51 157q0 98 51 156t145 59z" horiz-adv-x="948" unicode="©"/><glyph d="M269 721q173 0 173-175V328q0-56 4-103h-19q-5 47-5 92h-2q-25-52-75-80t-117-27q-74 0-114 37T74 350q0 62 30 97t93 50 167 15q36 0 56-1v35q0 156-151 156-47 0-83-12t-71-34l-10 15q71 50 164 50zm97-227q-97 0-155-13t-87-43-28-88q0-58 34-90t98-31q65 0 108 26t64 64 20 71v103zM85 28h400V9H85z" horiz-adv-x="560" unicode="ª"/><glyph d="M207 446l14-11-108-142 108-142-14-11L90 285v16zm145 0l14-11-108-142 108-142-14-11-117 145v16z" horiz-adv-x="456" unicode="«"/><glyph d="M105 353h400V190h-20v144H105z" unicode="¬"/><glyph d="M50 303h205v-19H50z" horiz-adv-x="305" unicode="­"/><glyph d="M174 722q60 0 92-34t33-88q0-54-33-88t-92-34q-59 0-92 34t-32 88q0 54 32 88t92 34zm1-16q-53 0-80-30t-27-76q0-47 27-77t80-29q52 0 79 29t28 77q0 47-28 76t-79 30zm-42-33h46q22 0 35-11t14-32q0-18-9-29t-23-14l36-53h-20l-35 51h-26v-51h-18zm18-15v-58h23q37 0 37 30 0 14-10 21t-26 7z" horiz-adv-x="349" unicode="®"/><glyph d="M30 640h232v-19H30z" horiz-adv-x="292" unicode="¯"/><glyph d="M176 722q52 0 84-31t32-83q0-52-32-83t-84-31q-53 0-85 31t-31 83q0 52 31 83t85 31zm0-19q-45 0-70-25t-24-70q0-45 24-70t70-25q45 0 69 25t25 70q0 45-25 70t-69 25z" horiz-adv-x="352" unicode="°"/><glyph d="M295 577h20V387h190v-19H315V177h-20v191H105v19h190zM105 29h400V10H105z" unicode="±"/><glyph d="M268 718q75 0 116-39t41-98q0-54-25-100t-84-103-187-167h315v-20H99v19q133 113 194 173t86 103 24 94q0 53-36 86t-101 33q-51 0-87-16t-71-49l-13 13q39 37 77 54t96 17z" horiz-adv-x="540" unicode="²"/><glyph d="M275 718q74 0 116-36t42-94q0-56-30-86t-71-37v-1q47-5 82-36t36-93q0-72-49-113t-133-41q-60 0-101 15t-77 50l13 13q35-32 72-46t93-13q76 0 117 35t42 99q0 62-40 91t-101 29h-79v19h70q59 0 96 29t38 85q0 53-36 82t-101 30q-48 0-84-12t-72-40l-12 13q36 30 75 44t94 14z" horiz-adv-x="540" unicode="³"/><glyph d="M171 722l14-18L41 593l-11 13z" horiz-adv-x="215" unicode="´"/><glyph d="M95 492h22V194q0-82 39-136T275 4q58 0 102 31t68 85 24 116v256h22V105q0-57 5-105h-20q-5 48-5 129h-2q-26-69-75-107T275-15Q161-15 118 86h-2v-217q0-70-5-113H90q5 48 5 105z" horiz-adv-x="590" unicode="µ"/><glyph d="M238 708h104v-838h-22v490h-82q-92 0-145 44T40 534q0 85 53 129t145 45zm242 0h22v-838h-22zm-242-20q-85 0-131-39T62 534q0-77 45-116t131-38h82v308z" horiz-adv-x="607" unicode="¶"/><glyph d="M120 343q24 0 24-24 0-23-24-23t-24 23q0 24 24 24z" horiz-adv-x="240" unicode="·"/><glyph d="M105 0h20L93-85q19 6 41 6 36 0 57-19t22-50q0-36-28-57t-71-21q-26 0-45 6t-39 16l8 15q19-10 36-14t41-4q37 0 56 15t20 44q0 24-15 38t-43 13q-20 0-48-7H64z" horiz-adv-x="243" unicode="¸"/><glyph d="M285 708h18V211h121v-20H135v19l146 1v471l-156-84-10 17z" horiz-adv-x="540" unicode="¹"/><glyph d="M295 722q109 0 169-70t60-185q0-116-60-186t-169-70q-108 0-167 70T69 467q0 116 58 185t168 70zm0-19q-99 0-152-65T90 467q0-105 53-171t152-66q100 0 153 65t54 172q0 106-54 171t-153 65zM107 28h400V9H107z" horiz-adv-x="604" unicode="º"/><glyph d="M104 446l117-145v-16L104 140l-14 11 108 142L90 435zm145 0l117-145v-16L249 140l-14 11 108 142-108 142z" horiz-adv-x="456" unicode="»"/><glyph d="M246 708h18V211h121v-20H96v19l146 1v471L86 598l-10 17zm552 1h24L404 0h-24zm131-192h24L764 164h249v162h22V164h90v-20h-90V0h-22v144H739v18z" horiz-adv-x="1200" unicode="¼"/><glyph d="M240 708h18V211h121v-20H90v19l146 1v471L80 598l-10 17zm552 1h24L398 0h-24zm162-182q75 0 116-39t41-98q0-54-25-100t-84-103T815 20h315V0H785v19q133 113 194 173t86 103 24 94q0 53-36 86t-101 33q-51 0-87-16t-71-49l-13 13q39 37 77 54t96 17z" horiz-adv-x="1200" unicode="½"/><glyph d="M248 718q74 0 116-36t42-94q0-56-30-86t-71-37v-1q47-5 82-36t36-93q0-72-49-113t-133-41q-60 0-101 15t-77 50l13 13q35-32 72-46t93-13q76 0 117 35t42 99q0 62-40 91t-101 29h-79v19h70q59 0 96 29t38 85q0 53-36 82t-101 30q-48 0-84-12t-72-40l-12 13q36 30 75 44t94 14zm562-9h24L416 0h-24zm131-192h24L776 164h249v162h22V164h90v-20h-90V0h-22v144H751v18z" horiz-adv-x="1200" unicode="¾"/><glyph d="M247 302h20v-42q0-41-22-69t-67-65q-35-28-56-50T86 23 72-49q0-69 44-110t121-42q66 0 111 25t84 65l15-12q-43-47-92-72t-119-25q-56 0-99 22t-65 61-22 87q0 45 16 79t38 57 59 53q43 36 63 61t21 61zm10 204q24 0 24-23 0-24-24-24t-24 24q0 23 24 23z" horiz-adv-x="467" unicode="¿"/><glyph d="M305 708h30L625 0h-24l-83 203H120L39 0H15zm15-14L128 222h382zm-81 209l153-97-9-14-156 92z" horiz-adv-x="640" unicode="À"/><glyph d="M305 708h30L625 0h-24l-83 203H120L39 0H15zm15-14L128 222h382zm80 209l12-19-156-92-9 14z" horiz-adv-x="640" unicode="Á"/><glyph d="M305 708h30L625 0h-24l-83 203H120L39 0H15zm15-14L128 222h382zm-11 206h22l122-95-10-12-123 89-123-89-10 12z" horiz-adv-x="640" unicode="Â"/><glyph d="M305 708h30L625 0h-24l-83 203H120L39 0H15zm15-14L128 222h382zm-55 169q15 0 28-7t35-20q16-11 26-17t20-5q17 0 31 10t31 37l15-7q-30-59-76-59-14 0-28 6t-32 20q-17 12-28 17t-21 6q-17 0-32-11t-30-36l-15 7q32 59 76 59z" horiz-adv-x="640" unicode="Ã"/><glyph d="M305 708h30L625 0h-24l-83 203H120L39 0H15zm15-14L128 222h382zm-78 190q24 0 24-24 0-23-24-23t-24 23q0 24 24 24zm156 0q24 0 24-24 0-23-24-23t-24 23q0 24 24 24z" horiz-adv-x="640" unicode="Ä"/><glyph d="M320 873q39 0 65-25t26-64q0-33-20-57t-51-30L625 0h-24l-83 203H120L39 0H15l285 697q-32 6-52 30t-19 57q0 39 26 64t65 25zm0-18q-32 0-52-20t-19-51q0-31 19-51t52-20q32 0 51 20t20 51q0 31-20 51t-51 20zm0-161L128 222h382z" horiz-adv-x="640" unicode="Å"/><glyph d="M305 708h503v-19H341l106-312h331v-19H454L569 19h298V0H551l-68 203H121L39 0H15zm15-14L128 222h349z" horiz-adv-x="889" unicode="Æ"/><glyph d="M401 722q131 0 225-82l-14-15q-90 78-211 78-101 0-173-45T119 534 82 354q0-101 36-180T227 51 401 6q65 0 125 24t104 68l14-15q-46-46-108-71T406-14l-27-71q20 6 41 6 36 0 57-19t22-50q0-36-28-57t-71-21q-26 0-45 6t-39 16l8 15q19-10 36-14t41-4q37 0 56 15t20 44q0 24-15 38t-43 13q-20 0-48-7h-21l36 90q-104 3-178 50T97 166 60 354q0 108 39 191t117 130 185 47z" horiz-adv-x="669" unicode="Ç"/><glyph d="M105 708h402v-19H126V377h338v-19H126V19h397V0H105zm132 195l153-97-9-14-156 92z" horiz-adv-x="555" unicode="È"/><glyph d="M105 708h402v-19H126V377h338v-19H126V19h397V0H105zm293 195l12-19-156-92-9 14z" horiz-adv-x="555" unicode="É"/><glyph d="M105 708h402v-19H126V377h338v-19H126V19h397V0H105zm202 192h22l122-95-10-12-123 89-123-89-10 12z" horiz-adv-x="555" unicode="Ê"/><glyph d="M105 708h402v-19H126V377h338v-19H126V19h397V0H105zm135 176q24 0 24-24 0-23-24-23t-24 23q0 24 24 24zm156 0q24 0 24-24 0-23-24-23t-24 23q0 24 24 24z" horiz-adv-x="555" unicode="Ë"/><glyph d="M63 708h198v-19h-88V19h88V0H63v19h88v670H63zm18 195l153-97-9-14-156 92z" horiz-adv-x="324" unicode="Ì"/><glyph d="M63 708h198v-19h-88V19h88V0H63v19h88v670H63zm179 195l12-19-156-92-9 14z" horiz-adv-x="324" unicode="Í"/><glyph d="M63 708h198v-19h-88V19h88V0H63v19h88v670H63zm88 192h22l122-95-10-12-123 89-123-89-10 12z" horiz-adv-x="324" unicode="Î"/><glyph d="M63 708h198v-19h-88V19h88V0H63v19h88v670H63zm21 176q24 0 24-24 0-23-24-23t-24 23q0 24 24 24zm156 0q24 0 24-24 0-23-24-23t-24 23q0 24 24 24z" horiz-adv-x="324" unicode="Ï"/><glyph d="M105 708h201q171 0 262-89t92-265q0-176-92-265T306 0H105v343H19v19h86zm22-19V362h170v-19H127V19h174q163 0 250 84t87 251q0 169-87 252t-250 83z" horiz-adv-x="720" unicode="Ð"/><glyph d="M105 708h28L643 29h2v679h22V0h-29L129 680h-2V0h-22zm226 155q15 0 28-7t35-20q16-11 26-17t20-5q17 0 31 10t31 37l15-7q-30-59-76-59-14 0-28 6t-32 20q-17 12-28 17t-21 6q-17 0-32-11t-30-36l-15 7q32 59 76 59z" horiz-adv-x="772" unicode="Ñ"/><glyph d="M404 722q109 0 186-47t118-130 40-191q0-108-40-192T590 32 404-14q-109 0-187 46T100 162 60 354q0 108 40 191t117 130 187 47zm0-19q-102 0-175-45T119 535 82 354q0-102 37-181T229 49 404 5q102 0 174 44t110 124 38 181q0 102-38 181T578 658t-174 45zm-81 200l153-97-9-14-156 92z" horiz-adv-x="808" unicode="Ò"/><glyph d="M404 722q109 0 186-47t118-130 40-191q0-108-40-192T590 32 404-14q-109 0-187 46T100 162 60 354q0 108 40 191t117 130 187 47zm0-19q-102 0-175-45T119 535 82 354q0-102 37-181T229 49 404 5q102 0 174 44t110 124 38 181q0 102-38 181T578 658t-174 45zm80 200l12-19-156-92-9 14z" horiz-adv-x="808" unicode="Ó"/><glyph d="M404 722q109 0 186-47t118-130 40-191q0-108-40-192T590 32 404-14q-109 0-187 46T100 162 60 354q0 108 40 191t117 130 187 47zm0-19q-102 0-175-45T119 535 82 354q0-102 37-181T229 49 404 5q102 0 174 44t110 124 38 181q0 102-38 181T578 658t-174 45zm-11 197h22l122-95-10-12-123 89-123-89-10 12z" horiz-adv-x="808" unicode="Ô"/><glyph d="M404 722q109 0 186-47t118-130 40-191q0-108-40-192T590 32 404-14q-109 0-187 46T100 162 60 354q0 108 40 191t117 130 187 47zm0-19q-102 0-175-45T119 535 82 354q0-102 37-181T229 49 404 5q102 0 174 44t110 124 38 181q0 102-38 181T578 658t-174 45zm-55 160q15 0 28-7t35-20q16-11 26-17t20-5q17 0 31 10t31 37l15-7q-30-59-76-59-14 0-28 6t-32 20q-17 12-28 17t-21 6q-17 0-32-11t-30-36l-15 7q32 59 76 59z" horiz-adv-x="808" unicode="Õ"/><glyph d="M404 722q109 0 186-47t118-130 40-191q0-108-40-192T590 32 404-14q-109 0-187 46T100 162 60 354q0 108 40 191t117 130 187 47zm0-19q-102 0-175-45T119 535 82 354q0-102 37-181T229 49 404 5q102 0 174 44t110 124 38 181q0 102-38 181T578 658t-174 45zm-78 181q24 0 24-24 0-23-24-23t-24 23q0 24 24 24zm156 0q24 0 24-24 0-23-24-23t-24 23q0 24 24 24z" horiz-adv-x="808" unicode="Ö"/><glyph d="M170 432l135-135 135 135 13-13-135-135 135-135-13-13-135 134-134-134-14 13 135 135-135 134z" unicode="×"/><glyph d="M503 781l22-4-18-67q115-30 178-125t63-231q0-108-40-192T590 32 404-14q-35 0-81 7l-18-70-22 4 19 71Q186 28 123 122T60 354q0 108 40 191t117 130 187 47q42 0 82-8zm-99-78q-102 0-175-45T119 535 82 354q0-128 59-219T308 17l175 678q-40 8-79 8zm97-12L327 12q42-7 77-7 102 0 174 44t110 124 38 181q0 128-59 218T501 691z" horiz-adv-x="808" unicode="Ø"/><glyph d="M95 708h22V253Q117 6 365 6t248 247v455h22V252q0-266-270-266T95 252zm190 195l153-97-9-14-156 92z" horiz-adv-x="730" unicode="Ù"/><glyph d="M95 708h22V253Q117 6 365 6t248 247v455h22V252q0-266-270-266T95 252zm351 195l12-19-156-92-9 14z" horiz-adv-x="730" unicode="Ú"/><glyph d="M95 708h22V253Q117 6 365 6t248 247v455h22V252q0-266-270-266T95 252zm260 192h22l122-95-10-12-123 89-123-89-10 12z" horiz-adv-x="730" unicode="Û"/><glyph d="M95 708h22V253Q117 6 365 6t248 247v455h22V252q0-266-270-266T95 252zm193 176q24 0 24-24 0-23-24-23t-24 23q0 24 24 24zm156 0q24 0 24-24 0-23-24-23t-24 23q0 24 24 24z" horiz-adv-x="730" unicode="Ü"/><glyph d="M0 708h25l229-378h2l227 378h25L265 308V0h-22v310zm334 195l12-19-156-92-9 14z" horiz-adv-x="508" unicode="Ý"/><glyph d="M105 708h22V588h188q98 0 165-52t68-164q0-68-32-116t-85-73-112-25H127V0h-22zm22-139V177h193q55 0 102 22t75 67 29 106q0 103-62 150t-149 47z" horiz-adv-x="590" unicode="Þ"/><glyph d="M275 722q42 0 84-15t88-51l-97-246q82-15 134-67t53-144q0-63-28-112t-77-75-108-26q-64 0-113 22l9 17Q267 5 325 5q53 0 96 24t69 68 25 102q0 89-49 134t-136 63v16l93 238q-38 30-74 42t-73 12q-75 0-109-37t-33-98V0h-22v473H15v14l97 5v76q0 75 42 114t121 40z" horiz-adv-x="575" unicode="ß"/><glyph d="M247 506q176 0 176-178V105q0-57 5-105h-20q-5 48-5 94h-2q-25-53-76-81T205-15q-75 0-116 37T48 128q0 63 31 99t95 51 170 15q37 0 57-1v36q0 159-154 159-48 0-85-12t-72-35l-10 15q72 51 167 51zm99-232q-99 0-158-13t-89-44-29-89q0-60 35-92T205 4q66 0 110 27t65 65 21 72v105zM176 722l141-116-11-13-144 111z" horiz-adv-x="509" unicode="à"/><glyph d="M247 506q176 0 176-178V105q0-57 5-105h-20q-5 48-5 94h-2q-25-53-76-81T205-15q-75 0-116 37T48 128q0 63 31 99t95 51 170 15q37 0 57-1v36q0 159-154 159-48 0-85-12t-72-35l-10 15q72 51 167 51zm99-232q-99 0-158-13t-89-44-29-89q0-60 35-92T205 4q66 0 110 27t65 65 21 72v105zm-19 448l14-18-144-111-11 13z" horiz-adv-x="509" unicode="á"/><glyph d="M247 506q176 0 176-178V105q0-57 5-105h-20q-5 48-5 94h-2q-25-53-76-81T205-15q-75 0-116 37T48 128q0 63 31 99t95 51 170 15q37 0 57-1v36q0 159-154 159-48 0-85-12t-72-35l-10 15q72 51 167 51zm99-232q-99 0-158-13t-89-44-29-89q0-60 35-92T205 4q66 0 110 27t65 65 21 72v105zM239 720h22l121-115-12-12-120 109-121-109-12 12z" horiz-adv-x="509" unicode="â"/><glyph d="M247 506q176 0 176-178V105q0-57 5-105h-20q-5 48-5 94h-2q-25-53-76-81T205-15q-75 0-116 37T48 128q0 63 31 99t95 51 170 15q37 0 57-1v36q0 159-154 159-48 0-85-12t-72-35l-10 15q72 51 167 51zm99-232q-99 0-158-13t-89-44-29-89q0-60 35-92T205 4q66 0 110 27t65 65 21 72v105zM195 663q15 0 28-7t35-20q16-11 26-17t20-5q17 0 31 10t31 37l15-7q-30-59-76-59-14 0-28 6t-32 20q-17 12-28 17t-21 6q-17 0-32-11t-30-36l-15 7q32 59 76 59z" horiz-adv-x="509" unicode="ã"/><glyph d="M247 506q176 0 176-178V105q0-57 5-105h-20q-5 48-5 94h-2q-25-53-76-81T205-15q-75 0-116 37T48 128q0 63 31 99t95 51 170 15q37 0 57-1v36q0 159-154 159-48 0-85-12t-72-35l-10 15q72 51 167 51zm99-232q-99 0-158-13t-89-44-29-89q0-60 35-92T205 4q66 0 110 27t65 65 21 72v105zM172 684q24 0 24-24 0-23-24-23t-24 23q0 24 24 24zm156 0q24 0 24-24 0-23-24-23t-24 23q0 24 24 24z" horiz-adv-x="509" unicode="ä"/><glyph d="M247 506q176 0 176-178V105q0-57 5-105h-20q-5 48-5 94h-2q-25-53-76-81T205-15q-75 0-116 37T48 128q0 63 31 99t95 51 170 15q37 0 57-1v36q0 159-154 159-48 0-85-12t-72-35l-10 15q72 51 167 51zm99-232q-99 0-158-13t-89-44-29-89q0-60 35-92T205 4q66 0 110 27t65 65 21 72v105zm-96 486q39 0 65-25t26-64q0-37-26-63t-65-26q-40 0-66 26t-25 63q0 39 26 64t65 25zm0-18q-32 0-52-20t-19-51q0-31 19-51t52-20q32 0 51 20t20 51q0 31-20 51t-51 20z" horiz-adv-x="509" unicode="å"/><glyph d="M247 506q143 0 156-149 20 69 71 109t120 40q62 0 106-32t68-88 23-126v-18H406q1-66 23-120t67-86T601 5q44 0 80 14t76 41l11-15q-40-28-80-44t-87-15q-73 0-126 42t-73 114q-18-79-70-118T215-15q-80 0-124 37T48 128q0 63 30 99t92 51 161 15q34 0 53-1v36q0 159-137 159-48 0-84-12t-73-35l-10 15q73 51 167 51zm346-19q-58 0-100-31t-64-82-23-115h364q0 105-47 166t-130 62zM333 274q-92 0-149-13t-85-44-29-89q0-60 38-92T215 4q57 0 95 27t56 65 18 72v105z" horiz-adv-x="849" unicode="æ"/><glyph d="M289 506q47 0 89-15t71-39l-12-14q-58 49-148 49-101 0-155-67T81 246q0-107 54-174T289 5q81 0 147 49l11-14q-32-25-73-40t-85-14h-2l-27-71q20 6 41 6 36 0 57-19t22-50q0-36-28-57t-71-21q-26 0-45 6t-39 16l8 15q19-10 36-14t41-4q37 0 56 15t20 44q0 24-15 38t-43 13q-20 0-48-7h-21l36 91q-99 7-154 77T59 246q0 118 60 189t170 71z" horiz-adv-x="492" unicode="ç"/><glyph d="M277 506q101 0 155-68t54-180v-16H81q2-103 53-170T283 5q51 0 90 14t79 41l11-15q-40-28-83-44t-97-15q-108 0-166 73T59 251q0 75 26 132t76 90 116 33zm-1-19q-61 0-105-31t-67-82-23-115h384q-2 107-50 167t-139 61zm-69 235l141-116-11-13-144 111z" horiz-adv-x="544" unicode="è"/><glyph d="M277 506q101 0 155-68t54-180v-16H81q2-103 53-170T283 5q51 0 90 14t79 41l11-15q-40-28-83-44t-97-15q-108 0-166 73T59 251q0 75 26 132t76 90 116 33zm-1-19q-61 0-105-31t-67-82-23-115h384q-2 107-50 167t-139 61zm82 235l14-18-144-111-11 13z" horiz-adv-x="544" unicode="é"/><glyph d="M277 506q101 0 155-68t54-180v-16H81q2-103 53-170T283 5q51 0 90 14t79 41l11-15q-40-28-83-44t-97-15q-108 0-166 73T59 251q0 75 26 132t76 90 116 33zm-1-19q-61 0-105-31t-67-82-23-115h384q-2 107-50 167t-139 61zm-6 233h22l121-115-12-12-120 109-121-109-12 12z" horiz-adv-x="544" unicode="ê"/><glyph d="M277 506q101 0 155-68t54-180v-16H81q2-103 53-170T283 5q51 0 90 14t79 41l11-15q-40-28-83-44t-97-15q-108 0-166 73T59 251q0 75 26 132t76 90 116 33zm-1-19q-61 0-105-31t-67-82-23-115h384q-2 107-50 167t-139 61zm-73 197q24 0 24-24 0-23-24-23t-24 23q0 24 24 24zm156 0q24 0 24-24 0-23-24-23t-24 23q0 24 24 24z" horiz-adv-x="544" unicode="ë"/><glyph d="M100 492h22V0h-22zM37 722l141-116-11-13L23 704z" horiz-adv-x="222" unicode="ì"/><glyph d="M100 492h22V0h-22zm88 230l14-18L58 593l-11 13z" horiz-adv-x="222" unicode="í"/><glyph d="M100 492h22V0h-22zm0 228h22l121-115-12-12-120 109-121-109-12 12z" horiz-adv-x="222" unicode="î"/><glyph d="M100 492h22V0h-22zM33 684q24 0 24-24 0-23-24-23T9 660q0 24 24 24zm156 0q24 0 24-24 0-23-24-23t-24 23q0 24 24 24z" horiz-adv-x="222" unicode="ï"/><glyph d="M232 722q68-23 113-47l90 47 9-15-81-43q85-52 130-134t45-212q0-150-59-241T296-14q-110 0-174 66T59 233q0 79 29 137t83 90 123 31q74 0 128-35t95-100q-8 203-173 298l-100-52-8 15 90 47q-48 24-102 41zm62-250q-98 0-156-64T81 232q0-106 57-167T296 5q114 0 167 85t55 233q-43 72-97 110t-127 39z" horiz-adv-x="603" unicode="ð"/><glyph d="M312 506q93 0 138-56t45-143V0h-22v305q0 78-39 130t-122 52q-56 0-100-26t-67-69-24-96V0H99v387q0 57-5 105h20q5-48 5-110h2q24 57 72 90t119 34zm-67 157q15 0 28-7t35-20q16-11 26-17t20-5q17 0 31 10t31 37l15-7q-30-59-76-59-14 0-28 6t-32 20q-17 12-28 17t-21 6q-17 0-32-11t-30-36l-15 7q32 59 76 59z" horiz-adv-x="585" unicode="ñ"/><glyph d="M290 507q111 0 172-71t61-189q0-118-61-190T290-14q-110 0-171 71T59 247q0 118 60 189t171 71zm0-19q-101 0-155-67T81 247q0-107 54-175T290 5q102 0 156 66t55 176q0 108-55 174t-156 67zm-73 234l141-116-11-13-144 111z" horiz-adv-x="582" unicode="ò"/><glyph d="M290 507q111 0 172-71t61-189q0-118-61-190T290-14q-110 0-171 71T59 247q0 118 60 189t171 71zm0-19q-101 0-155-67T81 247q0-107 54-175T290 5q102 0 156 66t55 176q0 108-55 174t-156 67zm78 234l14-18-144-111-11 13z" horiz-adv-x="582" unicode="ó"/><glyph d="M290 507q111 0 172-71t61-189q0-118-61-190T290-14q-110 0-171 71T59 247q0 118 60 189t171 71zm0-19q-101 0-155-67T81 247q0-107 54-175T290 5q102 0 156 66t55 176q0 108-55 174t-156 67zm-10 232h22l121-115-12-12-120 109-121-109-12 12z" horiz-adv-x="582" unicode="ô"/><glyph d="M290 507q111 0 172-71t61-189q0-118-61-190T290-14q-110 0-171 71T59 247q0 118 60 189t171 71zm0-19q-101 0-155-67T81 247q0-107 54-175T290 5q102 0 156 66t55 176q0 108-55 174t-156 67zm-54 175q15 0 28-7t35-20q16-11 26-17t20-5q17 0 31 10t31 37l15-7q-30-59-76-59-14 0-28 6t-32 20q-17 12-28 17t-21 6q-17 0-32-11t-30-36l-15 7q32 59 76 59z" horiz-adv-x="582" unicode="õ"/><glyph d="M290 507q111 0 172-71t61-189q0-118-61-190T290-14q-110 0-171 71T59 247q0 118 60 189t171 71zm0-19q-101 0-155-67T81 247q0-107 54-175T290 5q102 0 156 66t55 176q0 108-55 174t-156 67zm-77 196q24 0 24-24 0-23-24-23t-24 23q0 24 24 24zm156 0q24 0 24-24 0-23-24-23t-24 23q0 24 24 24z" horiz-adv-x="582" unicode="ö"/><glyph d="M105 303h400v-19H105zm200-196q24 0 24-24 0-23-24-23t-24 23q0 24 24 24zm0 400q24 0 24-24 0-23-24-23t-24 23q0 24 24 24z" unicode="÷"/><glyph d="M365 569l20-4-19-68q76-23 116-89t41-161q0-118-61-190T290-14q-27 0-55 5l-17-68-20 4 19 69Q140 18 99 84T59 247q0 118 60 189t171 71q31 0 58-6zm-75-81q-101 0-155-67T81 247q0-87 36-149t105-83l121 468q-27 5-53 5zm71-10L240 10q27-5 50-5 102 0 156 66t55 176q0 86-36 148t-104 83z" horiz-adv-x="582" unicode="ø"/><glyph d="M90 492h22V194q0-82 39-136T270 4q58 0 102 31t68 85 24 116v256h22V105q0-57 5-105h-20q-5 48-5 129h-2q-26-69-75-107T270-15q-91 0-136 57T90 193zm134 230l141-116-11-13-144 111z" horiz-adv-x="585" unicode="ù"/><glyph d="M90 492h22V194q0-82 39-136T270 4q58 0 102 31t68 85 24 116v256h22V105q0-57 5-105h-20q-5 48-5 129h-2q-26-69-75-107T270-15q-91 0-136 57T90 193zm285 230l14-18-144-111-11 13z" horiz-adv-x="585" unicode="ú"/><glyph d="M90 492h22V194q0-82 39-136T270 4q58 0 102 31t68 85 24 116v256h22V105q0-57 5-105h-20q-5 48-5 129h-2q-26-69-75-107T270-15q-91 0-136 57T90 193zm197 228h22l121-115-12-12-120 109-121-109-12 12z" horiz-adv-x="585" unicode="û"/><glyph d="M90 492h22V194q0-82 39-136T270 4q58 0 102 31t68 85 24 116v256h22V105q0-57 5-105h-20q-5 48-5 129h-2q-26-69-75-107T270-15q-91 0-136 57T90 193zm130 192q24 0 24-24 0-23-24-23t-24 23q0 24 24 24zm156 0q24 0 24-24 0-23-24-23t-24 23q0 24 24 24z" horiz-adv-x="585" unicode="ü"/><glyph d="M15 492h23L220 26h1l172 466h23L176-157q-20-53-48-77t-70-24q-24 0-42 7l5 17q17-5 37-5 39 0 62 23t38 67L208-2zm278 230l14-18-144-111-11 13z" horiz-adv-x="431" unicode="ý"/><glyph d="M100 708h23V378h2q25 62 77 95t120 33q70 0 119-34t76-93 26-134q0-74-27-133t-79-93-122-33q-63 0-110 24t-83 71v-325h-22zm223-221q-61 0-107-29t-70-76-24-106V115q40-57 86-84T315 5q65 0 111 31t71 86 24 123q0 68-23 123t-68 87-107 32z" horiz-adv-x="602" unicode="þ"/><glyph d="M15 492h23L220 26h1l172 466h23L176-157q-20-53-48-77t-70-24q-24 0-42 7l5 17q17-5 37-5 39 0 62 23t38 67L208-2zm123 192q24 0 24-24 0-23-24-23t-24 23q0 24 24 24zm156 0q24 0 24-24 0-23-24-23t-24 23q0 24 24 24z" horiz-adv-x="431" unicode="ÿ"/><glyph d="M305 708h30L625 0h-24l-83 203H120L39 0H15zm15-14L128 222h382zM204 840h232v-19H204z" horiz-adv-x="640" unicode="Ā"/><glyph d="M247 506q176 0 176-178V105q0-57 5-105h-20q-5 48-5 94h-2q-25-53-76-81T205-15q-75 0-116 37T48 128q0 63 31 99t95 51 170 15q37 0 57-1v36q0 159-154 159-48 0-85-12t-72-35l-10 15q72 51 167 51zm99-232q-99 0-158-13t-89-44-29-89q0-60 35-92T205 4q66 0 110 27t65 65 21 72v105zM134 640h232v-19H134z" horiz-adv-x="509" unicode="ā"/><glyph d="M305 708h30L625 0h-24l-83 203H120L39 0H15zm15-14L128 222h382zM216 883q24-81 104-81t104 81l18-3q-11-47-43-73t-79-25q-48 0-80 25t-42 73z" horiz-adv-x="640" unicode="Ă"/><glyph d="M247 506q176 0 176-178V105q0-57 5-105h-20q-5 48-5 94h-2q-25-53-76-81T205-15q-75 0-116 37T48 128q0 63 31 99t95 51 170 15q37 0 57-1v36q0 159-154 159-48 0-85-12t-72-35l-10 15q72 51 167 51zm99-232q-99 0-158-13t-89-44-29-89q0-60 35-92T205 4q66 0 110 27t65 65 21 72v105zM146 698q12-51 37-74t67-22q41 0 66 22t38 74l18-3q-22-113-122-113T128 695z" horiz-adv-x="509" unicode="ă"/><glyph d="M305 708h30L625 0q-55-40-79-73t-23-70q0-30 17-45t48-16q37 0 71 19l8-15q-36-23-79-23-39 0-63 22t-24 58q0 73 99 145l-82 201H120L39 0H15zm15-14L128 222h382z" horiz-adv-x="640" unicode="Ą"/><glyph d="M247 506q176 0 176-178V105q0-57 5-105h-3q-55-40-79-73t-23-70q0-30 17-45t48-16q37 0 71 19l8-15q-36-23-79-23-39 0-63 22t-24 58q0 76 106 150-4 56-4 87h-2q-25-53-76-81T205-15q-75 0-116 37T48 128q0 63 31 99t95 51 170 15q37 0 57-1v36q0 159-154 159-48 0-85-12t-72-35l-10 15q72 51 167 51zm99-232q-99 0-158-13t-89-44-29-89q0-60 35-92T205 4q66 0 110 27t65 65 21 72v105z" horiz-adv-x="509" unicode="ą"/><glyph d="M401 722q131 0 225-82l-14-15q-90 78-211 78-101 0-173-45T119 534 82 354q0-101 36-180T227 51 401 6q65 0 125 24t104 68l14-15q-47-47-110-72T401-14q-108 0-185 46T99 162 60 354q0 108 39 191t117 130 185 47zm70 181l12-19-156-92-9 14z" horiz-adv-x="669" unicode="Ć"/><glyph d="M289 506q47 0 89-15t71-39l-12-14q-58 49-148 49-101 0-155-67T81 246q0-107 54-174T289 5q81 0 147 49l11-14q-32-25-73-40t-85-14q-109 0-170 71T59 246q0 118 60 189t170 71zm77 216l14-18-144-111-11 13z" horiz-adv-x="492" unicode="ć"/><glyph d="M401 722q131 0 225-82l-14-15q-90 78-211 78-101 0-173-45T119 534 82 354q0-101 36-180T227 51 401 6q65 0 125 24t104 68l14-15q-47-47-110-72T401-14q-108 0-185 46T99 162 60 354q0 108 39 191t117 130 185 47zm-21 178h22l122-95-10-12-123 89-123-89-10 12z" horiz-adv-x="669" unicode="Ĉ"/><glyph d="M289 506q47 0 89-15t71-39l-12-14q-58 49-148 49-101 0-155-67T81 246q0-107 54-174T289 5q81 0 147 49l11-14q-32-25-73-40t-85-14q-109 0-170 71T59 246q0 118 60 189t170 71zm-11 214h22l121-115-12-12-120 109-121-109-12 12z" horiz-adv-x="492" unicode="ĉ"/><glyph d="M401 722q131 0 225-82l-14-15q-90 78-211 78-101 0-173-45T119 534 82 354q0-101 36-180T227 51 401 6q65 0 125 24t104 68l14-15q-47-47-110-72T401-14q-108 0-185 46T99 162 60 354q0 108 39 191t117 130 185 47zm-10 166q24 0 24-24 0-23-24-23t-24 23q0 24 24 24z" horiz-adv-x="669" unicode="Ċ"/><glyph d="M289 506q47 0 89-15t71-39l-12-14q-58 49-148 49-101 0-155-67T81 246q0-107 54-174T289 5q81 0 147 49l11-14q-32-25-73-40t-85-14q-109 0-170 71T59 246q0 118 60 189t170 71zm0 202q24 0 24-24 0-23-24-23t-24 23q0 24 24 24z" horiz-adv-x="492" unicode="ċ"/><glyph d="M401 722q131 0 225-82l-14-15q-90 78-211 78-101 0-173-45T119 534 82 354q0-101 36-180T227 51 401 6q65 0 125 24t104 68l14-15q-47-47-110-72T401-14q-108 0-185 46T99 162 60 354q0 108 39 191t117 130 185 47zM269 897l122-89 123 89 10-12-122-95h-22l-122 95z" horiz-adv-x="669" unicode="Č"/><glyph d="M289 506q47 0 89-15t71-39l-12-14q-58 49-148 49-101 0-155-67T81 246q0-107 54-174T289 5q81 0 147 49l11-14q-32-25-73-40t-85-14q-109 0-170 71T59 246q0 118 60 189t170 71zM169 717l120-109 120 109 12-12-121-115h-22L157 705z" horiz-adv-x="492" unicode="č"/><glyph d="M105 708h201q171 0 262-89t92-265q0-176-92-265T306 0H105zm22-19V19h174q163 0 250 84t87 251q0 169-87 252t-250 83zm81 208l122-89 123 89 10-12-122-95h-22l-122 95z" horiz-adv-x="720" unicode="Ď"/><glyph d="M480 708h22V105q0-57 5-105h-21q-5 48-5 110h-2q-29-64-80-94T283-14q-70 0-121 33t-77 92-26 136q0 74 28 133t79 92 120 34q66 0 112-26t82-73zM286 487q-62 0-109-32t-71-87-25-121q0-69 23-124t70-87T283 5q60 0 105 27t68 73 24 101v168q-37 57-83 85t-111 28zm300 235l22-4-30-153-15 3z" horiz-adv-x="638" unicode="ď"/><glyph d="M105 708h201q171 0 262-89t92-265q0-176-92-265T306 0H105v343H19v19h86zm22-19V362h170v-19H127V19h174q163 0 250 84t87 251q0 169-87 252t-250 83z" horiz-adv-x="720" unicode="Đ"/><glyph d="M480 708h22v-83h82v-19h-82V105q0-57 5-105h-21q-5 48-5 110h-2q-29-64-80-94T283-14q-70 0-121 33t-77 92-26 136q0 74 28 133t79 92 120 34q66 0 112-26t82-73v199H317v19h163zM286 487q-62 0-109-32t-71-87-25-121q0-69 23-124t70-87T283 5q60 0 105 27t68 73 24 101v168q-37 57-83 85t-111 28z" horiz-adv-x="601" unicode="đ"/><glyph d="M105 708h402v-19H126V377h338v-19H126V19h397V0H105zm97 132h232v-19H202z" horiz-adv-x="555" unicode="Ē"/><glyph d="M277 506q101 0 155-68t54-180v-16H81q2-103 53-170T283 5q51 0 90 14t79 41l11-15q-40-28-83-44t-97-15q-108 0-166 73T59 251q0 75 26 132t76 90 116 33zm-1-19q-61 0-105-31t-67-82-23-115h384q-2 107-50 167t-139 61zM165 640h232v-19H165z" horiz-adv-x="544" unicode="ē"/><glyph d="M105 708h402v-19H126V377h338v-19H126V19h397V0H105zm109 175q24-81 104-81t104 81l18-3q-11-47-43-73t-79-25q-48 0-80 25t-42 73z" horiz-adv-x="555" unicode="Ĕ"/><glyph d="M277 506q101 0 155-68t54-180v-16H81q2-103 53-170T283 5q51 0 90 14t79 41l11-15q-40-28-83-44t-97-15q-108 0-166 73T59 251q0 75 26 132t76 90 116 33zm-1-19q-61 0-105-31t-67-82-23-115h384q-2 107-50 167t-139 61zm-99 211q12-51 37-74t67-22q41 0 66 22t38 74l18-3q-22-113-122-113T159 695z" horiz-adv-x="544" unicode="ĕ"/><glyph d="M105 708h402v-19H126V377h338v-19H126V19h397V0H105zm213 180q24 0 24-24 0-23-24-23t-24 23q0 24 24 24z" horiz-adv-x="555" unicode="Ė"/><glyph d="M277 506q101 0 155-68t54-180v-16H81q2-103 53-170T283 5q51 0 90 14t79 41l11-15q-40-28-83-44t-97-15q-108 0-166 73T59 251q0 75 26 132t76 90 116 33zm-1-19q-61 0-105-31t-67-82-23-115h384q-2 107-50 167t-139 61zm5 221q24 0 24-24 0-23-24-23t-24 23q0 24 24 24z" horiz-adv-x="544" unicode="ė"/><glyph d="M105 708h402v-19H126V377h338v-19H126V19h397V0h-43q-55-40-79-73t-23-70q0-30 17-45t48-16q37 0 71 19l8-15q-36-23-79-23-39 0-63 22t-24 58q0 73 97 143H105z" horiz-adv-x="555" unicode="Ę"/><glyph d="M277 506q101 0 155-68t54-180v-16H81q2-103 53-170T283 5q51 0 90 14t79 41l11-15q-37-27-74-40-58-45-82-78t-24-70q0-30 17-45t48-16q37 0 71 19l8-15q-36-23-79-23-39 0-63 22t-24 58q0 67 89 136-35-7-67-7-108 0-166 73T59 251q0 75 26 132t76 90 116 33zm-1-19q-61 0-105-31t-67-82-23-115h384q-2 107-50 167t-139 61z" horiz-adv-x="544" unicode="ę"/><glyph d="M105 708h402v-19H126V377h338v-19H126V19h397V0H105zm91 189l122-89 123 89 10-12-122-95h-22l-122 95z" horiz-adv-x="555" unicode="Ě"/><glyph d="M277 506q101 0 155-68t54-180v-16H81q2-103 53-170T283 5q51 0 90 14t79 41l11-15q-40-28-83-44t-97-15q-108 0-166 73T59 251q0 75 26 132t76 90 116 33zm-1-19q-61 0-105-31t-67-82-23-115h384q-2 107-50 167t-139 61zM161 717l120-109 120 109 12-12-121-115h-22L149 705z" horiz-adv-x="544" unicode="ě"/><glyph d="M409 722q131 0 225-82l-14-15q-90 78-211 78-103 0-177-45T120 534 82 354q0-103 37-182T228 49 404 5q69 0 122 15t110 42v249H442v19h215V51Q593 19 537 2T404-14q-111 0-189 46T99 162 60 354q0 109 41 192t119 129 189 47zm-16 178h22l122-95-10-12-123 89-123-89-10 12z" horiz-adv-x="752" unicode="Ĝ"/><glyph d="M240 502q25 0 41-3t38-7h159v-19l-128 3q35-17 58-55t23-93q0-84-50-130t-143-45q-51 0-88-18t-37-45q0-51 105-51 143 0 201-33t58-98q0-78-66-122t-183-44q-100 0-152 37T25-117q0 47 28 82t101 63Q92 44 92 90q0 25 21 43t62 29q-59 12-92 54T51 328q0 80 50 127t139 47zm0-19q-79 0-123-42T73 328q0-76 42-116t125-40q84 0 126 40t43 116q0 71-45 113t-124 42zM182 21Q107-5 77-38t-30-79q0-59 45-90t136-32q109 0 168 38t59 109q0 40-24 65T351 9 182 21zm49 699h22l121-115-12-12-120 109-121-109-12 12z" horiz-adv-x="504" unicode="ĝ"/><glyph d="M409 722q131 0 225-82l-14-15q-90 78-211 78-103 0-177-45T120 534 82 354q0-103 37-182T228 49 404 5q69 0 122 15t110 42v249H442v19h215V51Q593 19 537 2T404-14q-111 0-189 46T99 162 60 354q0 109 41 192t119 129 189 47zM300 883q24-81 104-81t104 81l18-3q-11-47-43-73t-79-25q-48 0-80 25t-42 73z" horiz-adv-x="752" unicode="Ğ"/><glyph d="M240 502q25 0 41-3t38-7h159v-19l-128 3q35-17 58-55t23-93q0-84-50-130t-143-45q-51 0-88-18t-37-45q0-51 105-51 143 0 201-33t58-98q0-78-66-122t-183-44q-100 0-152 37T25-117q0 47 28 82t101 63Q92 44 92 90q0 25 21 43t62 29q-59 12-92 54T51 328q0 80 50 127t139 47zm0-19q-79 0-123-42T73 328q0-76 42-116t125-40q84 0 126 40t43 116q0 71-45 113t-124 42zM182 21Q107-5 77-38t-30-79q0-59 45-90t136-32q109 0 168 38t59 109q0 40-24 65T351 9 182 21zm-44 677q12-51 37-74t67-22q41 0 66 22t38 74l18-3q-22-113-122-113T120 695z" horiz-adv-x="504" unicode="ğ"/><glyph d="M409 722q131 0 225-82l-14-15q-90 78-211 78-103 0-177-45T120 534 82 354q0-103 37-182T228 49 404 5q69 0 122 15t110 42v249H442v19h215V51Q593 19 537 2T404-14q-111 0-189 46T99 162 60 354q0 109 41 192t119 129 189 47zm-5 166q24 0 24-24 0-23-24-23t-24 23q0 24 24 24z" horiz-adv-x="752" unicode="Ġ"/><glyph d="M240 502q25 0 41-3t38-7h159v-19l-128 3q35-17 58-55t23-93q0-84-50-130t-143-45q-51 0-88-18t-37-45q0-51 105-51 143 0 201-33t58-98q0-78-66-122t-183-44q-100 0-152 37T25-117q0 47 28 82t101 63Q92 44 92 90q0 25 21 43t62 29q-59 12-92 54T51 328q0 80 50 127t139 47zm0-19q-79 0-123-42T73 328q0-76 42-116t125-40q84 0 126 40t43 116q0 71-45 113t-124 42zM182 21Q107-5 77-38t-30-79q0-59 45-90t136-32q109 0 168 38t59 109q0 40-24 65T351 9 182 21zm60 687q24 0 24-24 0-23-24-23t-24 23q0 24 24 24z" horiz-adv-x="504" unicode="ġ"/><glyph d="M409 722q131 0 225-82l-14-15q-90 78-211 78-103 0-177-45T120 534 82 354q0-103 37-182T228 49 404 5q69 0 122 15t110 42v249H442v19h215V51Q593 19 537 2T404-14q-111 0-189 46T99 162 60 354q0 109 41 192t119 129 189 47zm8-793q22 0 22-28 0-37-12-64t-44-72l-10 6q27 41 36 65t11 54q-24 0-24 19 0 20 21 20z" horiz-adv-x="752" unicode="Ģ"/><glyph d="M240 502q25 0 41-3t38-7h159v-19l-128 3q35-17 58-55t23-93q0-84-50-130t-143-45q-51 0-88-18t-37-45q0-51 105-51 143 0 201-33t58-98q0-78-66-122t-183-44q-100 0-152 37T25-117q0 47 28 82t101 63Q92 44 92 90q0 25 21 43t62 29q-59 12-92 54T51 328q0 80 50 127t139 47zm0-19q-79 0-123-42T73 328q0-76 42-116t125-40q84 0 126 40t43 116q0 71-45 113t-124 42zM182 21Q107-5 77-38t-30-79q0-59 45-90t136-32q109 0 168 38t59 109q0 40-24 65T351 9 182 21zm92 774l10-6q-27-41-36-65t-11-54q24 0 24-19 0-20-21-20-22 0-22 28 0 37 11 64t45 72z" horiz-adv-x="504" unicode="ģ"/><glyph d="M105 708h22V376h470v332h22V0h-22v356H127V0h-22zm246 192h22l122-95-10-12-123 89-123-89-10 12z" horiz-adv-x="724" unicode="Ĥ"/><glyph d="M100 708h22V385h2q22 52 70 86t119 35q93 0 138-56t45-143V0h-22v305q0 78-39 130t-122 52q-56 0-100-26t-67-69-24-96V0h-22zm182 192h22l122-95-10-12-123 89-123-89-10 12z" horiz-adv-x="586" unicode="ĥ"/><glyph d="M105 708h22V582h470v126h22V582h91v-19h-91V0h-22v356H127V0h-22v563H14v19h91zm22-145V376h470v187z" horiz-adv-x="724" unicode="Ħ"/><glyph d="M100 708h22v-83h162v-19H122V385h2q22 52 70 86t119 35q93 0 138-56t45-143V0h-22v305q0 78-39 130t-122 52q-56 0-100-26t-67-69-24-96V0h-22v606H17v19h83z" horiz-adv-x="586" unicode="ħ"/><glyph d="M63 708h198v-19h-88V19h88V0H63v19h88v670H63zm44 155q15 0 28-7t35-20q16-11 26-17t20-5q17 0 31 10t31 37l15-7q-30-59-76-59-14 0-28 6t-32 20q-17 12-28 17t-21 6q-17 0-32-11t-30-36l-15 7q32 59 76 59z" horiz-adv-x="324" unicode="Ĩ"/><glyph d="M100 492h22V0h-22zM56 663q15 0 28-7t35-20q16-11 26-17t20-5q17 0 31 10t31 37l15-7q-30-59-76-59-14 0-28 6t-32 20q-17 12-28 17t-21 6q-17 0-32-11t-30-36l-15 7q32 59 76 59z" horiz-adv-x="222" unicode="ĩ"/><glyph d="M63 708h198v-19h-88V19h88V0H63v19h88v670H63zM46 840h232v-19H46z" horiz-adv-x="324" unicode="Ī"/><glyph d="M100 492h22V0h-22zM-5 640h232v-19H-5z" horiz-adv-x="222" unicode="ī"/><glyph d="M63 708h198v-19h-88V19h88V0H63v19h88v670H63zm-5 175q24-81 104-81t104 81l18-3q-11-47-43-73t-79-25q-48 0-80 25t-42 73z" horiz-adv-x="324" unicode="Ĭ"/><glyph d="M100 492h22V0h-22zM7 698q12-51 37-74t67-22q41 0 66 22t38 74l18-3q-22-113-122-113T-11 695z" horiz-adv-x="222" unicode="ĭ"/><glyph d="M63 708h198v-19h-88V19h88V0h-88q-55-40-79-73t-23-70q0-30 17-45t48-16q37 0 71 19l8-15q-36-23-79-23-39 0-63 22t-24 58q0 73 97 143H63v19h88v670H63z" horiz-adv-x="324" unicode="Į"/><glyph d="M111 708q24 0 24-24 0-23-24-23t-24 23q0 24 24 24zm-11-216h22V0Q67-40 43-73t-23-70q0-30 17-45t48-16q37 0 71 19l8-15q-36-23-79-23-39 0-63 22t-24 58Q-2-69 100 3z" horiz-adv-x="222" unicode="į"/><glyph d="M63 708h198v-19h-88V19h88V0H63v19h88v670H63zm99 180q24 0 24-24 0-23-24-23t-24 23q0 24 24 24z" horiz-adv-x="324" unicode="İ"/><glyph d="M100 492h22V0h-22z" horiz-adv-x="222" unicode="ı"/><glyph d="M63 708h198v-19h-88V19h88V0H63v19h88v670H63zm549 0h22V187q0-91-44-146T453-14q-64 0-119 30l9 16q24-13 53-20t57-7q81 0 120 50t39 133z" horiz-adv-x="729" unicode="Ĳ"/><glyph d="M111 708q24 0 24-24 0-23-24-23t-24 23q0 24 24 24zm222 0q24 0 24-24 0-23-24-23t-24 23q0 24 24 24zM100 492h22V0h-22zm222 0h22v-619q0-68-28-99t-84-32q-14 0-29 3l3 18q14-2 26-2 48 0 69 27t21 85z" horiz-adv-x="444" unicode="ĳ"/><glyph d="M288 708h22V187q0-91-44-146T129-14Q65-14 10 16l9 16q24-13 53-20t57-7q81 0 120 50t39 133zm0 192h22l122-95-10-12-123 89-123-89-10 12z" horiz-adv-x="405" unicode="Ĵ"/><glyph d="M100 492h22v-619q0-68-28-99t-84-32q-14 0-29 3l3 18q14-2 26-2 48 0 69 27t21 85zm0 228h22l121-115-12-12-120 109-121-109-12 12z" horiz-adv-x="222" unicode="ĵ"/><glyph d="M105 708h22V338l360 370h30L204 387 535 0h-29L188 371l-61-63V0h-22zM308-71q22 0 22-28 0-37-12-64t-44-72l-10 6q27 41 36 65t11 54q-24 0-24 19 0 20 21 20z" horiz-adv-x="553" unicode="Ķ"/><glyph d="M100 708h22V248l267 244h31L195 287 450 0h-30L179 273l-57-53V0h-22zM272-71q22 0 22-28 0-37-12-64t-44-72l-10 6q27 41 36 65t11 54q-24 0-24 19 0 20 21 20z" horiz-adv-x="455" unicode="ķ"/><glyph d="M100 492h22V227l267 265h31L193 270 450 0h-30L177 255l-55-54V0h-22z" horiz-adv-x="455" unicode="ĸ"/><glyph d="M105 708h22V20h352V0H105zm91 195l12-19-156-92-9 14z" horiz-adv-x="484" unicode="Ĺ"/><glyph d="M100 708h22V0h-22zm91 195l12-19-156-92-9 14z" horiz-adv-x="222" unicode="ĺ"/><glyph d="M105 708h22V20h352V0H105zM293-71q22 0 22-28 0-37-12-64t-44-72l-10 6q27 41 36 65t11 54q-24 0-24 19 0 20 21 20z" horiz-adv-x="484" unicode="Ļ"/><glyph d="M100 708h22V0h-22zm12-779q22 0 22-28 0-37-12-64t-44-72l-10 6q27 41 36 65t11 54q-24 0-24 19 0 20 21 20z" horiz-adv-x="222" unicode="ļ"/><glyph d="M105 708h22V20h352V0H105zm142 14l22-4-30-153-15 3z" horiz-adv-x="484" unicode="Ľ"/><glyph d="M100 708h22V0h-22zm101 14l22-4-30-153-15 3z" horiz-adv-x="253" unicode="ľ"/><glyph d="M105 708h22V20h352V0H105zm248-308q24 0 24-24 0-23-24-23t-24 23q0 24 24 24z" horiz-adv-x="484" unicode="Ŀ"/><glyph d="M100 708h22V0h-22zm121-346q24 0 24-24 0-23-24-23t-24 23q0 24 24 24z" horiz-adv-x="222" unicode="ŀ"/><glyph d="M105 708h22V331l233 127 10-16-243-132V20h352V0H105v298l-67-37-9 17 76 41z" horiz-adv-x="484" unicode="Ł"/><glyph d="M104 708h22V337l78 42 8-16-86-46V0h-22v305l-78-43-8 16 86 47z" horiz-adv-x="230" unicode="ł"/><glyph d="M105 708h28L643 29h2v679h22V0h-29L129 680h-2V0h-22zm361 195l12-19-156-92-9 14z" horiz-adv-x="772" unicode="Ń"/><glyph d="M312 506q93 0 138-56t45-143V0h-22v305q0 78-39 130t-122 52q-56 0-100-26t-67-69-24-96V0H99v387q0 57-5 105h20q5-48 5-110h2q24 57 72 90t119 34zm65 216l14-18-144-111-11 13z" horiz-adv-x="585" unicode="ń"/><glyph d="M105 708h28L643 29h2v679h22V0h-29L129 680h-2V0h-22zM387-71q22 0 22-28 0-37-12-64t-44-72l-10 6q27 41 36 65t11 54q-24 0-24 19 0 20 21 20z" horiz-adv-x="772" unicode="Ņ"/><glyph d="M312 506q93 0 138-56t45-143V0h-22v305q0 78-39 130t-122 52q-56 0-100-26t-67-69-24-96V0H99v387q0 57-5 105h20q5-48 5-110h2q24 57 72 90t119 34zM294-71q22 0 22-28 0-37-12-64t-44-72l-10 6q27 41 36 65t11 54q-24 0-24 19 0 20 21 20z" horiz-adv-x="585" unicode="ņ"/><glyph d="M105 708h28L643 29h2v679h22V0h-29L129 680h-2V0h-22zm159 189l122-89 123 89 10-12-122-95h-22l-122 95z" horiz-adv-x="772" unicode="Ň"/><glyph d="M312 506q93 0 138-56t45-143V0h-22v305q0 78-39 130t-122 52q-56 0-100-26t-67-69-24-96V0H99v387q0 57-5 105h20q5-48 5-110h2q24 57 72 90t119 34zM180 717l120-109 120 109 12-12-121-115h-22L168 705z" horiz-adv-x="585" unicode="ň"/><glyph d="M312 506q93 0 138-56t45-143V0h-22v305q0 78-39 130t-122 52q-56 0-100-26t-67-69-24-96V0H99v387q0 57-5 105h20q5-48 5-110h2q24 57 72 90t119 34zM115 758q22 0 22-28 0-36-11-63t-43-72l-10 5q25 43 34 67t11 52q-24 0-24 19 0 20 21 20z" horiz-adv-x="585" unicode="ŉ"/><glyph d="M105 708h28L643 29h2v679h22v-835q0-68-28-99t-84-32q-14 0-29 3l3 18q14-2 26-2 48 0 69 27t21 85V0h-7L129 680h-2V0h-22z" horiz-adv-x="772" unicode="Ŋ"/><glyph d="M312 506q93 0 138-56t45-143v-434q0-68-28-99t-84-32q-14 0-29 3l3 18q14-2 26-2 48 0 69 27t21 85v432q0 78-39 130t-122 52q-56 0-100-26t-67-69-24-96V0H99v387q0 57-5 105h20q5-48 5-110h2q24 57 72 90t119 34z" horiz-adv-x="585" unicode="ŋ"/><glyph d="M404 722q109 0 186-47t118-130 40-191q0-108-40-192T590 32 404-14q-109 0-187 46T100 162 60 354q0 108 40 191t117 130 187 47zm0-19q-102 0-175-45T119 535 82 354q0-102 37-181T229 49 404 5q102 0 174 44t110 124 38 181q0 102-38 181T578 658t-174 45zM288 840h232v-19H288z" horiz-adv-x="808" unicode="Ō"/><glyph d="M290 507q111 0 172-71t61-189q0-118-61-190T290-14q-110 0-171 71T59 247q0 118 60 189t171 71zm0-19q-101 0-155-67T81 247q0-107 54-175T290 5q102 0 156 66t55 176q0 108-55 174t-156 67zM175 640h232v-19H175z" horiz-adv-x="582" unicode="ō"/><glyph d="M404 722q109 0 186-47t118-130 40-191q0-108-40-192T590 32 404-14q-109 0-187 46T100 162 60 354q0 108 40 191t117 130 187 47zm0-19q-102 0-175-45T119 535 82 354q0-102 37-181T229 49 404 5q102 0 174 44t110 124 38 181q0 102-38 181T578 658t-174 45zM300 883q24-81 104-81t104 81l18-3q-11-47-43-73t-79-25q-48 0-80 25t-42 73z" horiz-adv-x="808" unicode="Ŏ"/><glyph d="M290 507q111 0 172-71t61-189q0-118-61-190T290-14q-110 0-171 71T59 247q0 118 60 189t171 71zm0-19q-101 0-155-67T81 247q0-107 54-175T290 5q102 0 156 66t55 176q0 108-55 174t-156 67zM187 698q12-51 37-74t67-22q41 0 66 22t38 74l18-3q-22-113-122-113T169 695z" horiz-adv-x="582" unicode="ŏ"/><glyph d="M404 722q109 0 186-47t118-130 40-191q0-108-40-192T590 32 404-14q-109 0-187 46T100 162 60 354q0 108 40 191t117 130 187 47zm0-19q-102 0-175-45T119 535 82 354q0-102 37-181T229 49 404 5q102 0 174 44t110 124 38 181q0 102-38 181T578 658t-174 45zm17 230l19-10-88-140-14 8zm103-8l19-10-93-137-15 9z" horiz-adv-x="808" unicode="Ő"/><glyph d="M290 507q111 0 172-71t61-189q0-118-61-190T290-14q-110 0-171 71T59 247q0 118 60 189t171 71zm0-19q-101 0-155-67T81 247q0-107 54-175T290 5q102 0 156 66t55 176q0 108-55 174t-156 67zm18 245l19-10-88-140-14 8zm103-8l19-10-93-137-15 9z" horiz-adv-x="582" unicode="ő"/><glyph d="M389 722q51 0 101-14h468v-19H529q76-38 120-121t49-191h217v-19H698v-4q0-118-45-207T529 19h445V0H490q-50-14-101-14-102 0-176 46T99 162 60 354q0 108 39 191t114 130 176 47zm0-19q-95 0-165-45T118 534 82 354q0-101 36-181T224 49 389 5q90 0 155 44t98 124 34 181q0 102-34 181t-98 123-155 45z" horiz-adv-x="1006" unicode="Œ"/><glyph d="M280 507q82 0 136-47t75-127q19 80 70 126t127 47q94 0 146-69t53-179v-16H502q2-103 51-170T694 5q45 0 83 14t76 41l11-15q-83-59-170-59-79 0-131 47t-72 129q-19-82-74-129T280-14q-104 0-163 72T59 247q0 117 58 188t163 72zm-1-19q-95 0-147-67T80 247q0-69 23-124t68-87T279 5q96 0 148 67t53 175q0 107-53 174t-148 67zm408-1q-57 0-99-31t-63-82-23-115h364q0 105-48 166t-131 62z" horiz-adv-x="945" unicode="œ"/><glyph d="M105 708h211q57 0 106-23t81-70 31-119q0-61-26-106t-69-70-94-31L541 0h-25L322 288H127V0h-22zm22-19V307h188q54 0 99 22t71 64 27 103q0 65-28 108t-73 64-95 21zm240 214l12-19-156-92-9 14z" horiz-adv-x="594" unicode="Ŕ"/><glyph d="M290 506q13 0 23-2l-2-18q-10 1-22 1-81 0-125-59t-43-154V0H99v387q0 57-5 105h20q5-48 5-110h2q40 124 169 124zm-19 216l14-18-144-111-11 13z" horiz-adv-x="318" unicode="ŕ"/><glyph d="M105 708h211q57 0 106-23t81-70 31-119q0-61-26-106t-69-70-94-31L541 0h-25L322 288H127V0h-22zm22-19V307h188q54 0 99 22t71 64 27 103q0 65-28 108t-73 64-95 21zM313-71q22 0 22-28 0-37-12-64t-44-72l-10 6q27 41 36 65t11 54q-24 0-24 19 0 20 21 20z" horiz-adv-x="594" unicode="Ŗ"/><glyph d="M290 506q13 0 23-2l-2-18q-10 1-22 1-81 0-125-59t-43-154V0H99v387q0 57-5 105h20q5-48 5-110h2q40 124 169 124zM111-71q22 0 22-28 0-37-12-64t-44-72l-10 6q27 41 36 65t11 54q-24 0-24 19 0 20 21 20z" horiz-adv-x="318" unicode="ŗ"/><glyph d="M105 708h211q57 0 106-23t81-70 31-119q0-61-26-106t-69-70-94-31L541 0h-25L322 288H127V0h-22zm22-19V307h188q54 0 99 22t71 64 27 103q0 65-28 108t-73 64-95 21zm38 208l122-89 123 89 10-12-122-95h-22l-122 95z" horiz-adv-x="594" unicode="Ř"/><glyph d="M290 506q13 0 23-2l-2-18q-10 1-22 1-81 0-125-59t-43-154V0H99v387q0 57-5 105h20q5-48 5-110h2q40 124 169 124zM74 717l120-109 120 109 12-12-121-115h-22L62 705z" horiz-adv-x="318" unicode="ř"/><glyph d="M278 722q110 0 192-63l-12-14q-39 29-82 43t-99 15q-86 0-139-41T85 549q0-46 20-76t58-48 102-36q74-21 121-45t73-64 27-101q0-91-61-142T267-14Q131-14 36 71l13 14q49-41 100-60T266 6q86 0 142 45t56 128q0 81-50 122t-151 68q-70 19-113 40t-64 55-22 85q0 80 58 126t156 47zm81 181l12-19-156-92-9 14z" horiz-adv-x="534" unicode="Ś"/><glyph d="M199 506q91 0 152-51l-12-15q-58 47-140 47-61 0-97-27t-35-73q0-46 32-72t113-44q82-19 117-53t36-92q0-63-45-102T202-14q-54 0-96 15T30 45l12 14q38-28 73-41t88-13q62 0 101 32t39 88q0 36-13 59t-44 40-87 30q-85 20-120 51t-34 81q0 56 42 88t112 32zm83 216l14-18-144-111-11 13z" horiz-adv-x="415" unicode="ś"/><glyph d="M278 722q110 0 192-63l-12-14q-39 29-82 43t-99 15q-86 0-139-41T85 549q0-46 20-76t58-48 102-36q74-21 121-45t73-64 27-101q0-91-61-142T267-14Q131-14 36 71l13 14q49-41 100-60T266 6q86 0 142 45t56 128q0 81-50 122t-151 68q-70 19-113 40t-64 55-22 85q0 80 58 126t156 47zm-10 178h22l122-95-10-12-123 89-123-89-10 12z" horiz-adv-x="534" unicode="Ŝ"/><glyph d="M199 506q91 0 152-51l-12-15q-58 47-140 47-61 0-97-27t-35-73q0-46 32-72t113-44q82-19 117-53t36-92q0-63-45-102T202-14q-54 0-96 15T30 45l12 14q38-28 73-41t88-13q62 0 101 32t39 88q0 36-13 59t-44 40-87 30q-85 20-120 51t-34 81q0 56 42 88t112 32zm-5 214h22l121-115-12-12-120 109L84 593l-12 12z" horiz-adv-x="415" unicode="ŝ"/><glyph d="M278 722q110 0 192-63l-12-14q-39 29-82 43t-99 15q-86 0-139-41T85 549q0-46 20-76t58-48 102-36q74-21 121-45t73-64 27-101q0-87-58-138T280-14l-27-71q20 6 41 6 36 0 57-19t22-50q0-36-28-57t-71-21q-26 0-45 6t-39 16l8 15q19-10 36-14t41-4q37 0 56 15t20 44q0 24-15 38t-43 13q-20 0-48-7h-21l36 90Q126-11 36 71l13 14q49-41 100-60T266 6q86 0 142 45t56 128q0 81-50 122t-151 68q-70 19-113 40t-64 55-22 85q0 80 58 126t156 47z" horiz-adv-x="534" unicode="Ş"/><glyph d="M199 506q91 0 152-51l-12-15q-58 47-140 47-61 0-97-27t-35-73q0-46 32-72t113-44q82-19 117-53t36-92q0-63-45-101T205-14l-27-71q20 6 41 6 36 0 57-19t22-50q0-36-28-57t-71-21q-26 0-45 6t-39 16l8 15q19-10 36-14t41-4q37 0 56 15t20 44q0 24-15 38t-43 13q-20 0-48-7h-21l36 90Q95-9 30 45l12 14q38-28 73-41t88-13q62 0 101 32t39 88q0 36-13 59t-44 40-87 30q-85 20-120 51t-34 81q0 56 42 88t112 32z" horiz-adv-x="415" unicode="ş"/><glyph d="M278 722q110 0 192-63l-12-14q-39 29-82 43t-99 15q-86 0-139-41T85 549q0-46 20-76t58-48 102-36q74-21 121-45t73-64 27-101q0-91-61-142T267-14Q131-14 36 71l13 14q49-41 100-60T266 6q86 0 142 45t56 128q0 81-50 122t-151 68q-70 19-113 40t-64 55-22 85q0 80 58 126t156 47zM157 897l122-89 123 89 10-12-122-95h-22l-122 95z" horiz-adv-x="534" unicode="Š"/><glyph d="M199 506q91 0 152-51l-12-15q-58 47-140 47-61 0-97-27t-35-73q0-46 32-72t113-44q82-19 117-53t36-92q0-63-45-102T202-14q-54 0-96 15T30 45l12 14q38-28 73-41t88-13q62 0 101 32t39 88q0 36-13 59t-44 40-87 30q-85 20-120 51t-34 81q0 56 42 88t112 32zM85 717l120-109 120 109 12-12-121-115h-22L73 705z" horiz-adv-x="415" unicode="š"/><glyph d="M5 708h504v-20H268V0h-1l-32-85q19 6 41 6 36 0 57-19t22-50q0-36-28-57t-71-21q-26 0-45 6t-39 16l8 15q19-10 36-14t41-4q37 0 56 15t20 44q0 24-15 38t-43 13q-20 0-48-7h-21L247 0h-1v688H5z" horiz-adv-x="514" unicode="Ţ"/><glyph d="M134 636V492h145v-19H134V100q0-49 23-72t63-23q31 0 58 9l4-17q-27-11-63-11h-9l-27-71q20 6 41 6 36 0 57-19t22-50q0-36-28-57t-71-21q-26 0-45 6t-39 16l8 15q19-10 36-14t41-4q37 0 56 15t20 44q0 24-15 38t-43 13q-20 0-48-7h-21l37 93q-38 8-59 36t-20 75v373H15v15l97 4v136z" horiz-adv-x="312" unicode="ţ"/><glyph d="M5 708h504v-20H268V0h-22v688H5zm130 189l122-89 123 89 10-12-122-95h-22l-122 95z" horiz-adv-x="514" unicode="Ť"/><glyph d="M134 636V492h145v-19H134V100q0-49 23-72t63-23q31 0 58 9l4-17q-27-11-63-11-50 0-79 29t-28 85v373H15v15l97 4v136zm123 86l22-4-30-153-15 3z" horiz-adv-x="312" unicode="ť"/><glyph d="M5 708h504v-20H268V364h128v-19H268V0h-22v345H118v19h128v324H5z" horiz-adv-x="514" unicode="Ŧ"/><glyph d="M134 636V492h145v-19H134V330h115v-19H134V100q0-49 23-72t63-23q31 0 58 9l4-17q-27-11-63-11-50 0-79 29t-28 85v211H15v19h97v143H15v15l97 4v136z" horiz-adv-x="312" unicode="ŧ"/><glyph d="M95 708h22V253Q117 6 365 6t248 247v455h22V252q0-266-270-266T95 252zm216 155q15 0 28-7t35-20q16-11 26-17t20-5q17 0 31 10t31 37l15-7q-30-59-76-59-14 0-28 6t-32 20q-17 12-28 17t-21 6q-17 0-32-11t-30-36l-15 7q32 59 76 59z" horiz-adv-x="730" unicode="Ũ"/><glyph d="M90 492h22V194q0-82 39-136T270 4q58 0 102 31t68 85 24 116v256h22V105q0-57 5-105h-20q-5 48-5 129h-2q-26-69-75-107T270-15q-91 0-136 57T90 193zm153 171q15 0 28-7t35-20q16-11 26-17t20-5q17 0 31 10t31 37l15-7q-30-59-76-59-14 0-28 6t-32 20q-17 12-28 17t-21 6q-17 0-32-11t-30-36l-15 7q32 59 76 59z" horiz-adv-x="585" unicode="ũ"/><glyph d="M95 708h22V253Q117 6 365 6t248 247v455h22V252q0-266-270-266T95 252zm155 132h232v-19H250z" horiz-adv-x="730" unicode="Ū"/><glyph d="M90 492h22V194q0-82 39-136T270 4q58 0 102 31t68 85 24 116v256h22V105q0-57 5-105h-20q-5 48-5 129h-2q-26-69-75-107T270-15q-91 0-136 57T90 193zm92 148h232v-19H182z" horiz-adv-x="585" unicode="ū"/><glyph d="M95 708h22V253Q117 6 365 6t248 247v455h22V252q0-266-270-266T95 252zm167 175q24-81 104-81t104 81l18-3q-11-47-43-73t-79-25q-48 0-80 25t-42 73z" horiz-adv-x="730" unicode="Ŭ"/><glyph d="M90 492h22V194q0-82 39-136T270 4q58 0 102 31t68 85 24 116v256h22V105q0-57 5-105h-20q-5 48-5 129h-2q-26-69-75-107T270-15q-91 0-136 57T90 193zm104 206q12-51 37-74t67-22q41 0 66 22t38 74l18-3q-22-113-122-113T176 695z" horiz-adv-x="585" unicode="ŭ"/><glyph d="M95 708h22V253Q117 6 365 6t248 247v455h22V252q0-266-270-266T95 252zm271 252q39 0 65-25t26-64q0-37-26-63t-65-26q-40 0-66 26t-25 63q0 39 26 64t65 25zm0-18q-32 0-52-20t-19-51q0-31 19-51t52-20q32 0 51 20t20 51q0 31-20 51t-51 20z" horiz-adv-x="730" unicode="Ů"/><glyph d="M90 492h22V194q0-82 39-136T270 4q58 0 102 31t68 85 24 116v256h22V105q0-57 5-105h-20q-5 48-5 129h-2q-26-69-75-107T270-15q-91 0-136 57T90 193zm208 268q39 0 65-25t26-64q0-37-26-63t-65-26q-40 0-66 26t-25 63q0 39 26 64t65 25zm0-18q-32 0-52-20t-19-51q0-31 19-51t52-20q32 0 51 20t20 51q0 31-20 51t-51 20z" horiz-adv-x="585" unicode="ů"/><glyph d="M95 708h22V253Q117 6 365 6t248 247v455h22V252q0-266-270-266T95 252zm288 225l19-10-88-140-14 8zm103-8l19-10-93-137-15 9z" horiz-adv-x="730" unicode="Ű"/><glyph d="M90 492h22V194q0-82 39-136T270 4q58 0 102 31t68 85 24 116v256h22V105q0-57 5-105h-20q-5 48-5 129h-2q-26-69-75-107T270-15q-91 0-136 57T90 193zm225 241l19-10-88-140-14 8zm103-8l19-10-93-137-15 9z" horiz-adv-x="585" unicode="ű"/><glyph d="M95 708h22V253Q117 6 365 6t248 247v455h22V252Q635 45 471-1q-54-42-77-74t-22-68q0-30 17-45t48-16q37 0 71 19l8-15q-36-23-79-23-39 0-63 22t-24 58q0 66 88 135-34-6-73-6Q95-14 95 252z" horiz-adv-x="730" unicode="Ų"/><glyph d="M90 492h22V194q0-82 39-136T270 4q58 0 102 31t68 85 24 116v256h22V105q0-57 5-105h-3q-55-40-79-73t-23-70q0-30 17-45t48-16q37 0 71 19l8-15q-36-23-79-23-39 0-63 22t-24 58q0 76 106 150-4 56-4 122h-2q-26-69-75-107T270-15q-91 0-136 57T90 193z" horiz-adv-x="585" unicode="ų"/><glyph d="M25 708h23L252 20h2l201 688h33L693 20h2l204 688h23L710 0h-33L472 687h-2L269 0h-32zm436 192h22l122-95-10-12-123 89-123-89-10 12z" horiz-adv-x="947" unicode="Ŵ"/><glyph d="M30 492h23L185 22h2l152 470h31L523 22h2l132 470h23L539 0h-30L355 469h-2L200 0h-30zm314 228h22l121-115-12-12-120 109-121-109-12 12z" horiz-adv-x="710" unicode="ŵ"/><glyph d="M0 708h25l229-378h2l227 378h25L265 308V0h-22v310zm243 192h22l122-95-10-12-123 89-123-89-10 12z" horiz-adv-x="508" unicode="Ŷ"/><glyph d="M15 492h23L220 26h1l172 466h23L176-157q-20-53-48-77t-70-24q-24 0-42 7l5 17q17-5 37-5 39 0 62 23t38 67L208-2zm190 228h22l121-115-12-12-120 109L95 593l-12 12z" horiz-adv-x="431" unicode="ŷ"/><glyph d="M0 708h25l229-378h2l227 378h25L265 308V0h-22v310zm176 176q24 0 24-24 0-23-24-23t-24 23q0 24 24 24zm156 0q24 0 24-24 0-23-24-23t-24 23q0 24 24 24z" horiz-adv-x="508" unicode="Ÿ"/><glyph d="M55 708h461v-26L63 19h465V0H42v24l454 665H55zm316 195l12-19-156-92-9 14z" horiz-adv-x="581" unicode="Ź"/><glyph d="M56 492h310v-22L62 19h316V0H40v21l304 452H56zm234 230l14-18-144-111-11 13z" horiz-adv-x="418" unicode="ź"/><glyph d="M55 708h461v-26L63 19h465V0H42v24l454 665H55zm236 180q24 0 24-24 0-23-24-23t-24 23q0 24 24 24z" horiz-adv-x="581" unicode="Ż"/><glyph d="M56 492h310v-22L62 19h316V0H40v21l304 452H56zm157 216q24 0 24-24 0-23-24-23t-24 23q0 24 24 24z" horiz-adv-x="418" unicode="ż"/><glyph d="M55 708h461v-26L63 19h465V0H42v24l454 665H55zm114 189l122-89 123 89 10-12-122-95h-22l-122 95z" horiz-adv-x="581" unicode="Ž"/><glyph d="M56 492h310v-22L62 19h316V0H40v21l304 452H56zm37 225l120-109 120 109 12-12-121-115h-22L81 705z" horiz-adv-x="418" unicode="ž"/><glyph d="M399 722q37 0 66-7l-4-17q-31 6-61 6-56 0-86-35t-29-98v-79h134v-17H285v-602q0-68-28-99t-84-32q-14 0-29 3l3 18q14-2 26-2 48 0 69 27t21 85v602h-97v17h97v78q0 74 35 113t101 39z" unicode="ƒ"/><glyph d="M278 722q110 0 192-63l-12-14q-39 29-82 43t-99 15q-86 0-139-41T85 549q0-46 20-76t58-48 102-36q74-21 121-45t73-64 27-101q0-91-61-142T267-14Q131-14 36 71l13 14q49-41 100-60T266 6q86 0 142 45t56 128q0 81-50 122t-151 68q-70 19-113 40t-64 55-22 85q0 80 58 126t156 47zm-2-793q22 0 22-28 0-37-12-64t-44-72l-10 6q27 41 36 65t11 54q-24 0-24 19 0 20 21 20z" horiz-adv-x="534" unicode="Ș"/><glyph d="M199 506q91 0 152-51l-12-15q-58 47-140 47-61 0-97-27t-35-73q0-46 32-72t113-44q82-19 117-53t36-92q0-63-45-102T202-14q-54 0-96 15T30 45l12 14q38-28 73-41t88-13q62 0 101 32t39 88q0 36-13 59t-44 40-87 30q-85 20-120 51t-34 81q0 56 42 88t112 32zm2-577q22 0 22-28 0-37-12-64t-44-72l-10 6q27 41 36 65t11 54q-24 0-24 19 0 20 21 20z" horiz-adv-x="415" unicode="ș"/><glyph d="M5 708h504v-20H268V0h-22v688H5zM258-71q22 0 22-28 0-37-12-64t-44-72l-10 6q27 41 36 65t11 54q-24 0-24 19 0 20 21 20z" horiz-adv-x="514" unicode="Ț"/><glyph d="M134 636V492h145v-19H134V100q0-49 23-72t63-23q31 0 58 9l4-17q-27-11-63-11-50 0-79 29t-28 85v373H15v15l97 4v136zm72-707q22 0 22-28 0-37-12-64t-44-72l-10 6q27 41 36 65t11 54q-24 0-24 19 0 20 21 20z" horiz-adv-x="312" unicode="ț"/><glyph d="M100 492h22v-619q0-68-28-99t-84-32q-14 0-29 3l3 18q14-2 26-2 48 0 69 27t21 85z" horiz-adv-x="222" unicode="ȷ"/><glyph d="M152 720h22l121-115-12-12-120 109L42 593l-12 12z" horiz-adv-x="325" unicode="ˆ"/><glyph d="M42 717l120-109 120 109 12-12-121-115h-22L30 705z" horiz-adv-x="324" unicode="ˇ"/><glyph d="M30 640h232v-19H30z" horiz-adv-x="292" unicode="ˉ"/><glyph d="M48 698q12-51 37-74t67-22q41 0 66 22t38 74l18-3q-22-113-122-113T30 695z" horiz-adv-x="304" unicode="˘"/><glyph d="M54 708q24 0 24-24 0-23-24-23t-24 23q0 24 24 24z" horiz-adv-x="108" unicode="˙"/><glyph d="M121 760q39 0 65-25t26-64q0-37-26-63t-65-26q-40 0-66 26t-25 63q0 39 26 64t65 25zm0-18q-32 0-52-20t-19-51q0-31 19-51t52-20q32 0 51 20t20 51q0 31-20 51t-51 20z" horiz-adv-x="242" unicode="˚"/><glyph d="M137 7l17-7Q99-40 75-73t-23-70q0-30 17-45t48-16q37 0 71 19l8-15q-36-23-79-23-39 0-63 22t-24 58Q30-67 137 7z" horiz-adv-x="226" unicode="˛"/><glyph d="M106 663q15 0 28-7t35-20q16-11 26-17t20-5q17 0 31 10t31 37l15-7q-30-59-76-59-14 0-28 6t-32 20q-17 12-28 17t-21 6q-17 0-32-11t-30-36l-15 7q32 59 76 59z" horiz-adv-x="322" unicode="˜"/><glyph d="M113 733l19-10-88-140-14 8zm103-8l19-10-93-137-15 9z" horiz-adv-x="265" unicode="˝"/><glyph d="M-43 795l10-6q-27-41-36-65t-11-54q24 0 24-19 0-20-21-20-22 0-22 28 0 37 12 64t44 72z" horiz-adv-x="0" unicode="̒"/><glyph d="M-50-71q22 0 22-28 0-37-12-64t-44-72l-10 6q27 41 36 65t11 54q-24 0-24 19 0 20 21 20z" horiz-adv-x="0" unicode="̦"/><glyph d="M305 708h30L625 0H15zm15-14L47 19h546z" horiz-adv-x="640" unicode="Δ"/><glyph d="M394 722q104 0 179-47t115-130 40-191q0-115-50-202T538 22h190V0H488v22q102 35 160 123t58 209q0 102-37 181T561 658t-167 45q-97 0-168-45T119 535 82 354q0-120 58-209T299 22V0H60v22h190q-90 43-140 130T60 354q0 108 39 191t115 130 180 47z" horiz-adv-x="788" unicode="Ω"/><glyph d="M95 492h22V194q0-82 39-136T275 4q58 0 102 31t68 85 24 116v256h22V105q0-57 5-105h-20q-5 48-5 129h-2q-26-69-75-107T275-15Q161-15 118 86h-2v-217q0-70-5-113H90q5 48 5 105z" horiz-adv-x="590" unicode="μ"/><glyph d="M531 506l5-18q-45-15-98-15V115q0-37 5-62t15-53h-21q-11 26-16 51t-5 66v356H127V0h-22v473H10v19h428q47 0 93 14z" horiz-adv-x="556" unicode="π"/><glyph d="M25 708h23L252 20h2l201 688h33L693 20h2l204 688h23L710 0h-33L472 687h-2L269 0h-32zm366 195l153-97-9-14-156 92z" horiz-adv-x="947" unicode="Ẁ"/><glyph d="M30 492h23L185 22h2l152 470h31L523 22h2l132 470h23L539 0h-30L355 469h-2L200 0h-30zm251 230l141-116-11-13-144 111z" horiz-adv-x="710" unicode="ẁ"/><glyph d="M25 708h23L252 20h2l201 688h33L693 20h2l204 688h23L710 0h-33L472 687h-2L269 0h-32zm527 195l12-19-156-92-9 14z" horiz-adv-x="947" unicode="Ẃ"/><glyph d="M30 492h23L185 22h2l152 470h31L523 22h2l132 470h23L539 0h-30L355 469h-2L200 0h-30zm402 230l14-18-144-111-11 13z" horiz-adv-x="710" unicode="ẃ"/><glyph d="M25 708h23L252 20h2l201 688h33L693 20h2l204 688h23L710 0h-33L472 687h-2L269 0h-32zm369 176q24 0 24-24 0-23-24-23t-24 23q0 24 24 24zm156 0q24 0 24-24 0-23-24-23t-24 23q0 24 24 24z" horiz-adv-x="947" unicode="Ẅ"/><glyph d="M30 492h23L185 22h2l152 470h31L523 22h2l132 470h23L539 0h-30L355 469h-2L200 0h-30zm247 192q24 0 24-24 0-23-24-23t-24 23q0 24 24 24zm156 0q24 0 24-24 0-23-24-23t-24 23q0 24 24 24z" horiz-adv-x="710" unicode="ẅ"/><glyph d="M310 722q67 0 124-26t112-77L388 413q116-21 177-72t62-151q0-98-60-151T408-14q-91 0-165 40l10 17Q323 6 407 6q89 0 144 47t55 137q0 95-60 141t-182 68v13l155 205q-49 43-99 64t-111 21q-87 0-143-46t-55-137V0H89l1 520q-1 97 60 149t160 53z" horiz-adv-x="675" unicode="ẞ"/><glyph d="M0 708h25l229-378h2l227 378h25L265 308V0h-22v310zm173 195l153-97-9-14-156 92z" horiz-adv-x="508" unicode="Ỳ"/><glyph d="M15 492h23L220 26h1l172 466h23L176-157q-20-53-48-77t-70-24q-24 0-42 7l5 17q17-5 37-5 39 0 62 23t38 67L208-2zm127 230l141-116-11-13-144 111z" horiz-adv-x="431" unicode="ỳ"/><glyph d="M105 303h400v-19H105z" unicode="–"/><glyph d="M50 303h490v-19H50z" horiz-adv-x="590" unicode="—"/><glyph d="M167 722l8-7q-31-37-44-67t-14-65q27 0 27-21 0-10-6-16t-18-6q-24 0-24 31 0 44 16 78t55 73z" horiz-adv-x="235" unicode="‘"/><glyph d="M115 726q24 0 24-31 0-44-16-78t-55-73l-8 7q31 37 43 66t15 66q-27 0-27 21 0 10 6 16t18 6z" horiz-adv-x="204" unicode="’"/><glyph d="M115 43q24 0 24-31 0-44-16-78t-55-73l-8 7q31 37 43 67t15 65Q91 0 91 21q0 10 6 16t18 6z" horiz-adv-x="235" unicode="‚"/><glyph d="M297 722l8-7q-31-37-44-67t-14-65q27 0 27-21 0-10-6-16t-18-6q-24 0-24 31 0 44 16 78t55 73zm-130 0l8-7q-31-37-44-67t-14-65q27 0 27-21 0-10-6-16t-18-6q-24 0-24 31 0 44 16 78t55 73z" horiz-adv-x="365" unicode="“"/><glyph d="M245 722q24 0 24-31 0-44-16-78t-55-73l-8 7q31 37 43 66t15 66q-27 0-27 21 0 10 6 16t18 6zm-130 0q24 0 24-31 0-44-16-78t-55-73l-8 7q31 37 43 66t15 66q-27 0-27 21 0 10 6 16t18 6z" horiz-adv-x="365" unicode="”"/><glyph d="M115 43q24 0 24-31 0-44-16-78t-55-73l-8 7q31 37 43 67t15 65Q91 0 91 21q0 10 6 16t18 6zm130 0q24 0 24-31 0-44-16-78t-55-73l-8 7q31 37 43 67t15 65q-27 0-27 21 0 10 6 16t18 6z" horiz-adv-x="365" unicode="„"/><glyph d="M264 708h22V511h183v-19H286V0h-22v492H80v19h184z" horiz-adv-x="549" unicode="†"/><glyph d="M264 708h22V511h183v-19H286V297h183v-19H286V0h-22v278H80v19h184v195H80v19h184z" horiz-adv-x="549" unicode="‡"/><glyph d="M144 367q48 0 48-48 0-46-48-46t-48 46q0 48 48 48z" horiz-adv-x="288" unicode="•"/><glyph d="M359 43q24 0 24-24 0-23-24-23t-24 23q0 24 24 24zm241 0q24 0 24-24 0-23-24-23t-24 23q0 24 24 24zm-480 0q24 0 24-24 0-23-24-23T96 19q0 24 24 24z" horiz-adv-x="720" unicode="…"/><glyph d="M393 721q64 0 109-30t67-76 23-101q0-54-23-101t-67-76-109-29q-64 0-109 29t-68 76-22 101q0 54 22 101t68 76 109 30zm488-12h24L487 0h-24zm-488-7q-58 0-98-27t-60-71-19-90q0-47 19-90t60-70 98-27q58 0 98 27t59 70 20 90q0 47-20 90t-59 71-98 27zm585-300q64 0 109-30t67-76 23-101q0-54-23-101t-67-76-109-29q-64 0-109 29t-68 76-22 101q0 54 22 101t68 76 109 30zm459 0q64 0 109-30t67-76 23-101q0-54-23-101t-67-76-109-29q-64 0-109 29t-68 76-22 101q0 54 22 101t68 76 109 30zm-459-19q-58 0-98-27t-60-71-19-90q0-47 19-90t60-70 98-27q58 0 98 27t59 70 20 90q0 47-20 90t-59 71-98 27zm459 0q-58 0-98-27t-60-71-19-90q0-47 19-90t60-70 98-27q58 0 98 27t59 70 20 90q0 47-20 90t-59 71-98 27z" horiz-adv-x="1830" unicode="‰"/><glyph d="M207 446l14-11-108-142 108-142-14-11L90 285v16z" horiz-adv-x="311" unicode="‹"/><glyph d="M104 446l117-145v-16L104 140l-14 11 108 142L90 435z" horiz-adv-x="311" unicode="›"/><glyph d="M297 709h24L-97 0h-24z" horiz-adv-x="191" unicode="⁄"/><glyph d="M270 718q105 0 156-73t52-196q0-123-52-196t-156-72q-104 0-156 72T62 449q0 124 52 196t156 73zm0-19q-94 0-140-68T84 449q0-115 46-182t140-67q95 0 140 67t46 182q0 116-46 183t-140 67z" horiz-adv-x="540" unicode="⁰"/><glyph d="M267 708h24L102 355h249v162h22V355h90v-20h-90V191h-22v144H77v18z" horiz-adv-x="540" unicode="⁴"/><glyph d="M128 708h299v-19H150V478q58 29 132 29 80 0 124-41t45-111q0-79-49-127t-142-47q-56 0-96 15t-75 50l14 13q35-32 71-46t87-13q81 0 124 41t44 113q0 64-39 99t-109 35q-42 0-73-8t-62-23h-18z" horiz-adv-x="540" unicode="⁵"/><glyph d="M297 718q38 0 65-9t55-25l-10-15q-26 16-51 23t-59 8q-91 0-141-72t-53-191q34 40 77 63t107 23q78 0 124-43t47-117q0-82-48-132t-136-50q-99 0-146 63T81 416q0 142 56 222t160 80zm-11-213q-61 0-105-25t-78-71q3-210 171-210 78 0 119 44t42 119q0 68-40 105t-109 38z" horiz-adv-x="540" unicode="⁶"/><glyph d="M93 707h354v-18Q343 569 288 449t-69-258h-24q18 136 70 256t154 240H93z" horiz-adv-x="540" unicode="⁷"/><glyph d="M270 718q72 0 119-33t47-93q0-44-28-75t-87-58q78-25 111-55t33-83q0-64-53-102t-143-38q-92 0-144 38T74 321q0 56 37 93t110 59q-64 22-91 48t-26 72q0 57 47 91t119 34zm0-18q-64 0-104-29t-40-79q0-41 26-65t96-45l52-16q61 28 87 55t27 70q0 52-40 80t-104 29zm-24-235q-79-23-115-57t-35-86q0-58 46-91t127-32q82 0 128 32t46 89q0 36-17 58t-49 39-90 35z" horiz-adv-x="540" unicode="⁸"/><glyph d="M270 718q98 0 143-60t45-175q0-141-81-222t-228-80v19q133 0 208 71t79 191q-28-39-73-63t-106-23q-79 0-128 44T81 543q0 78 49 126t140 49zm0-19q-81 0-124-43t-43-112q0-72 42-111t114-39q61 0 105 25t72 70q-2 106-40 158t-126 52z" horiz-adv-x="540" unicode="⁹"/><glyph d="M260 634h20V498h140v-19H280V342h-20v137H120v19h140z" horiz-adv-x="540" unicode="⁺"/><glyph d="M120 498h300v-19H120z" horiz-adv-x="540" unicode="⁻"/><glyph d="M120 571h300v-19H120zm0-156h300v-19H120z" horiz-adv-x="540" unicode="⁼"/><glyph d="M328 792l16-10q-60-80-93-159t-32-174q0-95 32-173t93-159l-16-10q-64 84-98 162t-33 180q0 102 33 181t98 162z" horiz-adv-x="540" unicode="⁽"/><glyph d="M212 792q64-83 98-163t34-180q0-101-34-179t-98-163l-15 10q60 81 92 159t32 173q0 96-33 174t-91 159z" horiz-adv-x="540" unicode="⁾"/><glyph d="M270 397q105 0 156-73t52-196q0-123-52-195t-156-73q-104 0-156 73T62 128q0 124 52 196t156 73zm0-19q-94 0-140-68T84 128q0-115 46-182t140-67q95 0 140 67t46 182q0 116-46 183t-140 67z" horiz-adv-x="540" unicode="₀"/><glyph d="M285 387h18v-497h121v-20H135v19l146 1v471l-156-84-10 17z" horiz-adv-x="540" unicode="₁"/><glyph d="M268 397q75 0 116-39t41-98q0-54-25-100T316 57 129-110h315v-20H99v19Q232 2 293 62t86 103 24 94q0 53-36 86t-101 33q-51 0-87-16t-71-49l-13 13q39 37 77 54t96 17z" horiz-adv-x="540" unicode="₂"/><glyph d="M275 397q74 0 116-36t42-94q0-56-30-86t-71-37v-1q47-5 82-36t36-93q0-72-49-113t-133-41q-60 0-101 16T90-75l13 13q35-32 72-45t93-14q76 0 117 36t42 98q0 62-40 91t-101 29h-79v19h70q59 0 96 29t38 85q0 53-36 82t-101 30q-48 0-84-12t-72-40l-12 13q36 30 75 44t94 14z" horiz-adv-x="540" unicode="₃"/><glyph d="M267 387h24L102 34h249v162h22V34h90V14h-90v-144h-22V14H77v18z" horiz-adv-x="540" unicode="₄"/><glyph d="M128 387h299v-19H150V157q58 29 132 29 80 0 124-41t45-111q0-79-49-126t-142-48q-56 0-96 16T89-75l14 13q35-32 71-45t87-14q81 0 124 42t44 112q0 64-39 99t-109 35q-42 0-73-8t-62-23h-18z" horiz-adv-x="540" unicode="₅"/><glyph d="M297 397q38 0 65-9t55-25l-10-15q-26 16-51 23t-59 8q-91 0-141-72t-53-191q34 40 77 63t107 23q78 0 124-43t47-117q0-82-48-132t-136-50q-99 0-146 64T81 95q0 142 56 222t160 80zm-11-213q-61 0-105-25t-78-71q3-210 171-210 78 0 119 44t42 119q0 68-40 105t-109 38z" horiz-adv-x="540" unicode="₆"/><glyph d="M93 386h354v-18Q343 248 288 128t-69-258h-24q18 136 70 256t154 240H93z" horiz-adv-x="540" unicode="₇"/><glyph d="M270 397q72 0 119-33t47-93q0-44-28-75t-87-58q78-25 111-55t33-83q0-64-53-102t-143-38q-92 0-144 38T74 0q0 56 37 93t110 59q-64 22-91 48t-26 72q0 57 47 91t119 34zm0-18q-64 0-104-29t-40-79q0-41 26-65t96-45l52-16q61 28 87 55t27 70q0 52-40 80t-104 29zm-24-235q-79-23-115-57T96 1q0-58 46-90t127-33q82 0 128 33t46 88q0 36-17 58t-49 39-90 35z" horiz-adv-x="540" unicode="₈"/><glyph d="M270 397q98 0 143-60t45-175q0-141-81-221t-228-81v19q133 0 208 71t79 191q-28-39-73-63T257 55q-79 0-128 44T81 222q0 78 49 126t140 49zm0-19q-81 0-124-43t-43-112q0-72 42-111t114-39q61 0 105 25t72 70q-2 106-40 158t-126 52z" horiz-adv-x="540" unicode="₉"/><glyph d="M260 293h20V157h140v-19H280V1h-20v137H120v19h140z" horiz-adv-x="540" unicode="₊"/><glyph d="M120 157h300v-19H120z" horiz-adv-x="540" unicode="₋"/><glyph d="M120 230h300v-19H120zm0-156h300V55H120z" horiz-adv-x="540" unicode="₌"/><glyph d="M328 471l16-10q-60-80-93-159t-32-174q0-95 32-172t93-160l-16-10q-64 84-98 163t-33 179q0 102 33 181t98 162z" horiz-adv-x="540" unicode="₍"/><glyph d="M212 471q64-83 98-163t34-180q0-101-34-179t-98-163l-15 10q60 81 92 159t32 173q0 96-33 174t-91 159z" horiz-adv-x="540" unicode="₎"/><glyph d="M383 723q117 0 202-82l-12-15q-81 78-190 78-110 0-179-76t-83-200h342v-17H119q-3-27-3-56 0-30 1-44h326v-17H119q13-134 81-211T383 7q59 0 113 24t93 68l13-15q-42-47-99-72T383-13q-124 0-199 81T97 294H7v17h88q-1 14-1 44 0 20 2 56H7v17h91q17 135 91 215t194 80z" unicode="€"/><glyph d="M79 708h451v-17H327q46-15 78-48t45-83h80v-17h-76q4-20 4-47 0-61-26-106t-69-70-94-31L465 0h-25L246 288H79v19h160q54 0 99 22t71 64 27 103q0 28-4 47H79v17h349q-18 65-71 98t-117 33H79z" unicode="₹"/><glyph d="M165 708h22V416l252 110 7-16-259-112V290l252 110 7-16-259-112V19q130 0 204 27t104 77 30 123h20q0-79-32-133T402 29 187 0h-22v262l-95-41-6 16 101 44v107l-95-41-6 16 101 44z" unicode="₺"/><glyph d="M118 708h202q95 0 156-50t62-159q0-66-29-113t-77-70-108-24H140V189h280v-17H140V0h-22v172H51v17h67v103H51v17h67zm22-19V309h185q54 0 97 22t69 65 25 103q0 99-56 144t-140 46z" unicode="₽"/><glyph d="M219 721q50 0 78-32t28-81q0-169-203-347V100q0-49 23-72t63-23q31 0 58 9l4-17q-27-11-63-11-50 0-79 29t-28 85v144l-62-49-8 14q41 31 70 56v308q0 73 32 110t87 38zm0-19q-44 0-71-32t-26-97V285q94 85 137 164t44 159q0 42-23 68t-61 26z" horiz-adv-x="375" unicode="ℓ"/><glyph d="M474 722q120 0 204-48t127-130 43-190q0-107-43-190T678 33 474-14q-120 0-205 47T142 164t-42 190q0 107 42 190t127 130 205 48zm0-19q-115 0-195-46T160 533t-39-179q0-101 39-180T279 50 474 5q115 0 194 45t119 124 40 180q0 101-40 179T668 657t-194 46zM356 568h141q67 0 107-32t40-101q0-63-41-99t-103-36H377V143h-21zm21-19V320h123q54 0 88 29t35 86q0 63-36 88t-90 26z" horiz-adv-x="948" unicode="℗"/><glyph d="M211 718q84 0 149-49l-12-15q-61 45-137 45-61 0-93-24t-31-64q0-37 28-61t106-42q82-19 113-46t32-75q0-53-45-85t-117-31q-51 0-90 13t-77 39l10 15q39-25 73-37t85-11q62 0 100 25t39 71q0 30-11 47t-40 31-85 27q-81 19-112 48t-31 71q0 50 38 79t108 29zm241-10h33l181-395h2l178 395h33V283h-21v400h-1L675 283h-18L474 683h-1V283h-21z" horiz-adv-x="949" unicode="℠"/><glyph d="M40 708h196v-18h-88V492h-20v198H40zm230 0h31l89-187h2l87 187h31V492h-20v193h-1l-91-193h-17l-90 193h-1V492h-20z" horiz-adv-x="580" unicode="™"/><glyph d="M394 722q104 0 179-47t115-130 40-191q0-115-50-202T538 22h190V0H488v22q102 35 160 123t58 209q0 102-37 181T561 658t-167 45q-97 0-168-45T119 535 82 354q0-120 58-209T299 22V0H60v22h190q-90 43-140 130T60 354q0 108 39 191t115 130 180 47z" horiz-adv-x="788" unicode="Ω"/><glyph d="M450 683q138 0 223-52t122-131 37-170H215q-5 0-5-5V149q0-20 7-28 38-48 97-74t135-25q76 0 135 28t114 80h67Q706 60 636 28T452-3Q335-3 248 42T115 164 70 332q0 91 46 172t133 130 201 49zm-3-24q-60 0-120-24t-108-73q-9-9-9-26V355q0-5 5-5h472q5 0 5 5v180q0 13-10 25-43 54-108 76t-127 23z" horiz-adv-x="902" unicode="℮"/><glyph d="M212 722q91 0 167-51t121-142 45-211q0-150-59-241T303-14q-115 0-176 68T66 239q0 119 64 185t171 67q73 0 126-34t95-97q-5 96-47 174T363 658t-153 45zm89-250q-99 0-156-61T88 238q0-109 54-171T303 5q220 0 220 321-42 71-96 108t-126 38z" unicode="∂"/><glyph d="M305 708h30L625 0H15zm15-14L47 19h546z" horiz-adv-x="640" unicode="∆"/><glyph d="M40 708h562v-19h-95v-809h-22v809H157v-809h-22v809H40z" horiz-adv-x="642" unicode="∏"/><glyph d="M74 708h461v-19H94l246-382v-8L80-103l468 2v-19H62v22l257 400L74 682z" unicode="∑"/><glyph d="M105 303h400v-19H105z" unicode="−"/><glyph d="M297 709h24L-97 0h-24z" horiz-adv-x="191" unicode="∕"/><glyph d="M305 343q24 0 24-24 0-23-24-23t-24 23q0 24 24 24z" unicode="∙"/><glyph d="M527 708h20L331-120h-29L155 265H62v20h108L316-99z" unicode="√"/><glyph d="M260 504q73 0 113-39t75-127q34 86 77 126t116 40q77 0 121-49t45-130q0-82-44-133t-123-50q-73 0-116 34t-77 116q-32-77-75-114t-113-36q-78 0-122 49T93 321q0 80 46 131t121 52zm380-18q-68 0-108-39t-75-130q25-59 49-93t55-48 79-15q68 0 107 41t39 123q0 78-39 119t-107 42zm-380-1q-67 0-107-45t-39-119q0-72 40-117t106-44q65 0 104 36t74 118q-24 65-46 100t-53 53-79 18z" horiz-adv-x="900" unicode="∞"/><glyph d="M406 722q14 0 29-3l-3-18q-14 2-26 2-48 0-69-27t-21-85v-718q0-68-28-99t-84-32q-14 0-29 3l3 18q14-2 26-2 48 0 69 27t21 85v718q0 68 28 99t84 32z" unicode="∫"/><glyph d="M229 400q21 0 40-7t46-21q24-13 42-20t38-7q27 0 48 11t47 41l12-9q-24-32-50-47t-57-15q-21 0-41 7t-47 22q-27 13-44 19t-34 7q-26 0-50-12t-49-40l-12 9q51 62 111 62zm0-160q21 0 40-7t46-21q24-13 42-20t38-7q27 0 48 11t47 41l12-9q-24-32-50-47t-57-15q-21 0-41 7t-47 22q-27 13-44 19t-34 7q-26 0-50-12t-49-40l-12 9q51 62 111 62z" unicode="≈"/><glyph d="M473 549l17-10-94-136h109v-19H383L257 203h248v-19H244L128 17l-17 10 109 157H105v19h128l126 181H105v19h267z" unicode="≠"/><glyph d="M490 580l10-17-364-211 364-211-10-17-378 218v20zM105 28h400V9H105z" unicode="≤"/><glyph d="M105 28h400V9H105zm15 552l378-218v-20L120 124l-10 17 364 211-364 211z" unicode="≥"/><glyph d="M290 708h30l210-354L320 0h-30L80 354zm15-14L104 354 305 14l201 340z" unicode="◊"/><glyph d="M261 722q79 0 143-44 36 44 105 44 37 0 66-7l-4-17q-31 6-61 6-56 0-86-35t-29-98v-79h134v-19H395V0h-22v473H134V0h-22v473H15v14l97 5v78q0 72 36 112t113 40zm0-18q-127 0-127-133v-79h239v78q0 57 21 93-60 41-133 41z" horiz-adv-x="549" unicode="ﬀ"/><glyph d="M261 722q42 0 80-13t69-35l-8-16q-64 46-141 46-127 0-127-133v-79h276V0h-22v473H134V0h-22v473H15v14l97 5v78q0 72 36 112t113 40z" horiz-adv-x="510" unicode="ﬁ"/><glyph d="M261 722q42 0 80-13t69-35V0h-22v667q-57 37-127 37-127 0-127-133v-79h135v-19H134V0h-22v473H15v14l97 5v78q0 72 36 112t113 40z" horiz-adv-x="510" unicode="ﬂ"/><glyph d="M261 722q42 0 80-13t69-35l-8-16q-64 46-141 46-127 0-127-133v-79h267v78q0 72 36 112t113 40q42 0 80-13t69-35l-8-16q-64 46-141 46-127 0-127-133v-79h276V0h-22v473H423V0h-22v473H134V0h-22v473H15v14l97 5v78q0 72 36 112t113 40z" horiz-adv-x="799" unicode="ﬃ"/><glyph d="M261 722q42 0 80-13t69-35l-8-16q-64 46-141 46-127 0-127-133v-79h266v78q0 72 36 112t113 40q42 0 80-13t69-35V0h-22v667q-57 37-127 37-127 0-127-133v-79h135v-19H422V0h-22v473H134V0h-22v473H15v14l97 5v78q0 72 36 112t113 40z" horiz-adv-x="798" unicode="ﬄ"/></font>
</defs>
</svg>
