<svg id="Capa_1" data-name="Capa 1" xmlns="http://www.w3.org/2000/svg" viewBox="0 0 90.15 60.49"><defs><style>.cls-1{fill:#1f2a4f;}</style></defs><title>logoBlue</title><g id="Layer_2" data-name="Layer 2"><rect class="cls-1" x="46.22" y="18.8" width="4.18" height="20.76" rx="0.36"/><path class="cls-1" d="M21.21,38.41a7.73,7.73,0,0,0,4.32,1.15,8.36,8.36,0,0,0,3.38-.67A6.41,6.41,0,0,0,31.43,37a.68.68,0,0,0,.12-.24.43.43,0,0,0-.15-.26L29.26,34.4a.27.27,0,0,0-.37-.07.26.26,0,0,0-.1.13,3.59,3.59,0,0,1-3,1.54,3.1,3.1,0,0,1-3.14-1.66,4.94,4.94,0,0,1-.33-1.18q-.06-.15.12-.15H31.6a.35.35,0,0,0,.39-.3v-.05a13.23,13.23,0,0,0-.12-2.52,7.51,7.51,0,0,0-2.18-4.6,6.53,6.53,0,0,0-4.76-1.71,6.69,6.69,0,0,0-4.05,1.24,6.55,6.55,0,0,0-2.38,3.35,8.31,8.31,0,0,0-.45,2.88,10.22,10.22,0,0,0,.62,3.88A6.45,6.45,0,0,0,21.21,38.41Zm1.29-9.23A2.36,2.36,0,0,1,25,27.43a2.68,2.68,0,0,1,1.64.49,3.1,3.1,0,0,1,1.08,2.21c0,.1,0,.14-.11.14H22.44a.13.13,0,0,1-.14-.12v0a6.17,6.17,0,0,1,.2-.95Z"/><path class="cls-1" d="M36.33,39.46a.33.33,0,0,0,.25.1h3.47a.36.36,0,0,0,.36-.35h0V28a.13.13,0,0,1,.11-.15h2.91a.35.35,0,0,0,.35-.35V24.64a.35.35,0,0,0-.35-.35H40.55a.14.14,0,0,1-.14-.12v-.35a2.08,2.08,0,0,1,.4-1.47,2.11,2.11,0,0,1,1.44-.43h1a.36.36,0,0,0,.36-.35h0V19.16a.36.36,0,0,0-.36-.36H42.09a10.48,10.48,0,0,0-3.48.37,3.1,3.1,0,0,0-1.82,1.46,6,6,0,0,0-.56,2.85v.65a.14.14,0,0,1-.12.15H34.33a.35.35,0,0,0-.36.35h0v2.82a.36.36,0,0,0,.36.36h1.75a.12.12,0,0,1,.14.12V39.19A.35.35,0,0,0,36.33,39.46Z"/><path class="cls-1" d="M64.37,25.07a6.93,6.93,0,0,0-4.15-1.23A7.25,7.25,0,0,0,56,25.09a6.34,6.34,0,0,0-2.46,3.44,11.11,11.11,0,0,0-.42,3.14,10.3,10.3,0,0,0,.42,3,6.46,6.46,0,0,0,2.42,3.56,7,7,0,0,0,4.27,1.31,6.92,6.92,0,0,0,4.26-1.32,6.7,6.7,0,0,0,2.42-3.63,10.54,10.54,0,0,0,.41-3,10,10,0,0,0-.47-3.12A6.57,6.57,0,0,0,64.37,25.07Zm-1.54,8.68a3.31,3.31,0,0,1-1,1.63,2.4,2.4,0,0,1-1.66.59,2.55,2.55,0,0,1-1.71-.59,3.23,3.23,0,0,1-1-1.63,8.89,8.89,0,0,1-.21-2.07,7,7,0,0,1,.24-2.11,3.19,3.19,0,0,1,1-1.57,2.75,2.75,0,0,1,3.33,0,3.29,3.29,0,0,1,1,1.57,8.27,8.27,0,0,1,.25,2.1A9.09,9.09,0,0,1,62.83,33.75Z"/><path class="cls-1" d="M90.1,24.45a.32.32,0,0,0-.26-.1l-3.56-.06a.39.39,0,0,0-.41.3l-2.31,9q0,.09-.09.09s-.07,0-.09-.09l-2.34-9a.4.4,0,0,0-.42-.3H77.51a.39.39,0,0,0-.42.3l-2.22,9q0,.09-.09.09s-.07,0-.09-.09l-2.14-8.95a.4.4,0,0,0-.42-.3H68.54c-.22,0-.32.1-.32.3l0,.11,4.27,14.57a.37.37,0,0,0,.41.29h3.59a.39.39,0,0,0,.42-.29l2-8q0-.09.09-.09s.07,0,.09.09l2.29,8a.37.37,0,0,0,.41.29h3.59a.36.36,0,0,0,.38-.29l4.33-14.53A.37.37,0,0,0,90.1,24.45Z"/><path class="cls-1" d="M12.73,31a6,6,0,0,0,2.62-2.08,6.57,6.57,0,0,0,1.12-3.82,7.36,7.36,0,0,0-.86-3.6A6.06,6.06,0,0,0,13.12,19a7.65,7.65,0,0,0-3.64-.85H1a1,1,0,0,0-1,1V39.21a1,1,0,0,0,1,1H4.47a1,1,0,0,0,1-1V31.6h2L11,39.55a1,1,0,0,0,1,.65h3.65a.88.88,0,0,0,1-.88.92.92,0,0,0-.12-.45ZM11,25.08a1.87,1.87,0,0,1-.58,1.46,2.16,2.16,0,0,1-1.59.58H5.47V23H8.86a2.19,2.19,0,0,1,1.58.57A1.9,1.9,0,0,1,11,25.09Z"/><path class="cls-1" d="M69.75,44.69l-1.84-1.07a1,1,0,0,0-1.4.37A25.28,25.28,0,0,1,44.88,56.27,26.79,26.79,0,0,1,26.31,48.2l3.45.65a1,1,0,0,0,1.2-.76l.6-2.39a1,1,0,0,0-.73-1.24h0l-9.63-2a1.12,1.12,0,0,0-1.33.86l-2.13,9.47a1,1,0,0,0,.17.85,1,1,0,0,0,.61.4l2.36.6a1,1,0,0,0,1.24-.74L23,50.68a29.39,29.39,0,0,0,47.18-4.57,1,1,0,0,0,.08-.87A1.08,1.08,0,0,0,69.75,44.69Z"/><path class="cls-1" d="M73.6,9a1.07,1.07,0,0,0-.64-.4l-2.38-.49a1,1,0,0,0-1.21.78l-.83,3.35C63.66,4.88,54.34,0,44.88,0A29.41,29.41,0,0,0,18,17.43a1,1,0,0,0,.52,1.35h0l2,.86a1,1,0,0,0,1.34-.52,25.22,25.22,0,0,1,23-14.91A26,26,0,0,1,65.43,14.62l-3.71-1a1,1,0,0,0-.83.19,1.1,1.1,0,0,0-.39.64L60,16.85a1,1,0,0,0,.8,1.21l9.8,2.23a1.11,1.11,0,0,0,1.34-.84v0l1.83-9.56A1,1,0,0,0,73.6,9Z"/></g></svg>