<svg id="Capa_1" data-name="Capa 1" xmlns="http://www.w3.org/2000/svg" viewBox="0 0 90.15 60.49"><defs><style>.cls-1{fill:#fff}</style></defs><g id="Layer_2" data-name="Layer 2"><rect class="cls-1" x="46.22" y="18.8" width="4.18" height="20.76" rx=".36"/><path class="cls-1" d="M21.21 38.41a7.73 7.73 0 004.32 1.15 8.36 8.36 0 003.38-.67A6.41 6.41 0 0031.43 37a.68.68 0 00.12-.24.43.43 0 00-.15-.26l-2.14-2.1a.27.27 0 00-.37-.07.26.26 0 00-.1.13 3.59 3.59 0 01-3 1.54 3.1 3.1 0 01-3.14-1.66 4.94 4.94 0 01-.33-1.18q-.06-.15.12-.15h9.16a.35.35 0 00.39-.3v-.05a13.23 13.23 0 00-.12-2.52 7.51 7.51 0 00-2.18-4.6 6.53 6.53 0 00-4.76-1.71 6.69 6.69 0 00-4.05 1.24 6.55 6.55 0 00-2.38 3.35 8.31 8.31 0 00-.45 2.88 10.22 10.22 0 00.62 3.88 6.45 6.45 0 002.54 3.23zm1.29-9.23a2.36 2.36 0 012.5-1.75 2.68 2.68 0 011.64.49 3.1 3.1 0 011.08 2.21c0 .1 0 .14-.11.14h-5.17a.13.13 0 01-.14-.12 6.17 6.17 0 01.2-.95zm13.83 10.28a.33.33 0 00.25.1h3.47a.36.36 0 00.36-.35V28a.13.13 0 01.11-.15h2.91a.35.35 0 00.35-.35v-2.86a.35.35 0 00-.35-.35h-2.88a.14.14 0 01-.14-.12v-.35a2.08 2.08 0 01.4-1.47 2.11 2.11 0 011.44-.43h1a.36.36 0 00.36-.35v-2.41a.36.36 0 00-.36-.36h-1.16a10.48 10.48 0 00-3.48.37 3.1 3.1 0 00-1.82 1.46 6 6 0 00-.56 2.85v.65a.14.14 0 01-.12.15h-1.78a.35.35 0 00-.36.35v2.82a.36.36 0 00.36.36h1.75a.12.12 0 01.14.12v11.26a.35.35 0 00.11.27zm28.04-14.39a6.93 6.93 0 00-4.15-1.23A7.25 7.25 0 0056 25.09a6.34 6.34 0 00-2.46 3.44 11.11 11.11 0 00-.42 3.14 10.3 10.3 0 00.42 3 6.46 6.46 0 002.42 3.56 7 7 0 004.27 1.31 6.92 6.92 0 004.26-1.32 6.7 6.7 0 002.42-3.63 10.54 10.54 0 00.41-3 10 10 0 00-.47-3.12 6.57 6.57 0 00-2.48-3.4zm-1.54 8.68a3.31 3.31 0 01-1 1.63 2.4 2.4 0 01-1.66.59 2.55 2.55 0 01-1.71-.59 3.23 3.23 0 01-1-1.63 8.89 8.89 0 01-.21-2.07 7 7 0 01.24-2.11 3.19 3.19 0 011-1.57 2.75 2.75 0 013.33 0 3.29 3.29 0 011 1.57 8.27 8.27 0 01.25 2.1 9.09 9.09 0 01-.24 2.08zm27.27-9.3a.32.32 0 00-.26-.1l-3.56-.06a.39.39 0 00-.41.3l-2.31 9q0 .09-.09.09s-.07 0-.09-.09l-2.34-9a.4.4 0 00-.42-.3h-3.11a.39.39 0 00-.42.3l-2.22 9q0 .09-.09.09s-.07 0-.09-.09l-2.14-8.95a.4.4 0 00-.42-.3h-3.59c-.22 0-.32.1-.32.3v.11l4.27 14.57a.37.37 0 00.41.29h3.59a.39.39 0 00.42-.29l2-8q0-.09.09-.09s.07 0 .09.09l2.29 8a.37.37 0 00.41.29h3.59a.36.36 0 00.38-.29l4.33-14.53a.37.37 0 00.01-.34zM12.73 31a6 6 0 002.62-2.08 6.57 6.57 0 001.12-3.82 7.36 7.36 0 00-.86-3.6 6.06 6.06 0 00-2.49-2.5 7.65 7.65 0 00-3.64-.85H1a1 1 0 00-1 1v20.06a1 1 0 001 1h3.47a1 1 0 001-1V31.6h2L11 39.55a1 1 0 001 .65h3.65a.88.88 0 001-.88.92.92 0 00-.12-.45zM11 25.08a1.87 1.87 0 01-.58 1.46 2.16 2.16 0 01-1.59.58H5.47V23h3.39a2.19 2.19 0 011.58.57 1.9 1.9 0 01.56 1.52zm58.75 19.61l-1.84-1.07a1 1 0 00-1.4.37 25.28 25.28 0 01-21.63 12.28 26.79 26.79 0 01-18.57-8.07l3.45.65a1 1 0 001.2-.76l.6-2.39a1 1 0 00-.73-1.24l-9.63-2a1.12 1.12 0 00-1.33.86l-2.13 9.47a1 1 0 00.17.85 1 1 0 00.61.4l2.36.6a1 1 0 001.24-.74l.88-3.22a29.39 29.39 0 0047.18-4.57 1 1 0 00.08-.87 1.08 1.08 0 00-.51-.55z"/><path class="cls-1" d="M73.6 9a1.07 1.07 0 00-.64-.4l-2.38-.49a1 1 0 00-1.21.78l-.83 3.35C63.66 4.88 54.34 0 44.88 0A29.41 29.41 0 0018 17.43a1 1 0 00.52 1.35l2 .86a1 1 0 001.34-.52 25.22 25.22 0 0123-14.91 26 26 0 0120.57 10.41l-3.71-1a1 1 0 00-.83.19 1.1 1.1 0 00-.39.64l-.5 2.4a1 1 0 00.8 1.21l9.8 2.23a1.11 1.11 0 001.34-.84l1.83-9.56A1 1 0 0073.6 9z"/></g></svg>